<svg width="16" height="12" viewBox="0 0 16 12" fill="none" xmlns="http://www.w3.org/2000/svg">
<path d="M6.056 11.456C5.904 11.456 5.752 11.4 5.632 11.28L0.776001 6.42402C0.544001 6.19202 0.544001 5.80802 0.776001 5.57602L5.632 0.720021C5.864 0.488021 6.248 0.488021 6.48 0.720021C6.712 0.952021 6.712 1.33602 6.48 1.56802L2.048 6.00002L6.48 10.432C6.712 10.664 6.712 11.048 6.48 11.28C6.368 11.4 6.208 11.456 6.056 11.456Z" fill="#292D32"/>
<path d="M14.8 6.60003H1.336C1.008 6.60003 0.736 6.32802 0.736 6.00002C0.736 5.67202 1.008 5.40002 1.336 5.40002H14.8C15.128 5.40002 15.4 5.67202 15.4 6.00002C15.4 6.32802 15.128 6.60003 14.8 6.60003Z" fill="#292D32"/>
</svg>
