<svg width="16" height="12" viewBox="0 0 16 12" fill="none" xmlns="http://www.w3.org/2000/svg">
<path d="M6.05581 11.456C5.90381 11.456 5.75181 11.4 5.63181 11.28L0.775808 6.42402C0.543808 6.19202 0.543808 5.80802 0.775808 5.57602L5.63181 0.72002C5.86381 0.48802 6.24781 0.48802 6.47981 0.720019C6.71181 0.952019 6.71181 1.33602 6.47981 1.56802L2.04781 6.00002L6.47981 10.432C6.71181 10.664 6.71181 11.048 6.47981 11.28C6.36781 11.4 6.20781 11.456 6.05581 11.456Z" fill="white"/>
<path d="M14.7998 6.60002L1.33584 6.60003C1.00784 6.60003 0.73584 6.32802 0.73584 6.00002C0.73584 5.67202 1.00784 5.40002 1.33584 5.40002L14.7998 5.40002C15.1278 5.40002 15.3998 5.67202 15.3998 6.00002C15.3998 6.32802 15.1278 6.60002 14.7998 6.60002Z" fill="white"/>
</svg>
