<svg width="23" height="27" viewBox="0 0 23 27" fill="none" xmlns="http://www.w3.org/2000/svg">
<path fill-rule="evenodd" clip-rule="evenodd" d="M5.97325 3.30181C6.1137 1.98444 7.22869 0.958313 8.58333 0.958313H14.4167C15.7713 0.958313 16.8863 1.98444 17.0267 3.30181C17.9171 3.31993 18.6869 3.36598 19.3443 3.48672C20.2286 3.64916 20.9812 3.95861 21.5936 4.57103C22.2958 5.27326 22.5979 6.15745 22.7391 7.20757C22.875 8.21904 22.875 9.50508 22.875 11.1006V18.2286C22.875 19.8242 22.875 21.1102 22.7391 22.1217C22.5979 23.1718 22.2958 24.056 21.5936 24.7582C20.8914 25.4604 20.0072 25.7625 18.957 25.9037C17.9456 26.0397 16.6595 26.0396 15.064 26.0396H7.93599C6.34046 26.0396 5.05442 26.0397 4.04296 25.9037C2.99283 25.7625 2.10864 25.4604 1.40641 24.7582C0.704173 24.056 0.40213 23.1718 0.260945 22.1217C0.124957 21.1102 0.124977 19.8242 0.125001 18.2286V11.1006C0.124977 9.50507 0.124957 8.21904 0.260945 7.20757C0.40213 6.15745 0.704173 5.27326 1.40641 4.57103C2.01883 3.95861 2.77141 3.64916 3.65574 3.48672C4.31307 3.36598 5.0829 3.31993 5.97325 3.30181ZM5.97556 5.0523C5.13779 5.0702 4.49221 5.11235 3.9719 5.20793C3.31063 5.32939 2.92788 5.52443 2.64385 5.80846C2.32096 6.13135 2.11044 6.58469 1.99534 7.44076C1.87686 8.322 1.875 9.48997 1.875 11.1646V18.1646C1.875 19.8393 1.87686 21.0072 1.99534 21.8885C2.11044 22.7445 2.32096 23.1979 2.64385 23.5208C2.96674 23.8437 3.42007 24.0542 4.27614 24.1693C5.15738 24.2878 6.32535 24.2896 8 24.2896H15C16.6747 24.2896 17.8426 24.2878 18.7239 24.1693C19.5799 24.0542 20.0333 23.8437 20.3562 23.5208C20.679 23.1979 20.8896 22.7445 21.0047 21.8885C21.1231 21.0072 21.125 19.8393 21.125 18.1646V11.1646C21.125 9.48997 21.1231 8.322 21.0047 7.44076C20.8896 6.58469 20.679 6.13135 20.3562 5.80846C20.0721 5.52443 19.6894 5.32939 19.0281 5.20793C18.5078 5.11235 17.8622 5.0702 17.0244 5.0523C16.8745 6.35965 15.7642 7.37498 14.4167 7.37498H8.58333C7.23583 7.37498 6.12547 6.35965 5.97556 5.0523ZM8.58333 2.70831C8.10008 2.70831 7.70833 3.10006 7.70833 3.58331V4.74998C7.70833 5.23323 8.10008 5.62498 8.58333 5.62498H14.4167C14.8999 5.62498 15.2917 5.23323 15.2917 4.74998V3.58331C15.2917 3.10006 14.8999 2.70831 14.4167 2.70831H8.58333ZM15.6397 11.7363C15.9694 12.0896 15.9503 12.6433 15.597 12.973L10.597 17.6397C10.2608 17.9534 9.73915 17.9534 9.40297 17.6397L7.40297 15.773C7.04969 15.4433 7.0306 14.8896 7.36033 14.5363C7.69006 14.183 8.24375 14.1639 8.59703 14.4936L10 15.8031L14.403 11.6936C14.7563 11.3639 15.3099 11.383 15.6397 11.7363Z" fill="white"/>
</svg>
