<svg width="27" height="27" viewBox="0 0 27 27" fill="none" xmlns="http://www.w3.org/2000/svg">
<path fill-rule="evenodd" clip-rule="evenodd" d="M5.62565 16.4174C5.62565 15.9341 6.0174 15.5424 6.50065 15.5424H15.834C16.3172 15.5424 16.709 15.9341 16.709 16.4174C16.709 16.9006 16.3172 17.2924 15.834 17.2924H6.50065C6.0174 17.2924 5.62565 16.9006 5.62565 16.4174Z" fill="#222222"/>
<path fill-rule="evenodd" clip-rule="evenodd" d="M5.62565 20.5007C5.62565 20.0175 6.0174 19.6257 6.50065 19.6257H12.9173C13.4006 19.6257 13.7923 20.0175 13.7923 20.5007C13.7923 20.984 13.4006 21.3757 12.9173 21.3757H6.50065C6.0174 21.3757 5.62565 20.984 5.62565 20.5007Z" fill="#222222"/>
<path fill-rule="evenodd" clip-rule="evenodd" d="M13.7923 2.80724C13.2552 2.71596 12.523 2.70904 11.2021 2.70904C8.96595 2.70904 7.37652 2.71089 6.17148 2.87217C4.99094 3.03016 4.3126 3.32653 3.81954 3.8196C3.32579 4.31334 3.02985 4.9896 2.87204 6.16337C2.71084 7.36231 2.70899 8.94275 2.70899 11.1674V15.834C2.70899 18.0587 2.71084 19.6391 2.87204 20.8381C3.02985 22.0118 3.32579 22.6881 3.81954 23.1818C4.31328 23.6756 4.98954 23.9715 6.16331 24.1293C7.36225 24.2905 8.94269 24.2924 11.1673 24.2924H15.834C18.0586 24.2924 19.6391 24.2905 20.838 24.1293C22.0118 23.9715 22.688 23.6756 23.1818 23.1818C23.6755 22.6881 23.9715 22.0118 24.1293 20.8381C24.2905 19.6391 24.2923 18.0587 24.2923 15.834V15.3241C24.2923 13.5321 24.2797 12.6826 24.0895 12.0424H20.438C19.1164 12.0424 18.0364 12.0424 17.1837 11.9278C16.2924 11.808 15.5197 11.5486 14.9029 10.9318C14.2861 10.315 14.0267 9.54229 13.9069 8.65101C13.7923 7.79834 13.7923 6.71832 13.7923 5.39668V2.80724ZM15.5423 3.71174V5.33404C15.5423 6.73371 15.5442 7.69544 15.6413 8.41783C15.735 9.11505 15.9028 9.45692 16.1403 9.69439C16.3778 9.93185 16.7196 10.0997 17.4169 10.1934C18.1393 10.2905 19.101 10.2924 20.5007 10.2924H22.8567C22.5109 9.95691 22.0677 9.55495 21.4923 9.03706L16.8737 4.88035C16.3075 4.3707 15.886 3.9945 15.5423 3.71174ZM11.372 0.959013C12.9874 0.958582 14.031 0.958303 14.9916 1.3269C15.9521 1.69549 16.7243 2.39089 17.9192 3.46679C17.9604 3.50394 18.0021 3.54153 18.0444 3.57958L22.663 7.7363C22.7122 7.78055 22.7607 7.82424 22.8087 7.8674C24.1897 9.10948 25.0826 9.91267 25.563 10.9912C26.0433 12.0697 26.0429 13.2707 26.0424 15.1281C26.0423 15.1926 26.0423 15.2579 26.0423 15.3241V15.8999C26.0423 18.0439 26.0424 19.7422 25.8637 21.0712C25.6798 22.4391 25.2923 23.5462 24.4192 24.4193C23.5461 25.2924 22.439 25.6798 21.0712 25.8637C19.7421 26.0424 18.0439 26.0424 15.8998 26.0424H11.1015C8.95745 26.0424 7.25921 26.0424 5.93012 25.8637C4.5623 25.6798 3.45519 25.2924 2.5821 24.4193C1.70901 23.5462 1.32154 22.4391 1.13764 21.0712C0.958952 19.7422 0.958966 18.0439 0.958985 15.8999V11.1016C0.958966 8.95751 0.958952 7.25927 1.13764 5.93018C1.32154 4.56236 1.70901 3.45525 2.5821 2.58216C3.45587 1.70839 4.56669 1.32134 5.93933 1.13763C7.27395 0.95901 8.98064 0.959025 11.1364 0.959043L11.2021 0.959044C11.2594 0.959044 11.3161 0.959028 11.372 0.959013Z" fill="#222222"/>
</svg>
