<svg width="19" height="25" viewBox="0 0 19 25" fill="none" xmlns="http://www.w3.org/2000/svg">
<path fill-rule="evenodd" clip-rule="evenodd" d="M9.49992 0.958313C6.43934 0.958313 3.95825 3.4394 3.95825 6.49998C3.95825 9.56056 6.43934 12.0416 9.49992 12.0416C12.5605 12.0416 15.0416 9.56056 15.0416 6.49998C15.0416 3.4394 12.5605 0.958313 9.49992 0.958313ZM5.70825 6.49998C5.70825 4.4059 7.40584 2.70831 9.49992 2.70831C11.594 2.70831 13.2916 4.4059 13.2916 6.49998C13.2916 8.59406 11.594 10.2916 9.49992 10.2916C7.40584 10.2916 5.70825 8.59406 5.70825 6.49998Z" fill="white"/>
<path fill-rule="evenodd" clip-rule="evenodd" d="M9.49992 13.7916C7.12069 13.7916 4.92369 14.3409 3.29109 15.2738C1.68325 16.1925 0.458252 17.5951 0.458252 19.3333C0.458252 21.0715 1.68325 22.4741 3.29109 23.3929C4.92369 24.3258 7.12069 24.875 9.49992 24.875C11.8791 24.875 14.0761 24.3258 15.7087 23.3929C17.3166 22.4741 18.5416 21.0715 18.5416 19.3333C18.5416 17.5951 17.3166 16.1925 15.7087 15.2738C14.0761 14.3409 11.8791 13.7916 9.49992 13.7916ZM2.20825 19.3333C2.20825 18.4942 2.81143 17.5634 4.15933 16.7932C5.48249 16.0371 7.36882 15.5416 9.49992 15.5416C11.631 15.5416 13.5173 16.0371 14.8405 16.7932C16.1884 17.5634 16.7916 18.4942 16.7916 19.3333C16.7916 20.1725 16.1884 21.1032 14.8405 21.8734C13.5173 22.6295 11.631 23.125 9.49992 23.125C7.36882 23.125 5.48249 22.6295 4.15933 21.8734C2.81143 21.1032 2.20825 20.1725 2.20825 19.3333Z" fill="white"/>
</svg>
