<svg width="20" height="20" viewBox="0 0 20 20" fill="none" xmlns="http://www.w3.org/2000/svg">
<path fill-rule="evenodd" clip-rule="evenodd" d="M19.3327 10C19.3327 15.1547 15.154 19.3334 9.99935 19.3334C4.84469 19.3334 0.666016 15.1547 0.666016 10C0.666016 4.84536 4.84469 0.666687 9.99935 0.666687C15.154 0.666687 19.3327 4.84536 19.3327 10ZM9.99935 6.03335C9.41945 6.03335 8.94935 6.50345 8.94935 7.08335C8.94935 7.46995 8.63595 7.78335 8.24935 7.78335C7.86275 7.78335 7.54935 7.46995 7.54935 7.08335C7.54935 5.73026 8.64625 4.63335 9.99935 4.63335C11.3524 4.63335 12.4493 5.73026 12.4493 7.08335C12.4493 7.7468 12.1847 8.34987 11.7568 8.79039C11.6707 8.87903 11.5885 8.9611 11.5102 9.0394C11.3087 9.24067 11.1322 9.417 10.9774 9.61595C10.773 9.87862 10.6993 10.0717 10.6993 10.2334V10.9334C10.6993 11.32 10.3859 11.6334 9.99935 11.6334C9.61275 11.6334 9.29935 11.32 9.29935 10.9334V10.2334C9.29935 9.62184 9.58402 9.12683 9.87257 8.75608C10.0861 8.48176 10.3544 8.21394 10.5722 7.99659C10.6379 7.93102 10.699 7.87005 10.7526 7.81487C10.937 7.62509 11.0493 7.36806 11.0493 7.08335C11.0493 6.50345 10.5792 6.03335 9.99935 6.03335ZM9.99935 14.6667C10.5148 14.6667 10.9327 14.2488 10.9327 13.7334C10.9327 13.2179 10.5148 12.8 9.99935 12.8C9.48388 12.8 9.06602 13.2179 9.06602 13.7334C9.06602 14.2488 9.48388 14.6667 9.99935 14.6667Z" fill="#1986A0"/>
</svg>
