<svg width="27" height="26" viewBox="0 0 27 26" fill="none" xmlns="http://www.w3.org/2000/svg">
<path fill-rule="evenodd" clip-rule="evenodd" d="M1.98251 0.0513439C1.45857 -0.123304 0.892251 0.159856 0.717604 0.683799C0.542956 1.20774 0.826116 1.77406 1.35006 1.94871L1.70327 2.06645C2.60515 2.36707 3.20142 2.56742 3.64068 2.77177C4.05663 2.96527 4.23646 3.121 4.35169 3.28087C4.46692 3.44074 4.55778 3.66059 4.60982 4.11638C4.66478 4.59773 4.66629 5.22675 4.66629 6.17741L4.66629 9.73986C4.66626 11.5633 4.66624 13.0331 4.82165 14.189C4.98301 15.3892 5.3282 16.3997 6.13075 17.2022C6.93331 18.0048 7.94381 18.35 9.14395 18.5113C10.2999 18.6667 11.7697 18.6667 13.5931 18.6667H24.333C24.8852 18.6667 25.333 18.219 25.333 17.6667C25.333 17.1144 24.8852 16.6667 24.333 16.6667H13.6663C11.7524 16.6667 10.4176 16.6646 9.41045 16.5292C8.43208 16.3976 7.91398 16.157 7.54497 15.788C7.41604 15.6591 7.30279 15.512 7.20438 15.3334H20.4109C21.0087 15.3334 21.5346 15.3334 21.9711 15.2863C22.4437 15.2353 22.9015 15.1219 23.3323 14.8379C23.7631 14.5538 24.0476 14.1776 24.2806 13.7634C24.4959 13.3807 24.703 12.8974 24.9385 12.3479L25.5609 10.8956C26.0736 9.69956 26.5024 8.69897 26.7171 7.88516C26.9411 7.03617 26.9994 6.14976 26.4711 5.34855C25.9428 4.54735 25.105 4.25177 24.2365 4.12319C23.4039 3.99993 22.3153 3.99997 21.014 4.00003L6.60863 4.00003C6.60497 3.96271 6.60106 3.92587 6.59691 3.88952C6.52311 3.24309 6.3623 2.64995 5.97418 2.11145C5.58605 1.57295 5.07419 1.23282 4.48428 0.95839C3.9293 0.700212 3.22353 0.464982 2.38837 0.186627L1.98251 0.0513439ZM6.66629 6.00003C6.66629 6.04035 6.66629 6.08097 6.66629 6.12188L6.66629 9.66669C6.66629 11.2293 6.6677 12.4059 6.74192 13.3334H20.362C21.0232 13.3334 21.44 13.332 21.7564 13.2978C22.0487 13.2663 22.1611 13.2145 22.2313 13.1682C22.3015 13.1219 22.3934 13.039 22.5375 12.7828C22.6936 12.5054 22.859 12.1228 23.1195 11.5151L23.6909 10.1818C24.2436 8.89219 24.6109 8.02845 24.7833 7.37503C24.9508 6.74005 24.8659 6.54735 24.8014 6.44954C24.7369 6.35173 24.5932 6.19779 23.9436 6.10162C23.2751 6.00266 22.3365 6.00003 20.9335 6.00003H6.66629Z" fill="white"/>
<path fill-rule="evenodd" clip-rule="evenodd" d="M5.99962 23C5.99962 24.6569 7.34277 26 8.99962 26C10.6565 26 11.9996 24.6569 11.9996 23C11.9996 21.3432 10.6565 20 8.99962 20C7.34277 20 5.99962 21.3432 5.99962 23ZM8.99962 24C8.44734 24 7.99962 23.5523 7.99962 23C7.99962 22.4477 8.44734 22 8.99962 22C9.55191 22 9.99962 22.4477 9.99962 23C9.99962 23.5523 9.55191 24 8.99962 24Z" fill="white"/>
<path fill-rule="evenodd" clip-rule="evenodd" d="M20.9996 26.0001C19.3428 26.0001 17.9996 24.657 17.9996 23.0001C17.9996 21.3433 19.3428 20.0001 20.9996 20.0001C22.6565 20.0001 23.9996 21.3433 23.9996 23.0001C23.9996 24.657 22.6565 26.0001 20.9996 26.0001ZM19.9996 23.0001C19.9996 23.5524 20.4473 24.0001 20.9996 24.0001C21.5519 24.0001 21.9996 23.5524 21.9996 23.0001C21.9996 22.4478 21.5519 22.0001 20.9996 22.0001C20.4473 22.0001 19.9996 22.4478 19.9996 23.0001Z" fill="white"/>
</svg>
