<svg width="40" height="44" viewBox="0 0 40 44" fill="none" xmlns="http://www.w3.org/2000/svg">
<mask id="mask0_663_22759" style="mask-type:alpha" maskUnits="userSpaceOnUse" x="0" y="0" width="40" height="44">
<path fill-rule="evenodd" clip-rule="evenodd" d="M10.5256 4.51743C10.7663 2.25907 12.6777 0.5 15 0.5H25C27.3223 0.5 29.2337 2.25907 29.4744 4.51743C31.0007 4.54849 32.3205 4.62743 33.4473 4.83442C34.9633 5.11288 36.2534 5.64336 37.3033 6.69322C38.5071 7.89706 39.0249 9.41281 39.267 11.213C39.5001 12.947 39.5 15.1516 39.5 17.8868V30.1063C39.5 32.8414 39.5001 35.0461 39.267 36.78C39.0249 38.5802 38.5071 40.096 37.3033 41.2998C36.0995 42.5037 34.5837 43.0214 32.7835 43.2635C31.0496 43.4966 28.8449 43.4966 26.1097 43.4965H13.8903C11.1551 43.4966 8.95044 43.4966 7.2165 43.2635C5.41628 43.0214 3.90053 42.5037 2.6967 41.2998C1.49287 40.096 0.975081 38.5802 0.733048 36.78C0.499927 35.0461 0.49996 32.8415 0.500001 30.1063V17.8868C0.49996 15.1516 0.499927 12.947 0.733048 11.213C0.975081 9.41281 1.49287 7.89706 2.6967 6.69322C3.74656 5.64336 5.03671 5.11288 6.55271 4.83442C7.67954 4.62743 8.99926 4.54849 10.5256 4.51743ZM10.5295 7.51826C9.09336 7.54894 7.98664 7.62121 7.0947 7.78505C5.96107 7.99328 5.30493 8.32764 4.81802 8.81454C4.2645 9.36807 3.9036 10.1452 3.7063 11.6128C3.50319 13.1235 3.5 15.1257 3.5 17.9965V29.9965C3.5 32.8674 3.50319 34.8696 3.7063 36.3803C3.9036 37.8478 4.2645 38.625 4.81802 39.1785C5.37155 39.732 6.14869 40.0929 7.61624 40.2902C9.12694 40.4933 11.1292 40.4965 14 40.4965H26C28.8708 40.4965 30.8731 40.4933 32.3838 40.2902C33.8513 40.0929 34.6285 39.732 35.182 39.1785C35.7355 38.625 36.0964 37.8478 36.2937 36.3803C36.4968 34.8696 36.5 32.8674 36.5 29.9965V17.9965C36.5 15.1257 36.4968 13.1235 36.2937 11.6128C36.0964 10.1452 35.7355 9.36807 35.182 8.81454C34.6951 8.32764 34.0389 7.99328 32.9053 7.78505C32.0134 7.62121 30.9066 7.54894 29.4705 7.51826C29.2135 9.75944 27.31 11.5 25 11.5H15C12.69 11.5 10.7865 9.75944 10.5295 7.51826ZM15 3.5C14.1716 3.5 13.5 4.17157 13.5 5V7C13.5 7.82843 14.1716 8.5 15 8.5H25C25.8284 8.5 26.5 7.82843 26.5 7V5C26.5 4.17157 25.8284 3.5 25 3.5H15ZM27.0966 18.9765C27.6618 19.5821 27.6291 20.5313 27.0235 21.0966L18.4521 29.0966C17.8757 29.6345 16.9814 29.6345 16.4051 29.0966L12.9765 25.8966C12.3709 25.3313 12.3382 24.3821 12.9034 23.7765C13.4687 23.1709 14.4179 23.1382 15.0235 23.7034L17.4286 25.9482L24.9765 18.9034C25.5822 18.3382 26.5313 18.3709 27.0966 18.9765Z" fill="#222222"/>
</mask>
<g mask="url(#mask0_663_22759)">
<rect width="40" height="44" fill="#222222"/>
<rect x="9" y="12" width="24" height="24" fill="#0394B3"/>
</g>
</svg>
