<svg width="27" height="26" viewBox="0 0 27 26" fill="none" xmlns="http://www.w3.org/2000/svg">
<path fill-rule="evenodd" clip-rule="evenodd" d="M12.1445 2.48888C11.6683 3.11064 11.1309 4.06996 10.3502 5.4704L9.95394 6.1813C9.93006 6.22415 9.90647 6.2666 9.88312 6.30863C9.51943 6.96312 9.21248 7.51552 8.71786 7.89099C8.21792 8.27052 7.60846 8.40748 6.90015 8.56666C6.85463 8.57689 6.8087 8.58721 6.76237 8.59769L5.99282 8.77181C4.47474 9.11529 3.442 9.35162 2.73463 9.63039C2.04436 9.90241 1.89865 10.1253 1.84311 10.3039C1.7845 10.4924 1.78275 10.7807 2.19542 11.4362C2.61427 12.1016 3.32087 12.9315 4.35426 14.1399L4.87889 14.7534C4.90937 14.789 4.93959 14.8243 4.9695 14.8592C5.45687 15.4277 5.86324 15.9017 6.04964 16.5011C6.23492 17.0969 6.17351 17.723 6.09905 18.4821C6.09449 18.5287 6.08987 18.5757 6.08526 18.6233L6.00594 19.4418C5.84983 21.0529 5.74457 22.1621 5.78017 22.9612C5.81569 23.7587 5.98415 23.9792 6.11809 24.0809C6.23721 24.1713 6.45742 24.2714 7.17482 24.0659C7.90388 23.857 8.87284 23.4137 10.2943 22.7592L11.0148 22.4274C11.0592 22.407 11.1031 22.3867 11.1467 22.3665C11.8056 22.062 12.3771 21.7977 13.0007 21.7977C13.6244 21.7977 14.1959 22.062 14.8548 22.3665C14.8983 22.3867 14.9423 22.407 14.9867 22.4274L15.7072 22.7592C17.1286 23.4137 18.0976 23.857 18.8267 24.0659C19.5441 24.2714 19.7643 24.1713 19.8834 24.0809C20.0173 23.9792 20.1858 23.7587 20.2213 22.9612C20.2569 22.1621 20.1517 21.0529 19.9955 19.4418L19.9162 18.6233C19.9116 18.5757 19.907 18.5287 19.9024 18.4821C19.828 17.723 19.7666 17.0969 19.9518 16.5011C20.1382 15.9017 20.5446 15.4277 21.032 14.8591C21.0619 14.8243 21.0921 14.789 21.1226 14.7534L21.6472 14.1399C22.6806 12.9315 23.3872 12.1016 23.8061 11.4362C24.2187 10.7807 24.217 10.4924 24.1584 10.3039C24.1028 10.1253 23.9571 9.90241 23.2668 9.63039C22.5595 9.35162 21.5267 9.11529 20.0087 8.77181L19.2391 8.59769C19.1928 8.58721 19.1468 8.57689 19.1013 8.56666C18.393 8.40748 17.7836 8.27052 17.2836 7.89099C16.789 7.51552 16.482 6.96312 16.1184 6.30863C16.095 6.2666 16.0714 6.22415 16.0475 6.1813L15.6512 5.4704C14.8706 4.06996 14.3331 3.11064 13.857 2.48888C13.3813 1.8677 13.1383 1.81397 13.0007 1.81397C12.8632 1.81397 12.6202 1.8677 12.1445 2.48888ZM10.7043 1.38599C11.2808 0.633235 11.9933 0 13.0007 0C14.0082 0 14.7207 0.633234 15.2972 1.38599C15.8636 2.12565 16.4642 3.20319 17.1983 4.52013L17.632 5.29808C18.1067 6.14965 18.2281 6.33054 18.3804 6.44617C18.527 6.55748 18.7162 6.61955 19.6394 6.82844L20.486 7.01998C21.9077 7.34161 23.0789 7.60658 23.9319 7.94273C24.8174 8.29168 25.5922 8.80598 25.8905 9.76524C26.1857 10.7146 25.854 11.588 25.3412 12.4026C24.8429 13.1941 24.0471 14.1246 23.0751 15.2613L22.5012 15.9323C21.876 16.6634 21.7454 16.8423 21.684 17.0398C21.6214 17.241 21.6273 17.4737 21.7217 18.4484L21.8082 19.341C21.9555 20.8599 22.0755 22.0986 22.0335 23.0419C21.9907 24.0021 21.7726 24.9242 20.9802 25.5257C20.173 26.1385 19.2337 26.0695 18.327 25.8097C17.4478 25.5578 16.3518 25.0531 15.0209 24.4402L14.228 24.0751C13.3605 23.6757 13.1748 23.6117 13.0007 23.6117C12.8267 23.6117 12.641 23.6757 11.7735 24.0751L10.9806 24.4402C9.64968 25.0531 8.55365 25.5578 7.67447 25.8097C6.76776 26.0695 5.82852 26.1385 5.02128 25.5257C4.22884 24.9242 4.01076 24.0021 3.96799 23.0419C3.92597 22.0986 4.04603 20.8599 4.19325 19.341L4.27975 18.4484C4.3742 17.4737 4.38008 17.241 4.31749 17.0398C4.2561 16.8423 4.12549 16.6634 3.50027 15.9323L2.92647 15.2613C1.95436 14.1246 1.15854 13.1941 0.660303 12.4026C0.147515 11.588 -0.184268 10.7146 0.110959 9.76524C0.409261 8.80598 1.18411 8.29168 2.06955 7.94274C2.92256 7.60658 4.09381 7.34161 5.51552 7.01998L5.59251 7.00256L6.36206 6.82844C7.28529 6.61955 7.47444 6.55748 7.62106 6.44617C7.77338 6.33054 7.89482 6.14965 8.36952 5.29808L8.80318 4.52012C9.53726 3.20318 10.1379 2.12565 10.7043 1.38599Z" fill="white"/>
</svg>
