<svg width="15" height="16" viewBox="0 0 15 16" fill="none" xmlns="http://www.w3.org/2000/svg">
<path fill-rule="evenodd" clip-rule="evenodd" d="M6.52798 2.2054C6.26549 2.54816 5.96921 3.07701 5.53885 3.84904L5.32038 4.24094C5.30722 4.26456 5.29421 4.28797 5.28134 4.31113C5.08085 4.67194 4.91163 4.97646 4.63896 5.18345C4.36335 5.39268 4.02737 5.46818 3.6369 5.55593C3.6118 5.56157 3.58648 5.56726 3.56094 5.57304L3.13671 5.66903C2.29983 5.85838 1.7305 5.98866 1.34055 6.14234C0.960014 6.2923 0.879689 6.41517 0.849072 6.51363C0.816759 6.61754 0.815797 6.77648 1.04329 7.13786C1.27419 7.50465 1.66372 7.96215 2.23341 8.62833L2.52262 8.96652C2.53943 8.98618 2.55609 9.00561 2.57258 9.02484C2.84125 9.33824 3.06527 9.59956 3.16803 9.93001C3.27017 10.2585 3.23632 10.6036 3.19527 11.0221C3.19276 11.0478 3.19021 11.0737 3.18767 11.0999L3.14394 11.5512C3.05788 12.4393 2.99985 13.0508 3.01948 13.4913C3.03906 13.931 3.13193 14.0525 3.20576 14.1086C3.27144 14.1584 3.39283 14.2136 3.78832 14.1003C4.19023 13.9851 4.72439 13.7407 5.50801 13.3799L5.90522 13.1971C5.92968 13.1858 5.95391 13.1746 5.97793 13.1635C6.34113 12.9956 6.65623 12.8499 7.00001 12.8499C7.34379 12.8499 7.65889 12.9956 8.02209 13.1635C8.04611 13.1746 8.07034 13.1858 8.0948 13.1971L8.49201 13.3799C9.27562 13.7407 9.80979 13.9851 10.2117 14.1003C10.6072 14.2136 10.7286 14.1584 10.7943 14.1086C10.8681 14.0525 10.961 13.931 10.9805 13.4913C11.0002 13.0508 10.9421 12.4393 10.8561 11.5512L10.8124 11.0999C10.8098 11.0737 10.8073 11.0478 10.8047 11.0221C10.7637 10.6036 10.7298 10.2585 10.832 9.93001C10.9347 9.59956 11.1588 9.33824 11.4275 9.02483C11.4439 9.0056 11.4606 8.98617 11.4774 8.96652L11.7666 8.62832C12.3363 7.96215 12.7258 7.50465 12.9567 7.13786C13.1842 6.77648 13.1833 6.61754 13.1509 6.51363C13.1203 6.41517 13.04 6.2923 12.6595 6.14234C12.2695 5.98866 11.7002 5.85838 10.8633 5.66903L10.4391 5.57304C10.4135 5.56726 10.3882 5.56157 10.3631 5.55593C9.97265 5.46818 9.63667 5.39268 9.36106 5.18345C9.08839 4.97646 8.91917 4.67194 8.71868 4.31113C8.70581 4.28797 8.69281 4.26456 8.67964 4.24094L8.46117 3.84904C8.03081 3.07701 7.73453 2.54816 7.47204 2.2054C7.2098 1.86296 7.07585 1.83334 7.00001 1.83334C6.92417 1.83334 6.79022 1.86296 6.52798 2.2054ZM5.73404 1.5974C6.05183 1.18242 6.44461 0.833336 7.00001 0.833336C7.55541 0.833336 7.94819 1.18242 8.26598 1.5974C8.57824 2.00515 8.90935 2.59918 9.31403 3.32518L9.55309 3.75404C9.81479 4.22349 9.88173 4.32322 9.9657 4.38696C10.0465 4.44832 10.1508 4.48254 10.6598 4.5977L11.1264 4.70328C11.9102 4.88059 12.5559 5.02666 13.0261 5.21198C13.5142 5.40434 13.9414 5.68787 14.1058 6.21668C14.2686 6.74005 14.0857 7.22155 13.803 7.67061C13.5283 8.10692 13.0896 8.6199 12.5537 9.24652L12.2374 9.61645C11.8927 10.0195 11.8207 10.1181 11.7869 10.227C11.7524 10.3379 11.7556 10.4662 11.8077 11.0035L11.8554 11.4956C11.9365 12.3329 12.0027 13.0158 11.9796 13.5358C11.956 14.0651 11.8358 14.5734 11.3989 14.9051C10.9539 15.2429 10.4361 15.2048 9.93626 15.0616C9.45159 14.9227 8.84737 14.6445 8.11367 14.3067L7.67657 14.1054C7.19835 13.8852 7.09596 13.8499 7.00001 13.8499C6.90406 13.8499 6.80168 13.8852 6.32345 14.1054L5.88635 14.3067C5.15265 14.6445 4.54843 14.9227 4.06376 15.0616C3.56391 15.2048 3.04613 15.2429 2.60112 14.9051C2.16427 14.5734 2.04405 14.0651 2.02047 13.5358C1.9973 13.0158 2.06349 12.3329 2.14465 11.4956L2.19233 11.0035C2.2444 10.4662 2.24764 10.3379 2.21314 10.227C2.17929 10.1181 2.10729 10.0195 1.76262 9.61645L1.4463 9.24655C0.910399 8.61992 0.471685 8.10692 0.197017 7.67061C-0.0856707 7.22155 -0.268575 6.74005 -0.105823 6.21668C0.0586236 5.68787 0.485778 5.40434 0.973903 5.21198C1.44414 5.02666 2.08983 4.88059 2.87358 4.70328L2.91603 4.69368L3.34026 4.5977C3.84922 4.48254 3.95349 4.44832 4.03432 4.38696C4.11829 4.32322 4.18523 4.22349 4.44693 3.75404L4.686 3.32517C5.09067 2.59918 5.42178 2.00515 5.73404 1.5974Z" fill="#555555"/>
</svg>
