<svg width="14" height="14" viewBox="0 0 14 14" fill="none" xmlns="http://www.w3.org/2000/svg">
<path fill-rule="evenodd" clip-rule="evenodd" d="M1.49144 0.525657C1.22947 0.438333 0.946309 0.579913 0.858985 0.841884C0.771661 1.10386 0.913241 1.38702 1.17521 1.47434L1.35182 1.53321C1.80276 1.68352 2.10089 1.7837 2.32052 1.88587C2.5285 1.98262 2.61842 2.06048 2.67603 2.14042C2.73364 2.22035 2.77908 2.33028 2.80509 2.55818C2.83257 2.79885 2.83333 3.11336 2.83333 3.58869L2.83333 5.36992C2.83331 6.28164 2.8333 7.01652 2.91101 7.5945C2.99169 8.19457 3.16428 8.69982 3.56556 9.1011C3.96684 9.50238 4.47209 9.67497 5.07216 9.75565C5.65013 9.83336 6.38501 9.83335 7.29673 9.83333H12.6667C12.9428 9.83333 13.1667 9.60947 13.1667 9.33333C13.1667 9.05719 12.9428 8.83333 12.6667 8.83333H7.33333C6.37638 8.83333 5.70897 8.83227 5.20541 8.76457C4.71622 8.6988 4.45718 8.5785 4.27267 8.39399C4.2082 8.32953 4.15158 8.25596 4.10237 8.16667H10.7056C11.0045 8.16668 11.2675 8.1667 11.4857 8.14313C11.722 8.11762 11.9509 8.06095 12.1663 7.91893C12.3817 7.7769 12.524 7.58881 12.6405 7.38169C12.7482 7.19034 12.8517 6.94867 12.9694 6.67394L13.2806 5.94777C13.537 5.34977 13.7514 4.84947 13.8587 4.44257C13.9707 4.01807 13.9999 3.57487 13.7357 3.17426C13.4716 2.77366 13.0527 2.62587 12.6184 2.56158C12.2021 2.49995 11.6578 2.49997 11.0072 2.5L3.8045 2.5C3.80267 2.48134 3.80072 2.46292 3.79864 2.44474C3.76174 2.12153 3.68133 1.82496 3.48727 1.55571C3.29321 1.28646 3.03728 1.1164 2.74232 0.97918C2.46483 0.850091 2.11195 0.732476 1.69437 0.593298L1.49144 0.525657ZM3.83333 3.5C3.83333 3.52016 3.83333 3.54047 3.83333 3.56093L3.83333 5.33333C3.83333 6.11465 3.83403 6.70296 3.87114 7.16667H10.6812C11.0118 7.16667 11.2202 7.16599 11.3784 7.14891C11.5246 7.13313 11.5808 7.10722 11.6158 7.08409C11.6509 7.06095 11.6969 7.01949 11.769 6.89138C11.847 6.75268 11.9297 6.56141 12.0599 6.25754L12.3456 5.59088C12.622 4.94608 12.8056 4.51421 12.8918 4.1875C12.9756 3.87001 12.9331 3.77366 12.9009 3.72475C12.8686 3.67585 12.7968 3.59888 12.472 3.5508C12.1377 3.50131 11.6684 3.5 10.9669 3.5H3.83333Z" fill="#555555"/>
<path fill-rule="evenodd" clip-rule="evenodd" d="M3.49999 12C3.49999 12.8284 4.17157 13.5 4.99999 13.5C5.82842 13.5 6.49999 12.8284 6.49999 12C6.49999 11.1716 5.82842 10.5 4.99999 10.5C4.17157 10.5 3.49999 11.1716 3.49999 12ZM4.99999 12.5C4.72385 12.5 4.49999 12.2761 4.49999 12C4.49999 11.7239 4.72385 11.5 4.99999 11.5C5.27614 11.5 5.49999 11.7239 5.49999 12C5.49999 12.2761 5.27614 12.5 4.99999 12.5Z" fill="#555555"/>
<path fill-rule="evenodd" clip-rule="evenodd" d="M11 13.5C10.1716 13.5 9.49999 12.8285 9.49999 12C9.49999 11.1716 10.1716 10.5 11 10.5C11.8284 10.5 12.5 11.1716 12.5 12C12.5 12.8285 11.8284 13.5 11 13.5ZM10.5 12C10.5 12.2762 10.7239 12.5 11 12.5C11.2761 12.5 11.5 12.2762 11.5 12C11.5 11.7239 11.2761 11.5 11 11.5C10.7239 11.5 10.5 11.7239 10.5 12Z" fill="#555555"/>
</svg>
