<svg width="27" height="27" viewBox="0 0 27 27" fill="none" xmlns="http://www.w3.org/2000/svg">
<path fill-rule="evenodd" clip-rule="evenodd" d="M12.9173 2.70898C7.27941 2.70898 2.70898 7.27941 2.70898 12.9173C2.70898 18.5552 7.27941 23.1257 12.9173 23.1257C18.5552 23.1257 23.1257 18.5552 23.1257 12.9173C23.1257 7.27941 18.5552 2.70898 12.9173 2.70898ZM0.958984 12.9173C0.958984 6.31291 6.31291 0.958984 12.9173 0.958984C19.5217 0.958984 24.8757 6.31291 24.8757 12.9173C24.8757 15.9046 23.7803 18.636 21.9693 20.7319L25.786 24.5486C26.1277 24.8903 26.1277 25.4443 25.786 25.786C25.4443 26.1277 24.8903 26.1277 24.5486 25.786L20.7319 21.9693C18.636 23.7803 15.9046 24.8757 12.9173 24.8757C6.31291 24.8757 0.958984 19.5217 0.958984 12.9173Z" fill="#222222"/>
</svg>
