<svg width="22" height="22" viewBox="0 0 22 22" fill="none" xmlns="http://www.w3.org/2000/svg">
<path d="M18.5 16.5C18.5 17.0523 18.0523 17.5 17.5 17.5C16.9477 17.5 16.5 17.0523 16.5 16.5C16.5 15.9477 16.9477 15.5 17.5 15.5C18.0523 15.5 18.5 15.9477 18.5 16.5Z" fill="#555555"/>
<path d="M5.5 4.5C5.5 5.05228 5.05228 5.5 4.5 5.5C3.94772 5.5 3.5 5.05228 3.5 4.5C3.5 3.94772 3.94772 3.5 4.5 3.5C5.05228 3.5 5.5 3.94772 5.5 4.5Z" fill="#555555"/>
<path fill-rule="evenodd" clip-rule="evenodd" d="M0.25 4.25732C0.25 1.99429 2.20446 0.25 4.5 0.25C6.79554 0.25 8.75 1.99429 8.75 4.25732C8.75 6.28359 7.50419 8.67508 5.43476 9.55944C4.84021 9.81352 4.15979 9.81352 3.56524 9.55944C1.49581 8.67508 0.25 6.28359 0.25 4.25732ZM4.5 1.75C2.92955 1.75 1.75 2.92241 1.75 4.25732C1.75 5.80078 2.73835 7.57485 4.15469 8.18011C4.37274 8.2733 4.62726 8.2733 4.84531 8.18011C6.26165 7.57485 7.25 5.80078 7.25 4.25732C7.25 2.92241 6.07045 1.75 4.5 1.75ZM10.25 4C10.25 3.58579 10.5858 3.25 11 3.25H15.1319C17.8831 3.25 18.9294 6.843 16.6083 8.32007L6.19703 14.9454C5.14197 15.6168 5.61756 17.25 6.86812 17.25H9.18934L8.96967 17.0303C8.67678 16.7374 8.67678 16.2626 8.96967 15.9697C9.26256 15.6768 9.73744 15.6768 10.0303 15.9697L11.5303 17.4697C11.8232 17.7626 11.8232 18.2374 11.5303 18.5303L10.0303 20.0303C9.73744 20.3232 9.26256 20.3232 8.96967 20.0303C8.67678 19.7374 8.67678 19.2626 8.96967 18.9697L9.18934 18.75H6.86812C4.11688 18.75 3.07062 15.157 5.39172 13.6799L15.803 7.05458C16.858 6.38318 16.3824 4.75 15.1319 4.75H11C10.5858 4.75 10.25 4.41421 10.25 4ZM13.25 16.2573C13.25 13.9943 15.2045 12.25 17.5 12.25C19.7955 12.25 21.75 13.9943 21.75 16.2573C21.75 18.2836 20.5042 20.6751 18.4348 21.5594C17.8402 21.8135 17.1598 21.8135 16.5652 21.5594C14.4958 20.6751 13.25 18.2836 13.25 16.2573ZM17.5 13.75C15.9295 13.75 14.75 14.9224 14.75 16.2573C14.75 17.8008 15.7384 19.5748 17.1547 20.1801C17.3727 20.2733 17.6273 20.2733 17.8453 20.1801C19.2617 19.5748 20.25 17.8008 20.25 16.2573C20.25 14.9224 19.0705 13.75 17.5 13.75Z" fill="#555555"/>
</svg>
