<svg width="25" height="23" viewBox="0 0 25 23" fill="none" xmlns="http://www.w3.org/2000/svg">
<path fill-rule="evenodd" clip-rule="evenodd" d="M2.12444 0.17477C1.66855 0.0144869 1.16904 0.254127 1.00875 0.710021C0.848471 1.16591 1.08811 1.66542 1.54401 1.82571L1.84875 1.93285C2.62763 2.20669 3.13951 2.38816 3.51616 2.57297C3.86992 2.74655 4.02587 2.88705 4.1286 3.03739C4.23391 3.19149 4.31523 3.40315 4.36111 3.82706C4.40913 4.27063 4.41032 4.84839 4.41032 5.71166V8.8869C4.41032 10.5815 4.42621 11.8034 4.58611 12.737C4.75682 13.7337 5.09764 14.4473 5.73492 15.1195C6.42775 15.8502 7.30603 16.1684 8.35164 16.3166C9.35291 16.4586 10.6244 16.4586 12.1944 16.4586L18.5011 16.4586C19.3664 16.4586 20.0944 16.4586 20.6836 16.3865C21.3086 16.31 21.8786 16.1428 22.3762 15.7373C22.8738 15.3318 23.1526 14.8073 23.3537 14.2106C23.5433 13.6481 23.6902 12.9351 23.8648 12.0876L24.4586 9.20675L24.4597 9.20139L24.4719 9.14038C24.664 8.17802 24.8256 7.36848 24.8658 6.71735C24.908 6.03345 24.8302 5.3591 24.3847 4.77998C24.1106 4.42365 23.7251 4.22193 23.3746 4.09875C23.017 3.97311 22.6127 3.90043 22.2047 3.85481C21.4031 3.76521 20.4293 3.76522 19.4743 3.76524L6.11342 3.76524C6.10959 3.72236 6.10544 3.68019 6.10095 3.63873C6.03826 3.05962 5.90244 2.53146 5.57347 2.05004C5.24192 1.56487 4.8011 1.25414 4.28703 1.0019C3.80626 0.766004 3.19536 0.551249 2.47607 0.298395L2.12444 0.17477ZM6.16031 5.51524H19.4379C20.437 5.51524 21.3163 5.51641 22.0102 5.59398C22.355 5.63252 22.6131 5.68608 22.7944 5.74979C22.9426 5.80187 22.9928 5.8444 23.0001 5.85055C22.9999 5.85042 23.0004 5.85081 23.0001 5.85055C23.0716 5.94553 23.1495 6.11784 23.1191 6.60954C23.0872 7.12704 22.9513 7.818 22.7441 8.85626L22.7435 8.85884L22.1616 11.6823C21.9733 12.5956 21.8467 13.2027 21.6953 13.6517C21.5517 14.078 21.4168 14.2617 21.2707 14.3807C21.1246 14.4998 20.9175 14.5948 20.471 14.6495C20.0007 14.707 19.3805 14.7086 18.448 14.7086H12.2613C10.6084 14.7086 9.46146 14.7065 8.59734 14.584C7.76339 14.4657 7.32284 14.2508 7.00487 13.9154C6.63134 13.5214 6.42987 13.1357 6.311 12.4416C6.18131 11.6844 6.16032 10.6241 6.16032 8.8869L6.16031 5.51524Z" fill="#222222"/>
<path fill-rule="evenodd" clip-rule="evenodd" d="M8.25089 22.8752C6.80114 22.8752 5.62589 21.7 5.62589 20.2502C5.62589 18.8005 6.80114 17.6252 8.25089 17.6252C9.70064 17.6252 10.8759 18.8005 10.8759 20.2502C10.8759 21.7 9.70064 22.8752 8.25089 22.8752ZM7.37589 20.2502C7.37589 20.7335 7.76764 21.1252 8.25089 21.1252C8.73414 21.1252 9.12589 20.7335 9.12589 20.2502C9.12589 19.767 8.73414 19.3752 8.25089 19.3752C7.76764 19.3752 7.37589 19.767 7.37589 20.2502Z" fill="#222222"/>
<path fill-rule="evenodd" clip-rule="evenodd" d="M18.7509 22.8753C17.3011 22.8753 16.1259 21.7001 16.1259 20.2503C16.1259 18.8006 17.3011 17.6253 18.7509 17.6253C20.2006 17.6253 21.3759 18.8006 21.3759 20.2503C21.3759 21.7001 20.2006 22.8753 18.7509 22.8753ZM17.8759 20.2503C17.8759 20.7336 18.2676 21.1253 18.7509 21.1253C19.2341 21.1253 19.6259 20.7336 19.6259 20.2503C19.6259 19.7671 19.2341 19.3753 18.7509 19.3753C18.2676 19.3753 17.8759 19.7671 17.8759 20.2503Z" fill="#222222"/>
</svg>
