<svg width="30" height="30" viewBox="0 0 30 30" fill="none" xmlns="http://www.w3.org/2000/svg">
<path fill-rule="evenodd" clip-rule="evenodd" d="M10.9847 6.07688C12.558 2.87377 15.8532 0.666504 19.666 0.666504C25.0048 0.666504 29.3327 4.99442 29.3327 10.3332C29.3327 11.7626 29.0218 13.1222 28.4629 14.3456C28.3171 14.6649 28.2887 14.9665 28.3535 15.2089L28.5234 15.8436C29.067 17.8753 27.2082 19.7341 25.1764 19.1905L24.5417 19.0207C24.3613 18.9724 24.1481 18.9758 23.9193 19.0408C23.2392 24.8365 18.311 29.3332 12.3327 29.3332C10.5327 29.3332 8.82533 28.9249 7.30055 28.1949C6.99869 28.0504 6.70149 28.021 6.457 28.0865L4.82229 28.5238C2.79051 29.0675 0.931713 27.2087 1.47534 25.1769L1.91274 23.5422C1.97815 23.2977 1.94883 23.0005 1.80432 22.6986C1.07433 21.1739 0.666016 19.4665 0.666016 17.6665C0.666016 11.6791 5.17632 6.74514 10.9847 6.07688ZM13.3127 6.04042C19.0791 6.51999 23.6546 11.1933 23.9807 17.002C24.3308 16.9686 24.6946 16.9912 25.0586 17.0886L25.6934 17.2585C26.2385 17.4043 26.7372 16.9056 26.5913 16.3605L26.4215 15.7258C26.212 14.9427 26.3485 14.1609 26.6437 13.5146C27.0858 12.5468 27.3327 11.4702 27.3327 10.3332C27.3327 6.09899 23.9002 2.6665 19.666 2.6665C17.0235 2.6665 14.6916 4.00362 13.3127 6.04042ZM12.3327 7.99984C6.99393 7.99984 2.66602 12.3278 2.66602 17.6665C2.66602 19.1612 3.00457 20.5741 3.60825 21.835C3.92212 22.4906 4.05374 23.2782 3.84477 24.0591L3.40738 25.6939C3.26153 26.239 3.76023 26.7377 4.30534 26.5918L5.94006 26.1544C6.72103 25.9455 7.50856 26.0771 8.16417 26.3909C9.42511 26.9946 10.838 27.3332 12.3327 27.3332C17.6714 27.3332 21.9994 23.0053 21.9994 17.6665C21.9994 12.3278 17.6714 7.99984 12.3327 7.99984Z" fill="#222222"/>
<path d="M8.99935 17.6665C8.99935 18.4029 8.4024 18.9998 7.66602 18.9998C6.92964 18.9998 6.33268 18.4029 6.33268 17.6665C6.33268 16.9301 6.92964 16.3332 7.66602 16.3332C8.4024 16.3332 8.99935 16.9301 8.99935 17.6665Z" fill="#222222"/>
<path d="M13.666 17.6665C13.666 18.4029 13.0691 18.9998 12.3327 18.9998C11.5963 18.9998 10.9994 18.4029 10.9994 17.6665C10.9994 16.9301 11.5963 16.3332 12.3327 16.3332C13.0691 16.3332 13.666 16.9301 13.666 17.6665Z" fill="#222222"/>
<path d="M18.3327 17.6665C18.3327 18.4029 17.7357 18.9998 16.9994 18.9998C16.263 18.9998 15.666 18.4029 15.666 17.6665C15.666 16.9301 16.263 16.3332 16.9994 16.3332C17.7357 16.3332 18.3327 16.9301 18.3327 17.6665Z" fill="#222222"/>
</svg>
