<svg width="22" height="22" viewBox="0 0 22 22" fill="none" xmlns="http://www.w3.org/2000/svg">
<path fill-rule="evenodd" clip-rule="evenodd" d="M13.573 2.24669C15.2797 0.540002 18.0468 0.540002 19.7535 2.24669C21.4602 3.95338 21.4602 6.72048 19.7535 8.42717L10.9005 17.2801C10.3947 17.7859 10.097 18.0837 9.76575 18.3421C9.37534 18.6466 8.95291 18.9076 8.50595 19.1207C8.12674 19.3014 7.72725 19.4345 7.04862 19.6607L3.93957 20.6971L3.19096 20.9466C2.58377 21.149 1.91434 20.991 1.46176 20.5384C1.00919 20.0858 0.851159 19.4164 1.05356 18.8092L2.33943 14.9516C2.56562 14.2729 2.69877 13.8734 2.87949 13.4942C3.09251 13.0472 3.35358 12.6248 3.6581 12.2344C3.91645 11.9032 4.21423 11.6054 4.72007 11.0996L13.573 2.24669ZM3.90727 19.2321L6.55936 18.3481C7.29773 18.1019 7.61145 17.9961 7.90364 17.8568C8.25881 17.6876 8.59449 17.4801 8.90472 17.2381C9.15994 17.0391 9.39492 16.8058 9.94527 16.2555L17.0101 9.19062C16.274 8.93101 15.3258 8.44979 14.4381 7.56208C13.5504 6.67437 13.0691 5.72611 12.8095 4.99004L5.74469 12.0549C5.19434 12.6052 4.96108 12.8402 4.76201 13.0954C4.52003 13.4057 4.31258 13.7413 4.14331 14.0965C4.00406 14.3887 3.89821 14.7024 3.65208 15.4408L2.76806 18.0929L3.90727 19.2321ZM13.9451 3.85445C13.977 4.01774 14.031 4.23973 14.121 4.49922C14.3237 5.08345 14.7066 5.8507 15.428 6.57213C16.1495 7.29356 16.9167 7.67644 17.5009 7.87913C17.7604 7.96916 17.9824 8.02311 18.1457 8.05503L18.7635 7.43722C19.9235 6.27726 19.9235 4.3966 18.7635 3.23664C17.6036 2.07669 15.7229 2.07669 14.5629 3.23664L13.9451 3.85445Z" fill="#222222"/>
</svg>
