<svg width="21" height="27" viewBox="0 0 21 27" fill="none" xmlns="http://www.w3.org/2000/svg">
<path fill-rule="evenodd" clip-rule="evenodd" d="M0.291016 11.3345C0.291016 5.61897 4.84686 0.958984 10.4994 0.958984C16.1518 0.958984 20.7077 5.61897 20.7077 11.3345C20.7077 14.0938 19.9213 17.0565 18.5312 19.6162C17.1428 22.1726 15.1143 24.3941 12.5766 25.5802C11.2583 26.1964 9.74036 26.1964 8.42209 25.5802C5.88445 24.3941 3.8559 22.1726 2.4675 19.6162C1.07738 17.0565 0.291016 14.0938 0.291016 11.3345ZM10.4994 2.70898C5.84252 2.70898 2.04102 6.55605 2.04102 11.3345C2.04102 13.7811 2.74409 16.4586 4.00534 18.781C5.2683 21.1064 7.05304 23.0086 9.1631 23.9948C10.0117 24.3915 10.987 24.3915 11.8356 23.9948C13.9457 23.0086 15.7304 21.1064 16.9934 18.781C18.2546 16.4586 18.9577 13.7811 18.9577 11.3345C18.9577 6.55605 15.1562 2.70898 10.4994 2.70898ZM10.4994 8.54232C9.0496 8.54232 7.87435 9.71757 7.87435 11.1673C7.87435 12.6171 9.0496 13.7923 10.4994 13.7923C11.9491 13.7923 13.1244 12.6171 13.1244 11.1673C13.1244 9.71757 11.9491 8.54232 10.4994 8.54232ZM6.12435 11.1673C6.12435 8.75107 8.0831 6.79232 10.4994 6.79232C12.9156 6.79232 14.8744 8.75107 14.8744 11.1673C14.8744 13.5836 12.9156 15.5423 10.4994 15.5423C8.0831 15.5423 6.12435 13.5836 6.12435 11.1673Z" fill="#222222"/>
</svg>
