<svg width="27" height="22" viewBox="0 0 27 22" fill="none" xmlns="http://www.w3.org/2000/svg">
<path fill-rule="evenodd" clip-rule="evenodd" d="M4 0.25C1.79086 0.25 0 2.04086 0 4.25V17.5C0 19.7091 1.79086 21.5 4 21.5H22.25C24.4591 21.5 26.25 19.7091 26.25 17.5V4.25C26.25 2.04086 24.4591 0.25 22.25 0.25H4ZM21.4173 4.00186C20.357 3.95311 19.3698 4.93423 19.4855 5.8788C19.4002 6.92086 20.3814 7.73136 21.3016 7.74964C22.368 7.77402 23.1907 6.84774 23.2151 5.93364C23.2394 4.84892 22.3071 4.04452 21.4173 4.00186ZM13.263 6.59559C10.3053 6.47819 8.10876 8.82242 8.12012 11.5189C8.13526 14.2797 10.3091 16.4005 12.9639 16.4308C15.8156 16.4611 17.8985 14.2569 17.9591 11.64C18.0235 8.74668 15.7663 6.69405 13.263 6.59559ZM13.0358 8.34524C14.759 8.33009 16.2132 9.75405 16.1867 11.5113C16.2435 13.1738 14.7589 14.772 12.8616 14.6584C11.2028 14.5637 9.87356 13.2193 9.87734 11.5113C9.88113 9.74269 11.2407 8.36039 13.0358 8.34524Z" fill="white"/>
</svg>
