<svg width="21" height="15" viewBox="0 0 21 15" fill="none" xmlns="http://www.w3.org/2000/svg">
<path fill-rule="evenodd" clip-rule="evenodd" d="M0.291748 1.66669C0.291748 1.18344 0.683499 0.791687 1.16675 0.791687H19.8334C20.3167 0.791687 20.7084 1.18344 20.7084 1.66669C20.7084 2.14994 20.3167 2.54169 19.8334 2.54169H1.16675C0.683499 2.54169 0.291748 2.14994 0.291748 1.66669ZM0.291748 7.50002C0.291748 7.01677 0.683499 6.62502 1.16675 6.62502H14.0001C14.4833 6.62502 14.8751 7.01677 14.8751 7.50002C14.8751 7.98327 14.4833 8.37502 14.0001 8.37502H1.16675C0.683499 8.37502 0.291748 7.98327 0.291748 7.50002ZM0.291748 13.3334C0.291748 12.8501 0.683499 12.4584 1.16675 12.4584H7.00008C7.48333 12.4584 7.87508 12.8501 7.87508 13.3334C7.87508 13.8166 7.48333 14.2084 7.00008 14.2084H1.16675C0.683499 14.2084 0.291748 13.8166 0.291748 13.3334Z" fill="white"/>
</svg>
