<svg width="100" height="16" viewBox="0 0 100 16" fill="none" xmlns="http://www.w3.org/2000/svg">
<path d="M7.89476 0.877441L10.5783 5.45281L15.7895 6.57343L12.2369 10.5218L12.774 15.7897L7.89476 13.6546L3.01555 15.7897L3.55266 10.5218L2.69413e-05 6.57343L5.21119 5.45281L7.89476 0.877441Z" fill="#FCB9AA"/>
<path d="M28.9475 0.877441L31.6311 5.45281L36.8422 6.57343L33.2896 10.5218L33.8267 15.7897L28.9475 13.6546L24.0683 15.7897L24.6054 10.5218L21.0528 6.57343L26.2639 5.45281L28.9475 0.877441Z" fill="#FCB9AA"/>
<path d="M50.0002 0.877441L52.6838 5.45281L57.895 6.57343L54.3423 10.5218L54.8794 15.7897L50.0002 13.6546L45.121 15.7897L45.6581 10.5218L42.1055 6.57343L47.3167 5.45281L50.0002 0.877441Z" fill="#FCB9AA"/>
<path d="M71.053 0.877441L73.7365 5.45281L78.9477 6.57343L75.3951 10.5218L75.9322 15.7897L71.053 13.6546L66.1738 15.7897L66.7109 10.5218L63.1582 6.57343L68.3694 5.45281L71.053 0.877441Z" fill="#FCB9AA"/>
<path d="M92.1057 0.877441L94.7892 5.45281L100 6.57343L96.4478 10.5218L96.9849 15.7897L92.1057 13.6546L87.2265 15.7897L87.7636 10.5218L84.2109 6.57343L89.4221 5.45281L92.1057 0.877441Z" fill="#F2F2F2"/>
</svg>
