<svg width="100" height="16" viewBox="0 0 100 16" fill="none" xmlns="http://www.w3.org/2000/svg">
<path d="M7.89476 0.63147L10.5783 5.20684L15.7895 6.32745L12.2369 10.2758L12.774 15.5438L7.89476 13.4086L3.01555 15.5438L3.55266 10.2758L2.69413e-05 6.32745L5.21119 5.20684L7.89476 0.63147Z" fill="#FCB9AA"/>
<path d="M28.9475 0.631592L31.6311 5.20696L36.8422 6.32758L33.2896 10.2759L33.8267 15.5439L28.9475 13.4087L24.0683 15.5439L24.6054 10.2759L21.0528 6.32758L26.2639 5.20696L28.9475 0.631592Z" fill="#FCB9AA"/>
<path d="M50.0002 0.631592L52.6838 5.20696L57.8949 6.32758L54.3423 10.2759L54.8794 15.5439L50.0002 13.4087L45.121 15.5439L45.6581 10.2759L42.1055 6.32758L47.3166 5.20696L50.0002 0.631592Z" fill="#F2F2F2"/>
<path d="M71.0529 0.631592L73.7365 5.20696L78.9477 6.32758L75.395 10.2759L75.9322 15.5439L71.0529 13.4087L66.1737 15.5439L66.7108 10.2759L63.1582 6.32758L68.3694 5.20696L71.0529 0.631592Z" fill="#F2F2F2"/>
<path d="M92.1057 0.631592L94.7892 5.20696L100 6.32758L96.4478 10.2759L96.9849 15.5439L92.1057 13.4087L87.2265 15.5439L87.7636 10.2759L84.2109 6.32758L89.4221 5.20696L92.1057 0.631592Z" fill="#F2F2F2"/>
</svg>
