<svg width="100" height="16" viewBox="0 0 100 16" fill="none" xmlns="http://www.w3.org/2000/svg">
<path d="M7.89476 0.508911L10.5783 5.08428L15.7895 6.2049L12.2369 10.1532L12.774 15.4212L7.89476 13.286L3.01555 15.4212L3.55266 10.1532L2.69413e-05 6.2049L5.21119 5.08428L7.89476 0.508911Z" fill="#FCB9AA"/>
<path d="M28.9475 0.509033L31.631 5.0844L36.8422 6.20502L33.2896 10.1534L33.8267 15.4213L28.9475 13.2862L24.0683 15.4213L24.6054 10.1534L21.0527 6.20502L26.2639 5.0844L28.9475 0.509033Z" fill="#F2F2F2"/>
<path d="M50.0002 0.509033L52.6838 5.0844L57.8949 6.20502L54.3423 10.1534L54.8794 15.4213L50.0002 13.2862L45.121 15.4213L45.6581 10.1534L42.1055 6.20502L47.3166 5.0844L50.0002 0.509033Z" fill="#F2F2F2"/>
<path d="M71.0529 0.509033L73.7365 5.0844L78.9477 6.20502L75.395 10.1534L75.9322 15.4213L71.0529 13.2862L66.1737 15.4213L66.7108 10.1534L63.1582 6.20502L68.3694 5.0844L71.0529 0.509033Z" fill="#F2F2F2"/>
<path d="M92.1057 0.509033L94.7892 5.0844L100 6.20502L96.4478 10.1534L96.9849 15.4213L92.1057 13.2862L87.2265 15.4213L87.7636 10.1534L84.2109 6.20502L89.4221 5.0844L92.1057 0.509033Z" fill="#F2F2F2"/>
</svg>
