<svg width="100" height="15" viewBox="0 0 100 15" fill="none" xmlns="http://www.w3.org/2000/svg">
<path d="M7.89476 0L10.5783 4.57537L15.7895 5.69598L12.2369 9.64433L12.774 14.9123L7.89476 12.7771L3.01555 14.9123L3.55266 9.64433L2.69413e-05 5.69598L5.21119 4.57537L7.89476 0Z" fill="#FCB9AA"/>
<path d="M28.9475 0L31.6311 4.57537L36.8422 5.69598L33.2896 9.64433L33.8267 14.9123L28.9475 12.7771L24.0683 14.9123L24.6054 9.64433L21.0528 5.69598L26.2639 4.57537L28.9475 0Z" fill="#FCB9AA"/>
<path d="M50.0002 0L52.6838 4.57537L57.895 5.69598L54.3423 9.64433L54.8794 14.9123L50.0002 12.7771L45.121 14.9123L45.6581 9.64433L42.1055 5.69598L47.3167 4.57537L50.0002 0Z" fill="#FCB9AA"/>
<path d="M71.053 0L73.7365 4.57537L78.9477 5.69598L75.3951 9.64433L75.9322 14.9123L71.053 12.7771L66.1738 14.9123L66.7109 9.64433L63.1582 5.69598L68.3694 4.57537L71.053 0Z" fill="#FCB9AA"/>
<path d="M92.1057 0L94.7893 4.57537L100 5.69598L96.4478 9.64433L96.9849 14.9123L92.1057 12.7771L87.2265 14.9123L87.7636 9.64433L84.211 5.69598L89.4221 4.57537L92.1057 0Z" fill="#FCB9AA"/>
</svg>
