<svg width="100" height="16" viewBox="0 0 100 16" fill="none" xmlns="http://www.w3.org/2000/svg">
<path d="M7.89476 0.754761L10.5783 5.33013L15.7895 6.45075L12.2369 10.3991L12.774 15.667L7.89476 13.5319L3.01555 15.667L3.55266 10.3991L2.69413e-05 6.45075L5.21119 5.33013L7.89476 0.754761Z" fill="#FCB9AA"/>
<path d="M28.9475 0.754639L31.6311 5.33001L36.8422 6.45062L33.2896 10.399L33.8267 15.6669L28.9475 13.5318L24.0683 15.6669L24.6054 10.399L21.0528 6.45062L26.2639 5.33001L28.9475 0.754639Z" fill="#FCB9AA"/>
<path d="M50.0002 0.754639L52.6838 5.33001L57.895 6.45062L54.3423 10.399L54.8794 15.6669L50.0002 13.5318L45.121 15.6669L45.6581 10.399L42.1055 6.45062L47.3167 5.33001L50.0002 0.754639Z" fill="#FCB9AA"/>
<path d="M71.0529 0.754639L73.7365 5.33001L78.9477 6.45062L75.395 10.399L75.9322 15.6669L71.0529 13.5318L66.1737 15.6669L66.7108 10.399L63.1582 6.45062L68.3694 5.33001L71.0529 0.754639Z" fill="#F2F2F2"/>
<path d="M92.1057 0.754639L94.7892 5.33001L100 6.45062L96.4478 10.399L96.9849 15.6669L92.1057 13.5318L87.2265 15.6669L87.7636 10.399L84.2109 6.45062L89.4221 5.33001L92.1057 0.754639Z" fill="#F2F2F2"/>
</svg>
