<svg width="156" height="61" viewBox="0 0 156 61" fill="none" xmlns="http://www.w3.org/2000/svg">
<path d="M7.93495 13.568L8.51556 13.0152C8.99678 13.8576 9.41524 14.7263 9.77092 15.6109L10.3411 15.3529C9.954 14.3631 9.50939 13.4311 8.99678 12.5571L9.38908 12.1781C9.55124 12.0201 9.67154 11.9569 9.74477 11.978C9.818 12.0043 10.0011 12.1675 10.2888 12.4729C10.5137 12.7098 10.6863 12.9204 10.8118 13.11C10.9374 13.2995 11.0158 13.4417 11.0368 13.5364C11.0577 13.6312 11.0524 13.7049 11.0106 13.7418C10.9008 13.8471 10.6654 13.984 10.3045 14.1419L10.5869 14.7053C10.7595 14.6368 10.9426 14.5421 11.1309 14.4315C11.3192 14.3157 11.4604 14.2156 11.5598 14.1209C11.7638 13.9261 11.8109 13.6575 11.7115 13.3153C11.6121 12.9678 11.3297 12.5519 10.8694 12.0675C10.7177 11.9043 10.6026 11.7832 10.5241 11.6989C10.4457 11.62 10.3568 11.5357 10.2521 11.4462C10.1475 11.3567 10.0743 11.3041 10.0272 11.2725C9.98538 11.2409 9.91738 11.2198 9.83369 11.2093C9.75 11.1988 9.68723 11.204 9.65062 11.2198C9.614 11.2356 9.546 11.2777 9.45185 11.3357C9.3577 11.3936 9.27924 11.4567 9.21647 11.5199C9.1537 11.5831 9.05432 11.6726 8.92878 11.799L8.67771 12.0412C8.49987 11.7463 8.31156 11.4673 8.11803 11.1988L7.62111 11.5936C7.80419 11.8622 7.99772 12.1675 8.20172 12.4992L7.52173 13.1468L7.92972 13.5786L7.93495 13.568Z" fill="#1986A0"/>
<path d="M12.5013 11.4936C11.7324 11.004 10.9164 10.5617 10.0638 10.1668L9.73431 10.746C10.5503 11.1198 11.3558 11.5568 12.1457 12.057L12.5013 11.4936Z" fill="#1986A0"/>
<path d="M13.5841 10.2721C13.2912 9.82984 13.1552 9.37705 13.1813 8.9032C13.2075 8.42934 13.3644 8.08711 13.6573 7.87651C13.8509 7.73435 14.0496 7.70276 14.2589 7.77648C14.4681 7.85019 14.6721 8.0292 14.8761 8.31878C15.2631 8.86108 15.3991 9.34546 15.2736 9.78246C15.1533 10.2142 14.7453 10.688 14.0496 11.1935L14.4472 11.6831C15.2998 11.0619 15.8124 10.4511 15.9745 9.84038C16.1367 9.23489 15.9745 8.58203 15.4724 7.88704C15.1533 7.43951 14.8028 7.16573 14.4262 7.06569C14.0496 6.96566 13.6835 7.04463 13.333 7.29736C12.8361 7.66064 12.6112 8.20294 12.6635 8.92426L12.062 8.09238L11.5127 8.49252L13.061 10.6565L13.5998 10.2721H13.5841Z" fill="#1986A0"/>
<path d="M17.7686 8.35037C17.4705 7.78701 17.3502 7.23944 17.413 6.7182C17.4705 6.1917 17.6902 5.7705 18.0616 5.44933L18.7416 6.74453C18.7991 6.84983 18.8357 6.92881 18.8566 6.97619C18.548 7.03937 18.2342 7.01305 17.9203 6.89195L17.8157 7.50796C18.2185 7.66065 18.616 7.69224 19.0083 7.5922C19.0083 7.84493 18.8671 8.11871 18.6056 8.40829L19.1495 8.75051C19.3849 8.50306 19.5471 8.26613 19.6308 8.03973C19.7145 7.81334 19.7354 7.57114 19.6883 7.30263C20.1591 7.02358 20.4572 6.70241 20.5932 6.33386C20.7292 5.9653 20.6821 5.57042 20.4572 5.14395C20.2375 4.73328 19.9551 4.47529 19.5994 4.36999C19.2437 4.26996 18.8305 4.32261 18.3597 4.52794L18.0929 4.0225L17.481 4.34893L17.7582 4.87544C17.2142 5.29138 16.916 5.86527 16.8637 6.58658H16.8533L16.325 5.58622L15.7705 5.88106L17.2247 8.63995L17.7634 8.35037H17.7686ZM19.8452 5.47039C20.0911 5.93898 19.9708 6.34439 19.4843 6.68135C19.432 6.56552 19.3902 6.47601 19.3535 6.41283L18.6579 5.0913C19.2071 4.8807 19.5994 5.00706 19.8452 5.47039Z" fill="#1986A0"/>
<path d="M22.675 6.4181C22.9889 6.6129 23.423 6.60764 23.9775 6.4023C24.9138 6.06007 25.3845 5.1966 25.395 3.8119L24.7255 3.80137C24.6941 4.88597 24.3698 5.5441 23.7473 5.77576C23.5433 5.84947 23.3759 5.8758 23.2452 5.84947C23.1144 5.82314 22.9836 5.72837 22.8581 5.56516C22.7326 5.40194 22.607 5.13869 22.4763 4.78067C22.2252 4.09094 21.9846 3.35384 21.744 2.56408L21.0692 2.79048C21.3046 3.57497 21.5452 4.32261 21.8015 5.02812C22.0683 5.75996 22.356 6.22329 22.6698 6.4181H22.675Z" fill="#1986A0"/>
<path d="M26.3993 3.4802L27.0636 3.33804L26.823 2.20605L29.4331 1.63743L29.5115 1.99545C29.6475 2.63779 29.5586 3.16429 29.2448 3.58023C28.9309 3.99617 28.366 4.31207 27.5553 4.53847L27.7802 5.13869C28.7531 4.87544 29.4435 4.46476 29.8515 3.90667C30.2543 3.34857 30.3746 2.66411 30.1968 1.8533L29.9928 0.889792L28.3189 1.25308L28.1516 0.479118L27.4716 0.62654L27.6389 1.4005L26.0331 1.748L26.4045 3.4802H26.3993Z" fill="#1986A0"/>
<path d="M33.1364 1.60584L33.2776 3.46967L31.9543 3.5697L32.0013 4.13833L35.2967 3.89087L35.2548 3.31698L33.9315 3.41702L33.7955 1.55845L34.9881 1.46895L34.9462 0.895058L31.8967 1.12672L31.9438 1.70061L33.1364 1.60584Z" fill="#1986A0"/>
<path d="M36.8659 3.51705L37.1954 4.10147C37.5773 3.94879 37.8754 3.75924 38.0951 3.53285C38.3096 3.30645 38.4769 3.01161 38.592 2.63779C38.7071 2.26397 38.7803 1.77432 38.8169 1.15831L38.116 1.11619C38.0689 1.87962 37.9643 2.42719 37.7865 2.75362C37.6139 3.08005 37.3053 3.33804 36.8659 3.51179V3.51705Z" fill="#1986A0"/>
<path d="M39.1308 1.95333L39.5074 2.51669C39.8526 2.34295 40.1612 2.11128 40.428 1.81644C40.6947 1.5216 40.8883 1.2057 41.0086 0.868733L41.0452 0.252722L36.8136 0L36.777 0.616011L40.2606 0.821348C40.0775 1.27414 39.7009 1.65323 39.1308 1.95333Z" fill="#1986A0"/>
<path d="M43.5485 2.18082L43.3715 3.07946L44.2643 3.25756L44.4412 2.35892L43.5485 2.18082Z" fill="#1986A0"/>
<path d="M49.2417 5.80209C49.9374 5.62834 50.5808 5.17555 51.1718 4.4437L50.6435 3.99091C50.2094 4.53848 49.7491 4.8965 49.2731 5.07551C48.7971 5.25452 48.2322 5.26505 47.5836 5.1071L48.7239 1.80065L48.0125 1.55319L46.6473 5.51777L46.7676 5.5599C47.7248 5.89159 48.546 5.97057 49.2417 5.79682V5.80209Z" fill="#1986A0"/>
<path d="M54.1847 7.5027C55.0216 7.30262 55.7539 6.77612 56.3868 5.93371L55.8637 5.49671C55.2988 6.21276 54.6711 6.64976 53.9807 6.80771C53.2902 6.96566 52.4743 6.86036 51.5275 6.48654L51.313 7.14467C52.3958 7.58694 53.353 7.70277 54.1847 7.5027Z" fill="#1986A0"/>
<path d="M54.305 5.08078C53.9493 4.54901 53.5989 4.04883 53.2432 3.5855L52.6573 3.99618C53.0601 4.53321 53.4106 5.02813 53.7087 5.47566L54.2998 5.08078H54.305Z" fill="#1986A0"/>
<path d="M58.3483 7.51849L59.8443 8.56623C59.5461 8.94532 59.2532 9.23489 58.9655 9.4297C58.7406 9.0085 58.4686 8.52938 58.1548 8.00287L57.5376 8.31351C57.8462 8.83475 58.1129 9.30334 58.3326 9.71928C58.0083 9.79825 57.6526 9.79299 57.2708 9.69295C56.8837 9.59292 56.4496 9.40864 55.9579 9.13486L55.6911 9.71928C56.7582 10.3406 57.684 10.5722 58.4634 10.4143C59.248 10.2563 59.9855 9.67189 60.6812 8.66627L60.812 8.48199L58.8557 7.10781C58.9498 7.01831 59.0545 6.90774 59.1695 6.77612L58.6465 6.36018C58.3692 6.67081 58.0449 6.93407 57.6631 7.14467C57.2813 7.35527 56.889 7.49743 56.4757 7.56587L56.6274 8.19241C57.2708 8.09238 57.8409 7.86598 58.3431 7.51849H58.3483Z" fill="#1986A0"/>
<path d="M60.9689 13.7418C62.0307 14.7263 63.1449 14.679 64.3165 13.6049L63.8928 13.0836C63.5058 13.4364 63.1553 13.6523 62.8362 13.7365C62.5224 13.8208 62.2086 13.7786 61.9052 13.6154L64.2067 11.0987L63.6732 10.6038L60.8747 13.6628L60.9689 13.747V13.7418Z" fill="#1986A0"/>
<path d="M60.3883 11.7358C60.2575 11.7674 60.1267 11.7779 60.0012 11.7674C59.8757 11.7569 59.7188 11.7305 59.5357 11.6779L59.4154 12.3676C59.7763 12.4782 60.0954 12.515 60.3621 12.4729C60.6289 12.4308 60.927 12.2939 61.2513 12.0622C61.5756 11.8253 61.9784 11.4462 62.4596 10.9197L63.1815 10.1352L62.6584 9.65083L61.9366 10.4353C61.675 10.7196 61.4606 10.946 61.288 11.1093C61.1153 11.2777 60.9532 11.4146 60.8067 11.5252C60.6603 11.6358 60.5191 11.7042 60.3883 11.7358Z" fill="#1986A0"/>
<path d="M89.9521 54.2511H98.0388L99.676 59.8268H104.394L96.4016 36.7027H91.6835L83.7224 59.8268H88.2835L89.9521 54.2511ZM93.9484 40.5988H94.0111L97.0345 50.8604H90.9303L93.9536 40.5988H93.9484Z" fill="#1986A0"/>
<path d="M110.31 51.0552C110.31 49.7863 110.692 48.6806 111.461 47.7277C112.224 46.7747 113.072 46.3008 113.992 46.3008C115.08 46.3008 115.839 46.622 116.257 47.2696C116.676 47.912 116.885 49.144 116.885 50.9604V59.8268H120.913V50.5445C120.913 47.8856 120.468 45.9691 119.574 44.795C118.684 43.6209 117.293 43.0365 115.405 43.0365C114.416 43.0365 113.459 43.2682 112.528 43.7315C111.597 44.1948 110.812 44.8372 110.184 45.6638H110.122L110.059 43.3524H106.22V59.8215H110.31V51.0499V51.0552Z" fill="#1986A0"/>
<path d="M127.932 51.0552C127.932 49.7863 128.314 48.6806 129.083 47.7277C129.847 46.7747 130.694 46.3008 131.615 46.3008C132.703 46.3008 133.461 46.622 133.879 47.2696C134.298 47.912 134.507 49.144 134.507 50.9604V59.8268H138.535V50.5445C138.535 47.8856 138.09 45.9691 137.196 44.795C136.306 43.6209 134.915 43.0365 133.027 43.0365C132.038 43.0365 131.081 43.2682 130.15 43.7315C129.219 44.1948 128.434 44.8372 127.807 45.6638H127.744L127.681 43.3524H123.842V59.8215H127.932V51.0499V51.0552Z" fill="#1986A0"/>
<path d="M148.698 60.1427C150.795 60.1427 152.788 59.7215 154.677 58.8738L153.735 55.9622C152.203 56.7414 150.659 57.1363 149.111 57.1363C147.809 57.1363 146.736 56.773 145.884 56.0412C145.036 55.3146 144.555 54.3248 144.451 53.077H155.906C155.969 52.5505 156 52.024 156 51.4922C156 48.7702 155.325 46.6799 153.971 45.2215C152.616 43.7631 150.722 43.0365 148.29 43.0365C145.858 43.0365 143.928 43.7947 142.5 45.3163C141.072 46.8379 140.36 48.9281 140.36 51.587C140.36 54.2458 141.129 56.2834 142.672 57.826C144.215 59.3687 146.224 60.1374 148.698 60.1374V60.1427ZM145.565 47.1222C146.245 46.3851 147.165 46.0113 148.316 46.0113C149.467 46.0113 150.44 46.3746 151.099 47.1064C151.758 47.833 152.098 48.886 152.124 50.2602H144.445C144.508 48.907 144.88 47.8646 145.565 47.1222Z" fill="#1986A0"/>
<path d="M90.8466 30.1161L91.3853 30.8269C91.8247 30.5741 92.2066 30.2424 92.5361 29.8318C92.8656 29.4264 93.0958 28.9946 93.2265 28.5418V27.731H87.6559V28.5418H92.2432C92.0392 29.1526 91.5736 29.6738 90.8466 30.1108V30.1161Z" fill="#1986A0"/>
<path d="M87.9906 32.3432L88.4666 33.0856C88.9583 32.8539 89.3349 32.5854 89.6017 32.2748C89.8684 31.9641 90.062 31.5587 90.1823 31.0585C90.3026 30.5583 90.3653 29.9055 90.3653 29.0999H89.4447C89.4447 30.1056 89.3454 30.8321 89.1414 31.2744C88.9374 31.7219 88.5555 32.0747 87.9906 32.3432Z" fill="#1986A0"/>
<path d="M94.9213 32.9066C96.4486 32.7749 97.6412 32.3379 98.4938 31.6008C99.3517 30.8637 99.9009 29.8107 100.142 28.4365L99.268 28.2417C99.0274 29.4211 98.5514 30.3056 97.84 30.9111C97.1286 31.5113 96.1087 31.8799 94.7748 32.0062L94.9108 32.9066H94.9213Z" fill="#1986A0"/>
<path d="M97.2071 28.6893C96.48 28.2786 95.7686 27.9048 95.0782 27.5731L94.6388 28.4049C95.4339 28.7946 96.1348 29.1578 96.752 29.5053L97.2123 28.6893H97.2071Z" fill="#1986A0"/>
<path d="M74.1345 58.3525H0V59.8426H74.1345V58.3525Z" fill="#1986A0"/>
<mask id="mask0_522_592" style="mask-type:luminance" maskUnits="userSpaceOnUse" x="19" y="33" width="36" height="26">
<path d="M44.7799 35.8655C45.1618 35.4548 44.1627 34.8125 44.1627 34.8125C44.1627 34.8125 43.0119 32.8855 40.0775 34.902C37.1431 36.9238 36.3167 41.0674 36.3167 41.0674L36.3324 41.1411C36.0185 41.5623 35.6994 42.0362 35.3961 42.5732C33.1312 46.5852 32.2315 48.2752 32.2315 48.2752C32.2315 48.2752 31.7503 49.0703 31.133 50.1707L31.0441 50.1917C31.0441 50.1917 31.133 46.7326 31.3109 43.363C31.3109 43.363 28.026 41.9309 25.4839 43.1208C22.9418 44.3107 20.3788 47.5118 19.2594 49.3388C18.14 51.171 25.8501 58.6842 25.8501 58.6842H36.8502C36.8502 58.6842 37.8911 57.6207 39.2092 54.7881C39.3923 56.2413 40.0514 57.7102 41.6833 58.6842H54.9274C54.7758 41.3464 44.7851 35.8655 44.7851 35.8655H44.7799Z" fill="white"/>
</mask>
<g mask="url(#mask0_522_592)">
<path d="M40.1507 40.4303C40.1612 40.246 39.9886 40.1881 39.8578 40.2144C39.272 40.3355 40.1246 40.9621 40.1507 40.4303Z" fill="#1986A0"/>
<path d="M39.2458 40.4566C39.2354 40.2671 39.0785 40.2355 38.9268 40.2671C38.2886 40.4145 39.272 41.0305 39.2458 40.4566Z" fill="#1986A0"/>
<path d="M39.7009 41.2095C39.7323 41.6202 40.4332 41.357 40.0984 40.9674C39.8474 40.8726 39.6852 41.0253 39.7009 41.2095Z" fill="#1986A0"/>
<path d="M38.7646 41.5044C39.1883 41.1674 38.4612 40.7989 38.4455 41.2622C38.4455 41.4096 38.5397 41.5307 38.7646 41.5044Z" fill="#1986A0"/>
<path d="M39.408 41.9361C39.4812 41.8414 39.5597 41.7729 39.5126 41.615C39.3661 41.099 38.6809 41.9782 39.408 41.9361Z" fill="#1986A0"/>
<path d="M36.2591 46.443C36.7665 46.3904 36.8188 45.7954 36.9025 45.3953C37.2059 43.9579 37.7603 42.8101 38.4455 41.8519C38.4455 41.8361 38.4455 41.8203 38.4194 41.8256C37.5197 42.6048 36.8607 43.8421 36.3951 45.0688C36.2434 45.469 35.9871 46.0113 36.2591 46.4377V46.443Z" fill="#1986A0"/>
<path d="M37.7812 44.5371C38.3619 44.3475 39.0994 43.7947 39.8578 43.8684C39.9677 43.8789 40.1298 43.8947 40.1769 44.0316C39.9049 44.5265 39.2406 44.6582 38.7123 44.9161C38.3043 45.1109 37.9643 45.3689 37.6714 45.6427C37.5929 45.7164 37.4412 45.7901 37.4569 45.9112C38.5502 45.5269 39.8892 45.6322 40.7627 46.0165C41.019 46.1271 41.5055 46.3008 41.8298 46.2324C42.0861 46.1798 42.2692 45.7796 42.2849 45.5111C42.3058 45.1794 42.0443 44.6845 42.1227 44.2791C42.175 44.0263 42.4104 43.8263 42.3895 43.6104C42.3738 43.4261 42.1698 43.1839 42.0704 43.0734C41.7723 42.7417 41.1184 42.4626 40.5274 42.5363C39.2249 42.6943 38.2102 43.563 37.7812 44.5476V44.5371Z" fill="#1986A0"/>
<path d="M30.746 47.9962C30.929 48.4174 31.1958 48.707 31.7869 48.6438C32.3099 48.5859 32.8226 48.2226 33.1992 47.8909C33.5915 47.5434 33.9367 47.0169 34.533 47.1117C34.0727 48.3226 32.0379 48.8123 32.2681 50.5971C32.3152 50.9815 32.7441 51.0289 32.9638 51.2974C33.1835 51.787 33.4293 52.3293 33.9733 52.4241C34.8782 52.5768 35.2705 51.8028 35.9714 51.8081C36.301 51.8081 36.5991 51.9345 36.8502 51.7554C37.1797 51.5185 37.3262 50.9499 37.3576 50.4971C37.4517 49.1598 36.688 48.0646 36.212 47.2012C36.2643 47.7856 36.4631 48.8228 35.9976 49.1019C35.9191 48.8228 35.8302 48.5543 35.6785 48.349C35.7465 48.8439 35.7099 49.4493 35.3333 49.581C35.077 49.4072 35.1345 48.786 35.1188 48.4543C34.7422 49.1387 34.5644 50.0285 33.7065 50.2233C33.6647 48.9966 34.2976 48.2805 34.8521 47.5961C35.0404 47.3591 35.3333 47.1748 35.3856 46.8432C35.0874 46.8221 34.8991 46.6852 34.6638 46.6536C33.6438 46.5062 33.3927 47.217 32.6395 47.1591C32.8696 46.5957 33.3456 46.2851 33.9472 46.085C33.5862 45.7691 32.9899 45.6901 32.5872 45.4163C33.4398 44.8898 34.6428 45.2163 35.2234 45.6585C35.3176 45.7322 35.3804 45.8744 35.4902 45.8481C35.417 44.3949 34.7108 43.4314 34.2924 42.4152C34.8834 42.5205 35.1554 42.9417 35.5164 43.2734C35.6053 42.847 35.5791 42.2573 35.5164 41.8256C36.0917 42.2415 36.233 43.0892 36.2905 44.0264C36.6043 43.6157 36.5468 43.0839 36.7979 42.6311C36.9809 42.3047 37.2843 42.0888 37.2216 41.557C37.164 41.0253 36.7403 40.6251 36.4213 40.3513C36.1231 40.0986 35.5791 39.6669 35.145 39.5984C34.7474 39.5405 34.2505 39.7195 33.9995 39.8933C33.6961 40.1039 33.6281 40.5251 33.3613 40.6988C33.1625 40.8252 32.9219 40.7778 32.7493 40.8621C32.2001 41.12 32.1792 41.7887 32.5349 42.2573C32.7179 42.4942 33.0213 42.7417 33.2829 43.0102C33.6647 43.3998 34.2662 43.6736 34.2401 44.3265C33.9576 44.3475 33.8164 44.1053 33.6281 43.979C33.173 43.6736 32.0223 43.3366 31.4992 43.7368C31.4103 43.8052 31.3475 44.0158 31.2063 44.0843C31.0964 44.1369 30.8663 44.1001 30.7512 44.1948C30.5211 44.3738 30.7094 44.7424 30.6466 45.0794C30.5577 45.5322 30.066 45.7638 29.9038 46.1271C29.5063 47.0011 30.0764 47.7487 30.7564 48.0067L30.746 47.9962Z" fill="#1986A0"/>
<path d="M37.1954 47.7803C37.4674 48.2173 37.9382 48.7228 38.0219 49.4704C38.0742 49.9495 38.0637 50.4129 38.2102 50.813C38.3828 51.2921 39.1151 51.508 39.7271 51.2395C39.9938 51.1236 40.088 50.8446 40.3966 50.7551C40.7209 50.6603 41.0504 50.8077 41.3276 50.7024C41.6049 50.5971 41.8664 50.2549 41.8873 49.8969C41.903 49.6442 41.7566 49.4862 41.8089 49.1756C41.8559 48.907 42.0443 48.8491 42.0756 48.5596C42.1384 47.9435 41.7566 47.3486 41.3538 47.0327C40.5117 46.364 38.7071 46.4219 37.6243 46.7378C38.6495 46.9063 39.5911 47.1538 39.8107 48.1331C39.2511 47.9804 38.8954 47.6276 38.2363 47.5697C38.3828 47.8698 39.0052 48.3174 38.7437 48.8544C38.1997 48.5438 37.7969 47.9488 37.1954 47.7803Z" fill="#1986A0"/>
<path d="M54.3521 46.6589C53.5727 46.4904 52.4324 46.5167 52.4429 45.8165C52.9293 45.3426 53.5988 46.3693 54.4305 46.4325C55.3197 46.5009 55.8899 45.8639 56.2769 45.0372C55.461 44.6476 54.9693 43.821 54.0068 43.7631C52.945 43.6999 52.7515 44.7687 51.7786 44.8688C52.4115 45.1057 53.0287 44.7161 53.7244 44.7687C54.0382 44.7898 54.8751 44.9372 54.8385 45.211C54.8019 45.5164 53.5099 45.4742 53.0705 45.3847C52.6939 45.3058 52.2232 45.032 51.9564 45.2742C51.4752 47.3854 54.985 46.8326 55.2727 48.5016C53.7453 48.7175 53.3112 46.9748 52.0453 46.9958C51.9041 47.7909 52.0453 48.2647 52.3644 48.7491C52.8718 49.5178 53.9964 49.7073 53.6302 51.1131C52.8613 50.9183 52.9032 48.9334 52.1133 48.8544C51.7786 48.8228 51.5589 49.2651 51.4856 49.6178C51.2921 50.5919 51.9564 51.7186 51.6321 52.5821C51.1195 52.2872 51.585 51.2605 51.1613 50.9025C50.429 51.7449 49.9478 52.9295 48.8441 53.2718C50.6592 52.1345 52.0715 48.7228 51.5484 45.8323C51.4961 45.5269 51.3967 45.1899 51.3026 44.8951C51.2136 44.616 51.1666 44.158 50.7952 44.158C50.6121 44.2159 50.7847 44.5792 50.497 44.5897C50.2407 44.6002 50.0158 43.8737 49.7229 43.721C48.6872 43.1734 47.5417 43.9421 47.3011 44.8424C48.3577 44.953 48.6506 46.1903 49.7752 46.3377C50.3349 46.4114 50.5337 46.1798 51.0776 46.1429C51.4961 46.4641 51.109 46.8589 50.6017 46.8326C49.8484 46.7958 48.75 45.9323 47.8346 46.3904C47.2069 46.7063 47.3063 47.0432 46.9193 47.8698C46.9402 47.9277 47.1599 47.7856 47.3429 47.8856C47.9915 48.191 48.5146 48.5964 49.3149 48.5964C50.1152 48.5964 50.5912 47.7435 51.334 47.9857C51.2764 48.5754 50.9417 48.8597 50.5337 48.9597C49.8432 49.1334 48.9121 48.6017 48.206 48.7702C47.5156 48.9334 47.3534 49.5231 46.9768 50.1127C47.5835 50.3655 47.9392 50.8551 48.6088 50.9183C49.3724 50.9867 49.8432 50.3497 50.4761 50.3813C50.2721 51.6133 48.7343 51.329 47.9759 52.0608C47.5835 52.4399 47.4999 52.9611 47.3952 53.8299C47.6306 54.0089 47.9863 54.1037 48.2792 54.2405C48.5094 54.2721 48.7395 54.309 48.9697 54.3406C49.4928 54.2616 49.9217 54.0773 50.2041 53.614C50.5389 53.0612 50.4552 52.124 51.0672 51.8397C51.1143 52.6136 50.4761 53.951 51.4386 54.2195C51.9302 53.9088 52.4115 53.5561 52.4167 52.6505C52.4219 51.7396 51.4961 50.8656 52.1238 50.0496C52.877 50.6708 52.4533 52.1819 53.829 52.3346C54.4828 51.4501 54.5508 50.0917 54.0121 49.3704C53.557 48.7649 52.5736 48.6175 52.4952 47.7751C52.5893 47.7751 52.605 47.6645 52.6992 47.6645C53.5831 48.0383 54.0434 49.5968 55.168 49.5389C55.6963 49.5125 56.0886 49.1387 56.4966 48.8281C56.209 47.654 55.6807 46.9537 54.3521 46.6694V46.6589ZM49.43 44.8108C49.9374 44.8108 50.2094 45.3216 50.9678 45.2689C50.7481 45.8428 49.0063 45.6269 49.43 44.8108ZM49.2208 47.6276C49.3724 46.7273 50.8004 47.5381 51.3183 47.1222C50.8946 47.575 49.9687 48.1541 49.2208 47.6276ZM48.7605 49.8863C49.0795 49.1861 50.3244 49.7337 50.8684 49.3335C50.3924 49.7495 49.4457 50.2865 48.7605 49.8863Z" fill="#1986A0"/>
<path d="M44.7694 33.6805C44.9944 33.7858 45.1356 33.5489 45.3867 33.5542C45.554 33.6805 45.9097 34.0017 45.6743 34.2597C45.4965 34.2334 45.507 34.0175 45.2611 34.0543C45.214 34.1017 45.214 34.2018 45.2193 34.3071C45.5331 34.3123 46.1189 34.4492 45.8365 34.8862C45.7214 34.7599 45.3082 34.5808 45.303 34.9283C45.3919 35.0758 45.7319 34.9652 45.8836 35.0547C45.9882 35.9603 45.5854 36.8711 45.2245 37.5451C45.0414 37.882 44.6177 38.7824 45.3867 38.6244C45.8574 38.5296 46.2131 37.1133 46.2549 36.55C46.2916 36.0709 46.1189 35.5338 46.3386 35.3443C46.3962 35.2074 46.7257 35.3443 46.7519 35.1758C46.8617 35.1126 46.7362 34.9494 46.6263 34.9705C46.4223 34.9599 46.3962 35.3022 46.2131 35.1758C45.8888 34.7599 46.5845 34.7019 46.6682 34.4282C46.6002 34.3755 46.5322 34.3176 46.3805 34.3439C46.234 34.3755 46.3334 34.6546 46.1346 34.6335C45.6377 34.3071 46.3491 34.0701 46.3805 33.7648C46.2968 33.7648 46.3282 33.6542 46.2131 33.6805C45.9986 33.67 46.1346 34.0122 45.9254 34.0122C45.69 33.9596 45.5697 33.3752 45.7999 33.2225C45.8731 33.133 46.1346 33.2277 46.2131 33.1382C46.234 32.8592 46.0091 32.8171 45.7162 32.8486C45.4442 32.4169 45.1356 32.8802 44.8113 32.975C44.874 33.2909 44.6753 33.4594 44.7694 33.6805Z" fill="#1986A0"/>
<path d="M40.8098 38.4138C40.8778 38.5928 41.7043 39.4931 41.8821 39.5353C42.5882 39.6985 43.3101 38.8455 43.9848 38.5823C44.1679 38.5086 44.3353 38.6349 44.4399 38.377C43.9325 38.2559 43.5507 38.6139 43.0381 38.6244C42.6092 38.398 42.991 38.04 43.2421 37.9189C43.3258 37.7188 43.2002 37.5661 43.2839 37.3766C43.7599 36.9817 43.9639 37.6767 44.5184 37.5819C44.7171 37.1923 43.4461 35.8497 44.1888 35.7128C44.7956 35.6023 44.7014 36.8501 45.0153 37.2081C45.4128 36.134 44.8479 34.5387 44.147 34.3439C43.943 34.286 43.7076 34.386 43.5298 34.3439C43.263 34.2807 42.9649 33.8648 42.787 34.3018C42.7609 34.5493 42.9073 34.6177 42.8707 34.881C42.5359 34.9915 42.2012 35.0389 42.2116 35.418C42.2378 36.2867 44.215 36.213 44.1104 37.1607C43.5036 37.0502 42.7556 35.7813 41.9239 36.2867C41.7043 36.4236 41.6258 36.7658 41.7147 37.1607C41.4009 37.3977 40.9301 37.4766 40.768 37.8662C40.768 38.0031 40.747 38.2559 40.8098 38.4033V38.4138Z" fill="#1986A0"/>
<path d="M46.2968 37.4187C46.4903 37.4187 46.4276 37.166 46.5426 37.087C46.9088 36.7922 47.1965 36.4184 47.8608 36.4236C48.3838 37.2186 46.5949 37.4292 46.3334 37.961C47.1912 37.3871 49.0377 38.3032 49.3044 37.1291C49.2521 36.9712 49.158 36.8606 49.1371 36.6711C49.7334 36.2393 49.3777 35.0705 48.3943 35.4233C48.2792 35.3495 48.2374 35.1969 48.1485 35.0916C47.2226 34.981 46.7362 35.6654 46.4589 36.3394C46.3229 36.6658 46.0876 37.2028 46.2968 37.4187Z" fill="#1986A0"/>
<path d="M47.4476 41.3622C47.8556 41.6992 48.342 41.5044 48.6035 41.1148C49.8641 41.3675 49.6863 39.8196 48.8494 39.5774C50.1152 38.3612 46.914 37.5187 46.0039 38.4138C46.6002 38.2874 47.3691 38.3296 47.6097 38.7876C47.5417 38.9087 47.2906 38.8508 47.2802 39.0351C47.3691 39.3352 47.7771 39.3089 47.6934 39.7827C47.6202 39.8196 47.5731 39.8828 47.4842 39.9091C46.8565 39.6037 46.5688 38.9508 45.7947 38.7876C45.9516 39.1299 46.2863 39.3773 46.5793 39.8248C46.914 40.3408 47.0762 41.0569 47.4476 41.3622Z" fill="#1986A0"/>
<path d="M46.0876 42.1046C46.234 41.9835 46.5897 41.9098 46.7466 41.6887C47.4109 40.7673 46.1556 39.4458 45.5488 39.0351C45.4965 39.5458 45.9307 39.5616 45.8783 40.0723C45.7947 40.0881 45.7947 40.1829 45.711 40.1987C45.5122 40.2197 45.5174 39.9828 45.3814 40.1565C45.3344 40.5514 45.3971 40.9779 45.0101 40.9884C44.5393 40.9989 44.6178 40.3566 44.7642 39.9091C44.4713 40.0512 44.147 40.1092 44.0633 39.8248C43.9116 39.3247 44.6701 39.1404 44.8061 38.8297C43.603 38.2874 41.7095 40.6515 43.2369 41.3201C43.4984 41.4359 43.8541 41.3938 43.9796 41.6097C44.2464 42.073 44.2725 42.5311 44.8845 42.6469C45.4965 42.7627 45.6953 42.4258 46.0823 42.1046H46.0876Z" fill="#1986A0"/>
<path d="M41.924 60.169C41.291 60.4322 40.4437 60.6955 40.0984 60.2058C40.1821 60.0795 40.3129 59.9795 40.3443 59.8215C40.0304 59.7425 39.2929 59.2055 39.8735 58.937C40.3809 58.7 41.3957 60.0268 42.039 59.5161C41.7827 59.2371 41.4375 59.2002 41.04 58.8949C40.4227 58.4157 39.9363 57.5049 39.4341 57.2732C38.8797 57.0205 38.3043 57.3733 38.1788 57.8576C37.6766 58.0682 37.2006 58.3104 37.2111 58.7158C37.2216 59.4529 37.912 59.5056 38.3096 59.8268C37.5616 61.5958 41.155 61.3957 41.9344 60.169H41.924Z" fill="#1986A0"/>
<path d="M43.2996 59.2897C44.3615 59.0317 45.6064 57.5681 45.0571 56.4466C44.7851 55.8938 44.1522 55.8359 43.467 55.899C43.1636 55.7148 42.9126 55.4252 42.6719 55.1093C42.2221 54.9619 41.856 54.8355 41.3747 55.0408C40.9563 55.2198 40.8935 55.5621 40.7 55.8622C40.4751 56.2149 40.1037 56.5045 40.0409 56.7309C39.7061 57.9208 41.4898 59.0159 42.3163 59.2265C42.196 58.6421 41.6938 58.779 41.5892 58.163C41.6153 57.9787 42.0077 57.9945 42.107 57.8524C41.9449 57.3943 41.8821 56.952 42.3215 56.8625C42.8184 56.7625 42.8707 57.368 42.9387 57.9103C43.195 57.8524 43.2735 57.6207 43.535 57.6786C44.2359 58.2472 43.2578 58.7106 43.2996 59.2897Z" fill="#1986A0"/>
<path d="M47.2488 57.9945C46.8094 57.726 46.5217 57.3943 46.2131 57.4364C45.5384 57.5154 45.1304 58.2525 44.7851 58.6369C44.4765 58.9844 44.1104 59.2213 43.8907 59.574C44.5027 59.6109 45.0728 58.4894 45.6377 59.1002C45.3814 59.5161 45.303 59.9057 45.3657 60.4164C45.0362 60.8324 44.419 60.3375 44.079 60.5533C43.7756 61.0851 45.9568 62.2224 44.8845 62.5698C44.1888 62.7962 44.1156 61.3852 43.5141 61.2378C43.535 62.3592 44.2935 63.7229 45.1042 63.9967C45.4704 64.1178 45.8313 63.9282 46.2497 63.9072C46.5165 63.8966 46.7519 64.1336 46.9454 63.8493C47.0448 63.5807 46.9297 63.407 46.8146 63.07C46.935 62.8068 47.3273 62.6857 47.3743 62.3856C47.05 61.6485 46.3073 61.6327 45.6377 61.5221C45.2141 61.4537 44.5759 61.4905 44.5759 60.8692C45.1722 60.7903 45.9202 61.5168 46.5845 61.4431C47.2854 61.3694 47.7248 60.8745 47.322 60.1427C47.4946 59.553 48.1589 59.5003 48.1328 58.9212C48.1014 58.2525 47.6097 58.2209 47.2488 58.0051V57.9945Z" fill="#1986A0"/>
<path d="M44.7171 53.6193C44.5445 52.9559 43.7181 51.6765 43.0695 51.8555C42.8236 51.9239 42.1489 52.6979 41.9815 53.1612C41.835 53.5614 41.8716 54.0773 42.1123 54.4564C42.6144 54.5196 42.9806 54.846 43.2787 55.2883C43.8227 54.7144 42.855 53.3192 43.263 52.6716C44.3091 53.3666 43.8227 54.9355 43.4513 55.699C44.3562 55.3725 44.9839 54.6512 44.7171 53.6193Z" fill="#1986A0"/>
<path d="M48.6454 54.7986C47.9811 54.6933 46.166 54.0879 45.2141 54.7565C44.9682 54.925 44.6544 55.3725 44.7851 55.7095C45.1565 56.7046 47.0343 55.4462 47.8712 55.4462C47.9863 56.2729 46.6054 56.4571 45.8888 56.5098C46.867 57.7629 48.9749 56.2834 48.6872 54.9461C48.6715 54.8987 48.6611 54.8513 48.6454 54.8039V54.7986Z" fill="#1986A0"/>
<path d="M24.7255 44.8424C24.6679 45.0162 24.5947 45.2215 24.6365 45.3953C24.7673 45.3268 24.7464 45.1373 24.8353 44.9951C25.0341 44.6687 25.4577 44.2685 25.7559 44.3528C25.8553 44.4423 25.7088 44.6634 25.8814 44.7582C26.0384 44.8424 26.1534 44.6055 26.3156 44.616C26.551 44.6266 26.7236 44.8582 26.6294 45.0425C26.5405 45.2163 26.2999 45.1952 26.19 45.2268C25.7297 45.3479 25.2799 45.3847 24.8928 45.827C25.2381 45.9376 25.4996 45.7164 25.8867 45.7006C26.1796 45.6901 26.4987 45.7428 26.802 45.7849C27.2833 45.8533 27.8952 46.0218 28.2196 45.5269C28.3869 45.2742 28.3294 45.053 28.2457 44.8319C28.4915 44.4054 28.6223 44.0053 28.3503 43.6946C28.2876 43.6525 28.2248 43.6157 28.162 43.5736C28.0417 43.5472 27.9789 43.4998 27.8743 43.4893C27.6337 43.463 27.3303 43.7473 27.1577 43.6578C27.0217 43.5841 27.0845 43.3366 26.9171 43.2155C26.823 43.1471 26.6765 43.1208 26.5771 43.1155C25.8239 43.0944 25.0498 43.9053 24.7359 44.8477L24.7255 44.8424Z" fill="#1986A0"/>
<path d="M23.9199 44.7055C24.0193 44.4318 23.7682 44.1948 23.7578 43.8895C23.7473 43.6683 23.7368 42.8417 24.1135 42.8575C24.5476 42.8786 24.4639 43.5262 24.4482 43.7894C24.4378 43.9737 24.4116 44.158 24.3802 44.337C24.3488 44.5055 24.2861 44.7266 24.4535 44.853C24.579 44.5897 24.6104 44.2791 24.8091 43.9263C24.9922 43.5946 25.3113 43.3366 25.463 43.0313C25.5833 42.7891 25.6356 42.3468 25.4787 42.1888C25.2956 41.9993 25.0393 42.0572 24.8771 41.8993C24.7621 41.7834 24.7934 41.5939 24.6888 41.4675C24.3907 41.12 23.8415 41.1674 23.6375 41.4991C23.5852 41.5834 23.627 41.6465 23.5224 41.7729C23.3655 41.9624 23.0935 41.8519 22.8895 42.0941C22.5599 42.4837 22.7849 43.2366 22.9156 43.5367C23.1092 43.9895 23.4021 44.4318 23.9147 44.7161L23.9199 44.7055Z" fill="#1986A0"/>
<path d="M24.2913 46.6799C24.035 46.7747 23.9984 47.0748 23.9565 47.2959C23.831 47.9488 23.9095 48.7702 24.3802 49.2229C24.8248 49.6442 25.4159 49.4336 25.7245 49.144C25.7925 49.0808 25.8291 48.9808 25.9024 48.9334C26.1953 48.7386 26.6242 49.0123 26.9485 48.9439C27.2414 48.8807 27.5239 48.6491 27.6599 48.4332C27.8952 48.0699 27.7959 47.8119 27.7226 47.5171C27.5971 46.9906 27.9214 46.4799 27.1839 46.0902C26.483 45.7164 25.6617 45.9165 25.0811 46.0902C25.0184 46.1113 24.9347 46.1166 24.9033 46.1798C25.2276 46.522 25.7141 46.085 25.939 46.5483C25.9337 46.6799 25.7245 46.8063 25.7664 46.9432C25.85 47.1064 26.007 47.059 26.1377 47.1854C26.3103 47.3539 26.258 47.7171 26.0122 47.8172C25.7036 47.9435 25.4996 47.5223 25.2067 47.3749C25.0811 47.496 25.1648 47.6329 25.0341 47.7698C24.7882 48.0278 24.4064 47.5908 24.3959 47.317C24.3855 47.0432 24.5058 46.8326 24.2861 46.6957L24.2913 46.6799Z" fill="#1986A0"/>
<path d="M19.9864 43.8157C20.1957 43.6736 20.0544 43.4472 20.1904 43.2787C20.3212 43.1208 20.8181 43.0892 20.9384 43.3366C20.8966 43.5209 20.656 43.3893 20.5723 43.5262C20.5147 43.6209 20.5723 43.721 20.6455 43.7578C20.8286 43.8473 20.8861 43.5472 21.0169 43.4314C21.2 43.2682 21.4615 43.363 21.5243 43.5578C21.4876 43.6367 21.3621 43.6104 21.2627 43.7157C21.1686 43.8105 21.1006 43.9421 21.2523 44.0158C21.4458 44.1053 21.5818 43.6736 21.6916 43.6525C21.8695 43.6104 22.2775 44.0106 22.4449 44.1843C22.8006 44.5476 23.1824 45.1004 23.3759 45.5058C23.4596 45.6743 23.5904 46.0481 23.7996 46.1692C23.9408 46.2482 24.1919 46.2535 24.3227 46.0218C24.4221 45.8428 24.2808 45.6006 24.1919 45.4058C23.9356 44.8635 23.4335 44.2738 22.6646 43.8421C22.4449 43.7157 22.1049 43.5946 22.1519 43.3472C22.1729 43.2419 22.3507 43.1102 22.2827 42.9839C22.2199 42.8575 22.0578 42.8786 21.995 42.9575C21.9218 43.0576 21.995 43.1313 22.0055 43.1892C22.0107 43.2155 22.1153 43.2787 22.0055 43.4103C21.9427 43.4788 21.8329 43.4525 21.8015 43.4419C21.655 43.3787 21.6236 43.2419 21.6289 43.0839C21.6341 42.9365 21.7387 42.7733 21.6184 42.6943C21.4981 42.6153 21.4249 42.7048 21.383 42.8049C21.3046 42.9891 21.5556 43.0839 21.4929 43.1997C21.4353 43.305 21.2575 43.2892 21.1686 43.2366C21.0535 43.1681 21.0326 43.0312 21.0273 42.9207C21.0221 42.7943 21.064 42.6522 20.996 42.5943C20.8861 42.4995 20.771 42.589 20.7397 42.6522C20.656 42.8101 20.9541 42.8996 20.86 43.0576C20.7763 43.1997 20.3892 43.0839 20.2532 42.9681C20.1747 42.9049 20.1277 42.7891 20.1381 42.7101C20.1643 42.5416 20.3683 42.51 20.2846 42.3573C20.2218 42.2415 20.0231 42.3152 19.9603 42.3257C19.8348 42.6153 19.6621 42.6574 19.4843 42.689C19.4686 42.7101 19.4529 42.7364 19.4372 42.7627C19.4372 42.9681 19.5314 43.1523 19.4006 43.3893C19.5994 43.5367 19.7929 43.7947 19.9864 43.8315V43.8157Z" fill="#1986A0"/>
<path d="M20.0074 46.1692C20.1538 46.3324 19.8609 46.7273 20.0335 46.9169C20.1747 47.0748 20.4624 47.059 20.635 47.0222C20.8809 46.9695 21.2104 46.7852 21.5243 46.5799C21.8381 46.3746 22.335 45.9376 22.6018 46.3851C22.1153 46.801 21.268 46.6852 20.8809 47.3012C20.7292 47.5434 20.6874 47.9383 20.9332 48.1331C21.0587 48.2279 21.1477 48.1805 21.2523 48.2963C21.4981 48.5754 21.1215 49.1598 21.4092 49.4967C21.7649 49.9127 22.1519 49.6758 22.4553 49.6284C22.7639 49.581 23.0987 49.6284 23.355 49.4599C23.8415 48.7386 23.5747 48.091 23.6636 47.4644C23.695 47.2486 23.8205 47.0432 23.7682 46.801C23.2818 47.0011 23.6427 47.8067 23.1249 48.0541C22.7116 48.2542 22.8267 47.5381 22.6907 47.4065C22.6175 47.3328 22.5286 47.3433 22.4553 47.2696C22.1833 47.0274 22.4763 46.7694 22.7116 46.622C22.8947 46.5062 23.2713 46.364 23.0255 46.1324C22.8424 45.9639 22.267 46.0165 22.0369 46.0007C21.9113 45.9902 21.8224 46.0271 21.6969 45.9639C21.4929 45.8639 21.4197 45.6743 21.5033 45.5111C21.8015 44.9109 22.7064 45.7954 23.0987 45.6111C22.6698 45.0583 22.0683 44.7635 21.472 44.6792C20.8234 44.5844 20.3578 44.6266 19.9394 45.3689C19.6098 45.3689 19.3797 45.8007 19.6988 46.0271C19.7824 46.085 19.9289 46.0797 20.0126 46.1692H20.0074Z" fill="#1986A0"/>
<path d="M23.7212 49.5231C23.4858 49.9548 23.4178 50.5076 23.5119 50.913C23.7473 51.8976 25.4159 52.6347 26.1482 52.1609C26.1743 52.124 26.1953 52.0819 26.2214 52.045C26.347 51.3553 26.6085 50.6287 26.2842 49.9916C26.2057 49.8337 26.0384 49.5178 25.7977 49.4336C25.5885 49.3598 25.3165 49.6073 25.0864 49.6231C24.8144 49.6389 24.6731 49.5389 24.3593 49.3704C24.3698 49.7231 24.4639 50.1233 24.8039 50.476C24.9922 50.6708 25.8344 51.2289 25.6513 51.5185C25.5153 51.7291 25.0654 51.508 24.8248 51.3237C24.1396 50.8077 24.0821 49.8811 24.0141 49.1861C23.8624 49.2545 23.7839 49.402 23.7159 49.5231H23.7212Z" fill="#1986A0"/>
<path d="M20.1015 52.9875C20.3683 52.9506 20.6037 52.7347 20.9018 52.5926C21.5556 52.2872 22.403 52.0555 22.8895 51.1394C23.0464 50.8446 23.1824 50.1865 22.8738 49.9653C22.675 49.8232 22.3559 49.9285 22.1886 50.0285C21.8852 50.2075 21.5713 50.5761 21.2837 50.9657C21.0012 51.3448 20.7606 51.8449 20.4101 52.0082C20.1852 51.7502 20.2951 51.3816 20.4572 51.0815C20.7397 50.5603 21.247 50.2549 21.5766 49.939C20.9541 49.66 20.248 50.1812 19.8975 50.8235C19.5941 51.3764 19.6046 51.9818 19.7668 52.4452C19.8295 52.6189 19.9394 52.7769 20.0178 52.9348C20.044 52.9559 20.0754 52.9717 20.1015 52.9875Z" fill="#1986A0"/>
<path d="M29.046 55.3041C29.0983 55.5094 29.1349 55.72 29.2395 55.8885C29.25 55.7516 29.2762 55.5989 29.3023 55.4462C29.3232 55.3041 29.3232 55.1145 29.4645 55.025C29.6162 55.0777 29.5534 55.3251 29.6318 55.3567C29.794 55.1935 30.0765 54.9461 30.2438 55.1251C30.4321 55.3251 29.6842 55.7516 29.6528 56.0149C30.0712 55.7937 30.2595 55.4673 30.6571 55.362C30.9343 55.283 31.2167 55.3515 31.494 55.2936C31.6352 55.2672 31.8026 55.1567 31.8653 54.9777C32.0275 54.5038 31.5201 53.9194 30.9761 53.6403C30.8558 53.5771 30.7198 53.5561 30.5995 53.4824C30.4478 53.3876 30.4164 53.2876 30.2857 53.2086C30.0921 53.0928 29.8829 53.098 29.7312 53.1296C29.5743 53.1665 29.454 53.2981 29.2971 53.3455C29.1245 53.3981 28.8891 53.2244 28.7217 53.3981C28.5386 53.5824 28.6799 53.9088 28.7322 54.1089C28.842 54.5407 28.9519 54.9092 29.0512 55.3041H29.046Z" fill="#1986A0"/>
<path d="M28.1934 51.8555C28.0783 51.7765 27.9737 51.7818 27.8848 51.8976C27.6703 52.1766 28.1777 52.4399 28.2928 52.0977C28.3137 52.0398 28.298 51.9239 28.1986 51.8555H28.1934Z" fill="#1986A0"/>
<path d="M27.0636 51.2184C27.1159 51.3184 27.2153 51.3079 27.2519 51.2447C27.3251 51.1131 27.0531 51.0183 27.0636 51.2184Z" fill="#1986A0"/>
<path d="M27.7017 51.6607C27.7331 51.6028 27.7331 51.5238 27.618 51.4817C27.278 51.3395 27.5186 52.0082 27.7017 51.6607Z" fill="#1986A0"/>
<path d="M30.3484 56.852C30.0503 56.7678 29.7835 56.6993 29.5272 56.6993C29.4854 56.6993 29.4122 56.6835 29.4069 56.7309C30.0137 56.9626 30.678 57.0679 31.29 57.6418C31.6561 57.984 31.8758 58.3789 32.221 58.6842C32.6081 59.0317 33.1102 59.0791 33.4293 58.7422C33.7013 58.4578 33.5392 58.1946 33.6595 57.9155C33.7222 57.7734 33.8949 57.726 33.9628 57.5575C33.9785 57.5259 33.9838 57.4628 33.9838 57.4259C33.9681 56.9836 33.4659 56.415 32.9847 56.0833C31.881 55.3146 30.678 55.4357 29.7783 56.2044C29.9038 56.2044 30.0451 56.1307 30.2124 56.0886C30.3537 56.0517 30.7983 56.0149 30.6884 56.2676C30.5786 56.5203 30.2334 56.2992 30.1131 56.4361C30.2438 56.4361 30.8611 56.6572 30.6675 56.8731C30.5943 56.9626 30.4583 56.8836 30.3432 56.852H30.3484Z" fill="#1986A0"/>
<path d="M26.8177 51.2605C26.8648 51.1973 26.8543 51.1184 26.7602 51.0657C26.7026 51.0341 26.6503 51.0341 26.6242 51.0552C26.3993 51.2079 26.6974 51.4343 26.8177 51.2605Z" fill="#1986A0"/>
<path d="M28.1149 52.64C28.1359 52.7663 28.3137 52.7505 28.3085 52.6189C28.2666 52.5136 28.1359 52.5294 28.1149 52.64Z" fill="#1986A0"/>
<path d="M29.0931 56.4729C29.1454 56.3834 29.0303 56.0254 28.9885 55.8622C28.7112 54.8144 28.3555 53.8404 27.8586 52.8716C27.6546 52.4715 27.4349 52.024 27.1577 51.687C27.142 51.6712 27.1159 51.6712 27.1054 51.6765C27.095 51.6659 27.0845 51.687 27.0688 51.6765C27.0165 51.7923 27.1263 51.8923 27.1682 51.9766C27.8377 53.2718 28.366 54.588 28.4183 55.9569C28.4236 56.1307 28.3817 56.4729 28.4811 56.5835C28.5805 56.6888 28.9885 56.6519 29.0878 56.4729H29.0931Z" fill="#1986A0"/>
<path d="M26.6765 52.0029C26.802 51.9187 26.7497 51.787 26.6503 51.7502C26.3888 51.6501 26.4673 52.1398 26.6765 52.0029Z" fill="#1986A0"/>
<path d="M26.6294 52.7189C26.8596 52.8874 27.1054 52.4873 26.8177 52.3662C26.6033 52.2767 26.4463 52.5873 26.6294 52.7189Z" fill="#1986A0"/>
<path d="M27.1159 52.8874C27.163 52.9348 27.2257 52.9348 27.2833 52.84C27.2833 52.6347 27.006 52.7663 27.1159 52.8874Z" fill="#1986A0"/>
<path d="M27.1891 53.356C27.2676 53.4245 27.4193 53.3718 27.4297 53.2402C27.346 52.9453 27.027 53.2139 27.1891 53.356Z" fill="#1986A0"/>
<path d="M24.8458 58.2525C24.8719 58.4157 24.9713 58.6421 25.1648 58.758C25.531 58.9844 25.939 58.6948 26.2947 58.9528C26.4568 59.0686 26.483 59.1844 26.5876 59.2897C26.823 59.5319 27.1211 59.5003 27.3042 59.2055C27.4245 59.0107 27.4716 58.7474 27.5657 58.5C27.7645 57.9893 28.0836 57.5523 28.5439 57.0889C28.3451 57.0205 28.1045 57.0574 27.9162 57.1995C27.8429 57.2574 27.7906 57.3785 27.6808 57.3469C27.6285 57.2048 27.7383 57.0468 27.7854 56.8941C27.6233 56.8941 27.482 57.0047 27.3042 57.1047C27.1734 57.1784 26.9485 57.368 26.8177 57.2416C26.6137 57.0468 27.0897 56.8573 27.231 56.7941C27.3983 56.7204 27.55 56.6625 27.6756 56.5888C27.5709 56.5308 27.4402 56.6098 27.3617 56.5098C27.5134 56.3097 27.7802 56.5308 27.9737 56.4413C27.2519 55.9043 26.2947 56.1465 25.5885 56.4677C25.3584 56.573 25.0445 56.7099 24.8614 56.9047C24.579 57.1995 24.7882 57.3891 24.8353 57.6365C24.8771 57.8471 24.7987 58.0524 24.8353 58.242L24.8458 58.2525Z" fill="#1986A0"/>
<path d="M38.4822 56.4992C38.7228 56.4519 38.9111 56.3571 39.1569 56.2518C38.8692 56.157 38.5763 56.0886 38.2729 55.8569C37.9748 55.6252 37.6819 55.3251 37.3837 55.0619C36.7822 54.5196 36.1231 54.2142 35.5268 54.0773C34.3238 53.7983 33.1992 54.1616 32.106 55.104C32.1792 55.1672 32.2576 55.2251 32.3309 55.2883C33.1887 54.9566 34.0988 54.9145 35.0351 55.1461C35.893 55.3567 36.8293 55.8359 37.6714 56.0307C37.7289 56.0465 37.8074 56.057 37.7917 56.0833C36.1127 55.9043 34.3342 54.6881 32.7598 55.5252C33.5182 55.6516 34.2348 56.4677 34.533 57.0152C34.5853 57.1153 34.6376 57.2574 34.7004 57.3153C34.7998 57.4101 35.009 57.4628 35.1293 57.4891C35.621 57.5944 36.0028 57.4154 36.4474 57.1469C36.7403 56.9731 37.0333 56.7046 37.3314 56.594C37.708 56.4571 38.1003 56.5835 38.4769 56.5045L38.4822 56.4992Z" fill="#1986A0"/>
<path d="M31.4155 60.0374C31.7032 59.6793 31.6404 59.2055 31.5044 58.8001C31.3737 58.3999 31.1174 57.9471 30.7878 57.6365C30.338 57.2206 29.8881 57.0468 29.4592 56.9889C29.7469 57.3469 30.0817 57.7418 29.8045 58.1262C29.726 57.9103 29.7574 57.6786 29.4958 57.4785C29.4488 57.6312 29.6318 57.8576 29.4488 57.9998C29.4017 58.0366 29.318 58.0208 29.2762 57.9893C29.0879 57.8524 29.1663 57.4206 28.9519 57.2627C28.7897 57.6576 28.7897 58.0419 28.6746 58.4473C28.5909 58.7527 28.4968 59.0423 28.3712 59.3424C28.3294 59.4477 28.2509 59.553 28.23 59.653C28.1673 59.9479 28.5752 60.1321 28.8211 60.1058C28.9885 60.09 29.1402 59.9584 29.2971 60.0216C29.4278 60.0742 29.5377 60.2427 29.6423 60.3217C29.7731 60.4164 29.9457 60.4954 30.1183 60.5007C30.3432 60.5007 30.5577 60.2954 30.814 60.0848C31.0441 60.0953 31.222 60.2638 31.4103 60.0321L31.4155 60.0374Z" fill="#1986A0"/>
<path d="M24.443 56.6414C24.171 56.752 23.8258 56.5361 23.5067 56.4466C23.1772 56.3518 22.8686 56.4045 22.6018 56.4729C22.811 56.2571 23.0255 56.1991 23.2556 56.2097C23.5904 56.2255 23.9409 56.4519 24.2599 56.315C24.1344 56.1886 24.1292 56.0517 24.0769 55.9201C24.0559 55.8253 24.1553 55.62 24.0612 55.5779C23.423 55.2936 22.8267 55.2093 22.1729 55.3725C21.3569 55.5726 20.4258 56.2044 19.8661 57.2311C19.9655 57.1942 20.0335 57.1258 20.1277 57.1521C20.3003 57.1942 20.4624 57.4575 20.6037 57.6102C21.1372 58.1735 21.723 58.3947 22.267 58.4526C23.015 58.5368 23.6584 58.4052 24.3488 57.7523C24.2024 57.3996 24.0873 57.0468 24.4325 56.6414H24.443Z" fill="#1986A0"/>
<path d="M27.3826 59.5477C27.0426 59.9163 26.5667 59.9373 26.2005 59.4582C25.4316 59.6056 24.6679 60.2585 24.0036 61.143C24.3331 60.4165 25.0811 59.5951 25.6617 59.2739C25.3688 59.3213 24.8771 59.2581 24.6208 58.8896C24.5633 58.8106 24.5528 58.7053 24.4953 58.6421C23.5642 58.9264 22.9732 60.1374 22.9993 60.9535C23.015 61.5326 23.1929 62.0907 23.6375 62.5593C23.6375 62.4014 23.6375 62.1697 23.7892 62.0118C23.9513 61.8433 24.3122 61.7854 24.5424 61.7432C25.3584 61.6064 26.0697 61.5116 26.823 60.8587C27.9109 59.9163 28.1986 58.6474 28.502 57.5786C27.958 58.0577 27.9162 58.9633 27.3879 59.5319L27.3826 59.5477Z" fill="#1986A0"/>
<path d="M24.5581 55.8359C24.6156 56.1623 24.9608 56.3571 25.2328 56.3097C25.5205 56.2518 25.8344 56.1149 26.1587 56.0307C26.462 55.9517 26.7916 55.8622 27.095 55.8832C27.4349 55.9043 27.7122 56.0517 28.0731 56.2255C27.9371 56.1096 27.8011 55.9991 27.6599 55.8885C27.6546 55.8095 27.7122 55.7779 27.6703 55.7148C27.618 55.641 27.4245 55.6516 27.435 55.5199C27.4768 55.3093 27.7226 55.4146 27.8273 55.5779C27.9057 55.462 27.7645 55.3673 27.8639 55.2514C28.0522 55.283 28.1097 55.5357 28.23 55.6674C28.2405 55.5094 28.1725 55.3304 28.1254 55.1514C28.0469 54.8724 28.0208 54.6512 27.7645 54.4143C27.1996 53.8931 26.2737 53.3771 25.7088 53.5929C25.4002 53.7088 25.2747 54.051 25.0341 54.2879C24.9295 54.388 24.7882 54.4354 24.6575 54.5722C24.6575 54.6091 24.7621 54.5512 24.7568 54.588C24.6993 54.5933 24.6679 54.5722 24.6261 54.6091C24.443 54.7671 24.6208 55.083 24.6313 55.2251C24.6522 55.4147 24.5267 55.6305 24.5581 55.8359Z" fill="#1986A0"/>
</g>
<path d="M28.0312 29.121C28.3137 29.221 28.6119 29.1157 28.6955 28.8788L28.9518 28.1522C29.0094 27.989 28.9518 27.81 28.8054 27.6784C28.7792 27.6152 28.7269 27.5678 28.6537 27.552C28.638 27.552 28.23 27.4625 28.2196 27.1255C28.2196 27.0044 28.1149 26.9097 27.9946 26.9097C27.8743 26.9097 27.7802 27.015 27.7802 27.1361C27.7854 27.3625 27.8743 27.5309 27.9946 27.6626C27.9632 27.6994 27.9371 27.7415 27.9214 27.7889L27.6651 28.5155C27.5814 28.7524 27.7436 29.0262 28.026 29.1263L28.0312 29.121Z" fill="#1986A0"/>
<path d="M28.0469 25.5829C28.0888 25.5723 29.1402 25.3407 29.7155 26.241C29.7731 26.3305 29.8725 26.3832 29.9718 26.3832C30.0294 26.3832 30.0869 26.3674 30.1392 26.3358C30.2805 26.2463 30.3223 26.0515 30.2334 25.9093C29.4226 24.6352 27.9737 24.9669 27.911 24.9827C27.7488 25.0195 27.6442 25.188 27.686 25.3512C27.7226 25.5144 27.89 25.6197 28.0522 25.5829H28.0469Z" fill="#1986A0"/>
<path d="M53.5989 47.7066C52.741 45.0636 51.5589 42.6732 50.0786 40.5935C47.9706 37.6346 45.8993 36.1762 45.2036 35.7392C45.2088 35.6865 45.2088 35.6286 45.2036 35.5759C45.1461 35.1284 44.6178 34.7283 44.4138 34.5914C44.283 34.4124 43.8645 33.9069 43.0799 33.7332C42.5307 33.6121 41.924 33.6805 41.2701 33.9332C40.8569 33.1066 40.8831 32.2484 41.3695 31.3744C41.8821 30.4478 42.6458 29.8318 43.4566 29.1789C44.7642 28.1259 46.1137 27.036 46.3334 24.5931C46.6211 21.3866 44.8375 19.8124 42.5412 18.8805C42.5621 18.8384 42.583 18.7962 42.6039 18.7594C42.7504 18.4224 42.7138 17.7643 42.536 17.0219L46.5688 19.0279C46.5688 19.0279 46.5688 19.0437 46.5688 19.0542C46.5583 19.4754 46.5897 20.1967 47.0134 20.2073C47.4319 20.2231 47.7823 19.8914 47.7928 19.4702C47.798 19.2438 47.7039 19.0332 47.5522 18.891C47.526 18.8436 47.4842 18.7962 47.4319 18.7699L42.3267 16.2269C42.3267 16.2269 42.311 16.2269 42.3058 16.2269C42.2064 15.9426 42.0913 15.653 41.9606 15.3792C41.3277 14.0419 40.4646 13.1679 39.5283 12.9099C38.524 12.6361 37.5197 12.8836 36.62 13.389L30.6204 10.3985C30.4688 10.3248 30.2857 10.3879 30.2072 10.5406C30.134 10.6933 30.1915 10.8776 30.3432 10.9566L36.0081 13.7786C35.4379 14.1946 34.9253 14.6948 34.5121 15.2107C33.9995 15.8478 33.9105 16.6481 34.0361 17.2115C32.4355 17.2536 31.0964 17.6221 30.0451 18.3276C28.5596 19.3175 28.1463 20.6443 28.0626 20.9865C26.5196 22.7871 26.5562 24.8563 26.5667 25.109C26.5457 25.3775 26.2162 28.8735 23.6479 29.4158C23.6427 29.4158 23.6375 29.4158 23.6322 29.4158C23.5695 29.4316 22.9993 29.6054 22.9366 30.0898C22.8581 30.6952 23.1458 31.1533 23.8153 31.4797C24.375 31.7535 24.4221 32.6433 24.375 32.9171C24.3436 33.1119 24.2965 34.1386 24.6679 35.26C25.1073 36.5763 25.9756 37.5293 27.1734 38.04C27.0008 38.4612 26.891 38.9561 26.9433 39.5037C27.0479 40.6304 26.87 41.6571 26.6922 42.4521C26.2528 42.5311 25.8187 42.6574 25.395 42.8575C22.6384 44.1474 20.0335 47.5697 19.0397 49.1966C18.6892 49.7705 18.6108 50.9867 21.9427 54.9197C23.1563 56.3518 24.443 57.6892 25.1439 58.3999H20.1329C19.9655 58.3999 19.8243 58.5368 19.8243 58.7106C19.8243 58.8843 19.9603 59.0212 20.1329 59.0212H39.1935C39.3662 59.0212 39.5022 58.8791 39.5022 58.7106C39.5022 58.5421 39.3662 58.3999 39.1935 58.3999H37.5406C37.9068 57.9156 38.4717 57.0731 39.1308 55.7674C39.5074 57.1521 40.3181 58.2315 41.563 58.9738C41.6101 59.0002 41.6677 59.0159 41.72 59.0159C41.8246 59.0159 41.9292 58.9633 41.9815 58.8633C42.0652 58.7158 42.0181 58.5263 41.8717 58.4421C40.564 57.6576 39.7898 56.4519 39.5649 54.8618C40.3391 53.1823 41.2021 50.9078 42.0129 47.8856C42.0547 47.7224 41.9606 47.5539 41.7984 47.5065C41.6363 47.4644 41.4689 47.5592 41.4218 47.7224C39.4917 54.9355 37.2059 57.8629 36.7508 58.3947H26.0122C25.6199 58.0051 23.9513 56.336 22.4083 54.5143C19.228 50.7603 19.4268 49.7389 19.5628 49.5125C20.6769 47.6856 23.219 44.5529 25.6513 43.4103C27.6913 42.4574 30.3066 43.305 31.0337 43.5788C30.8663 46.8484 30.7826 50.1601 30.7774 50.197C30.7774 50.2128 30.7826 50.2286 30.7878 50.2496C30.0869 51.5027 29.2395 53.0875 28.7008 54.3458C28.6328 54.5038 28.7008 54.6828 28.8629 54.7513C28.9048 54.767 28.9414 54.7776 28.9832 54.7776C29.1035 54.7776 29.2186 54.7091 29.2657 54.5933C30.2961 52.1714 32.514 48.4964 32.5349 48.4543C32.5349 48.4543 32.5349 48.4437 32.5401 48.4385C32.5506 48.4227 33.4607 46.7063 35.6994 42.7469C37.8126 39.0088 40.4384 38.4085 40.5849 38.3769C40.7366 38.3612 42.4836 38.1716 43.535 38.3769C43.7024 38.4085 43.8645 38.298 43.8959 38.1295C43.9273 37.961 43.8175 37.7978 43.6501 37.7662C43.4199 37.7188 43.1584 37.6925 42.8916 37.6767C43.5664 37.3555 44.3039 36.8975 44.8741 36.2762C45.5122 36.6816 47.5574 38.1137 49.6026 40.9989C51.8623 44.1896 54.5718 49.8495 54.6502 58.7053C54.6502 58.8738 54.7862 59.0107 54.9588 59.0107C55.1262 59.0107 55.2622 58.8685 55.2622 58.7C55.2256 54.7144 54.6659 51.0236 53.5989 47.7277V47.7066ZM25.0341 34.1596C25.1596 34.1807 25.3008 34.1965 25.4473 34.1965C25.9965 34.1965 26.6347 34.0017 27.0008 33.3278C27.0845 33.1803 27.027 32.9908 26.8805 32.9066C26.734 32.8276 26.5457 32.8802 26.462 33.0277C26.0593 33.7595 25.1805 33.5647 24.9661 33.5068C24.9504 33.2014 24.9661 33.0066 24.9661 32.9961C25.0498 32.4959 24.9399 31.327 24.0716 30.9006C23.4701 30.6057 23.5067 30.3162 23.5329 30.1477C23.5381 30.1056 23.6584 30.0266 23.7735 29.9897C26.8753 29.3263 27.1577 25.2722 27.1682 25.1038C27.1682 25.0932 27.1682 25.0774 27.1682 25.0669C27.1682 25.0458 27.0688 23.082 28.4863 21.3972C28.9937 21.3656 30.9971 21.3129 32.0327 22.4765C32.6343 23.1452 32.6866 23.8401 32.7389 24.4562C32.7964 25.1406 32.8487 25.8461 33.7693 26.0673C35.0979 26.3884 35.1502 27.1782 34.7527 28.942C34.5958 29.6422 34.6533 30.1687 34.9253 30.5215C35.1659 30.8321 35.4902 30.89 35.5948 30.9006C35.7831 30.9374 37.0123 31.1217 38.2886 30.3109C38.4142 30.6321 38.4089 31.0901 38.2782 31.6535C38.0951 32.4538 37.7603 33.0066 37.2948 33.2962C36.7613 33.6331 36.2068 33.5015 36.2068 33.5015C36.0499 33.4594 35.893 33.5489 35.8407 33.7016C35.6785 34.1754 35.4588 34.5703 35.2287 34.8915C35.6524 33.4805 35.4274 32.2906 34.9671 31.7061C34.7841 31.4745 34.5644 31.3376 34.3342 31.306C34.1407 30.6531 33.8687 30.353 33.4973 30.353C33.0998 30.353 32.8226 30.5952 32.6604 30.9164C32.5087 30.8795 32.357 30.9006 32.1949 30.9901C31.9281 31.1007 31.7607 31.4008 31.7294 31.4587C31.7032 31.5113 31.6718 31.5798 31.6352 31.6535C31.5986 31.6535 31.5672 31.6535 31.5358 31.664C31.1697 31.743 30.9291 32.1537 30.8977 32.7486V32.7749C30.8715 33.1698 30.8192 34.0859 30.4478 34.5282C30.0294 35.0178 28.4392 36.4499 28.0103 36.8132C27.8534 36.9501 27.6442 37.1765 27.4559 37.4714C25.7611 36.7764 25.2119 35.2337 25.0445 34.1544L25.0341 34.1596ZM27.3251 42.3521C27.4977 41.5412 27.6442 40.5356 27.5448 39.4247C27.4454 38.3506 28.1254 37.5187 28.3922 37.2871C28.7479 36.9817 30.4269 35.4864 30.8977 34.9336C31.405 34.3387 31.4678 33.312 31.494 32.8171V32.7907C31.5149 32.4538 31.6143 32.2958 31.6509 32.2695C31.7137 32.2906 31.9177 32.5222 31.9543 33.3488C31.9961 34.4018 30.9657 35.6444 30.9552 35.6602C30.8454 35.7918 30.8611 35.9866 30.9918 36.0972C31.1226 36.2077 31.3161 36.192 31.426 36.0603C31.473 36.0024 32.6238 34.6177 32.5715 33.3225C32.5453 32.6696 32.4093 32.201 32.1792 31.9273C32.2001 31.8746 32.2315 31.8114 32.2629 31.7535C32.3047 31.6745 32.3832 31.5798 32.4198 31.564C32.4512 31.5534 32.4721 31.5377 32.493 31.5271C32.493 31.5271 32.5035 31.5271 32.5035 31.5219C32.5558 31.564 32.7493 31.7851 32.9376 32.7118C33.2724 34.3808 32.1112 35.6339 32.0955 35.6497C31.9804 35.7708 31.9804 35.9656 32.106 36.0867C32.1635 36.1446 32.242 36.1709 32.3204 36.1709C32.3989 36.1709 32.4826 36.1393 32.5401 36.0761C32.5976 36.0182 33.9472 34.5808 33.5444 32.5854C33.4293 32.0273 33.3038 31.6219 33.1469 31.3534C33.1939 31.1954 33.3038 30.9743 33.4921 30.9743C33.4921 30.9743 33.8007 31.0954 33.989 32.8592C34.1459 34.3492 33.0632 35.8181 33.0527 35.8287C32.9533 35.9656 32.9743 36.1604 33.1103 36.2604C33.1678 36.3025 33.2306 36.3236 33.2933 36.3236C33.3875 36.3236 33.4764 36.2815 33.5392 36.2025C33.5915 36.134 34.7841 34.5282 34.601 32.796C34.5748 32.5538 34.5435 32.3327 34.5121 32.1273C34.8573 32.6012 35.1031 33.8385 34.3865 35.4127C33.5287 37.3081 32.0013 38.6191 31.086 39.4089C30.9447 39.5353 30.8192 39.6406 30.7146 39.7301C30.0608 40.3198 29.9352 41.8414 29.9143 42.589C29.1872 42.4205 28.2719 42.2889 27.3303 42.3573L27.3251 42.3521ZM36.0447 41.0095C36.0447 41.0095 36.0447 41.0358 36.0447 41.0516C35.7465 41.457 35.4484 41.9151 35.1607 42.4258C32.9952 46.264 32.0641 47.9962 31.9961 48.1278C31.9647 48.1805 31.7398 48.5596 31.4155 49.1177C31.4574 47.8277 31.5358 45.5795 31.6509 43.3787C31.6561 43.2471 31.5829 43.1313 31.4678 43.0786C31.426 43.0576 31.0703 42.9102 30.5263 42.7469C30.5368 41.8729 30.6937 40.5777 31.1226 40.1881C31.222 40.0986 31.3423 39.9933 31.4783 39.8775C31.902 39.5089 32.5035 38.993 33.1155 38.3348C33.1416 38.3296 35.1764 37.861 36.7403 38.8666C36.2539 40.0249 36.0656 40.9358 36.0447 41.0147V41.0095ZM33.7222 37.6188C34.0047 37.2608 34.2767 36.8711 34.5225 36.4552C34.7893 36.2762 35.7779 35.5338 36.3271 34.1491C36.62 34.1702 37.1117 34.1386 37.6034 33.8385C38.1579 33.4962 38.5606 32.9013 38.8012 32.08L40.3652 32.7539C40.3652 33.312 40.5117 33.7911 40.7052 34.186C40.4541 34.3176 40.1978 34.4703 39.9363 34.6493C38.5292 35.6181 37.593 37.0396 36.9967 38.2927C35.8459 37.5872 34.533 37.5503 33.7275 37.6188H33.7222ZM44.5864 35.6549C44.5864 35.6549 44.5864 35.6602 44.5759 35.6654C44.5759 35.6654 44.5759 35.6654 44.5707 35.6707C43.4461 37.0607 41.2178 37.6504 40.9981 37.703C40.7104 37.7241 40.5169 37.7451 40.496 37.7504C40.4908 37.7504 40.4855 37.7504 40.4803 37.7504C40.3914 37.7662 38.7699 38.0768 36.9914 39.9249C37.457 38.577 38.4456 36.4236 40.2763 35.16C41.2963 34.4545 42.1907 34.1754 42.9283 34.3334C43.6135 34.4755 43.9169 34.9547 43.9273 34.9757C43.9535 35.0178 43.9849 35.0494 44.0267 35.0758C44.3092 35.2548 44.5968 35.5496 44.5916 35.6497C44.5916 35.6497 44.5916 35.6497 44.5864 35.6602V35.6549Z" fill="#1986A0"/>
</svg>
