<svg width="12" height="6" viewBox="0 0 12 6" fill="none" xmlns="http://www.w3.org/2000/svg">
<path fill-rule="evenodd" clip-rule="evenodd" d="M0.139797 5.79046C0.348493 6.04206 0.715054 6.0712 0.958533 5.85554L6 1.39024L11.0415 5.85554C11.2849 6.0712 11.6515 6.04206 11.8602 5.79046C12.0689 5.53887 12.0407 5.16009 11.7972 4.94443L6.37788 0.144435C6.16043 -0.0481601 5.83957 -0.0481601 5.62212 0.144435L0.202776 4.94444C-0.0407026 5.16009 -0.0688996 5.53887 0.139797 5.79046Z" fill="black"/>
<path fill-rule="evenodd" clip-rule="evenodd" d="M0.139797 5.79046C0.348493 6.04206 0.715054 6.0712 0.958533 5.85554L6 1.39024L11.0415 5.85554C11.2849 6.0712 11.6515 6.04206 11.8602 5.79046C12.0689 5.53887 12.0407 5.16009 11.7972 4.94443L6.37788 0.144435C6.16043 -0.0481601 5.83957 -0.0481601 5.62212 0.144435L0.202776 4.94444C-0.0407026 5.16009 -0.0688996 5.53887 0.139797 5.79046Z" fill="#0394B3"/>
</svg>
