<svg width="22" height="26" viewBox="0 0 22 26" fill="none" xmlns="http://www.w3.org/2000/svg">
<path d="M17.0634 7.06296C17.0634 10.4114 14.3489 13.1259 11.0005 13.1259C7.65198 13.1259 4.9375 10.4114 4.9375 7.06296C4.9375 3.71448 7.65198 1 11.0005 1C14.3489 1 17.0634 3.71448 17.0634 7.06296Z" fill="white"/>
<path d="M17.0634 7.06296C17.0634 10.4114 14.3489 13.1259 11.0005 13.1259C7.65198 13.1259 4.9375 10.4114 4.9375 7.06296C4.9375 3.71448 7.65198 1 11.0005 1C14.3489 1 17.0634 3.71448 17.0634 7.06296Z" fill="#0394B3"/>
<path d="M17.0634 7.06296C17.0634 10.4114 14.3489 13.1259 11.0005 13.1259C7.65198 13.1259 4.9375 10.4114 4.9375 7.06296C4.9375 3.71448 7.65198 1 11.0005 1C14.3489 1 17.0634 3.71448 17.0634 7.06296Z" stroke="white" stroke-width="2"/>
<path d="M21 20.4776V24.7368H1V20.4776C1.00372 19.8907 1.1868 19.3191 1.52472 18.8392C1.86312 18.3587 2.34055 17.9933 2.89282 17.7923L2.89282 17.7923L2.89942 17.7899L7.24873 16.1717C8.40611 16.7723 9.69214 17.0867 10.9988 17.0867C12.3054 17.0867 13.5914 16.7723 14.7488 16.1717L19.1008 17.7899L19.1007 17.7899L19.1068 17.7921C19.659 17.9935 20.1364 18.359 20.4748 18.8395C20.8127 19.3193 20.9959 19.8908 21 20.4776Z" fill="white"/>
<path d="M21 20.4776V24.7368H1V20.4776C1.00372 19.8907 1.1868 19.3191 1.52472 18.8392C1.86312 18.3587 2.34055 17.9933 2.89282 17.7923L2.89282 17.7923L2.89942 17.7899L7.24873 16.1717C8.40611 16.7723 9.69214 17.0867 10.9988 17.0867C12.3054 17.0867 13.5914 16.7723 14.7488 16.1717L19.1008 17.7899L19.1007 17.7899L19.1068 17.7921C19.659 17.9935 20.1364 18.359 20.4748 18.8395C20.8127 19.3193 20.9959 19.8908 21 20.4776Z" fill="#0394B3"/>
<path d="M21 20.4776V24.7368H1V20.4776C1.00372 19.8907 1.1868 19.3191 1.52472 18.8392C1.86312 18.3587 2.34055 17.9933 2.89282 17.7923L2.89282 17.7923L2.89942 17.7899L7.24873 16.1717C8.40611 16.7723 9.69214 17.0867 10.9988 17.0867C12.3054 17.0867 13.5914 16.7723 14.7488 16.1717L19.1008 17.7899L19.1007 17.7899L19.1068 17.7921C19.659 17.9935 20.1364 18.359 20.4748 18.8395C20.8127 19.3193 20.9959 19.8908 21 20.4776Z" stroke="white" stroke-width="2"/>
</svg>
