<svg width="156" height="66" viewBox="0 0 156 66" fill="none" xmlns="http://www.w3.org/2000/svg">
<path d="M15.1062 12.3225C15.3289 12.2623 15.5279 12.1454 15.7101 11.9884C15.8518 11.8647 15.8686 11.6743 15.7472 11.4337C15.6493 11.2433 15.4537 10.966 15.1467 10.6218C14.9578 10.4113 14.7858 10.2777 14.6407 10.2275C14.5193 10.1941 14.4079 10.2108 14.3135 10.2944C14.1887 10.4046 14.0706 10.5115 13.9829 10.6051C14.5024 11.5106 14.8802 12.4127 15.1163 13.3215L14.4619 13.4953C14.2561 12.6199 13.9491 11.8079 13.5443 11.0796C13.3723 11.28 13.2003 11.4638 13.0046 11.7044L12.5391 11.27C12.7381 11.0328 12.954 10.7822 13.18 10.545C12.9877 10.2242 12.7887 9.93351 12.5694 9.62946L13.0923 9.24522C13.3183 9.54927 13.4937 9.82659 13.6422 10.0738C13.7096 9.99366 13.7906 9.91681 13.8952 9.82659C14.1516 9.60273 14.4282 9.5192 14.7082 9.56932C14.9949 9.62946 15.3053 9.83996 15.6325 10.2075C16.0609 10.6886 16.3308 11.0762 16.4387 11.3736C16.6006 11.8046 16.5062 12.1755 16.1621 12.4762C15.9698 12.6432 15.7674 12.7635 15.5549 12.827L15.113 12.3292L15.1062 12.3225ZM16.9009 10.2376C16.2802 9.7464 15.565 9.38221 14.779 9.1383L15.0286 8.55359C15.818 8.77077 16.5366 9.1216 17.1809 9.60607L16.9009 10.2376Z" fill="#138DA9"/>
<path d="M19.1561 9.53254C19.6149 9.10152 19.8477 8.68053 19.878 8.25285C19.905 7.86861 19.7532 7.42089 19.4192 6.91636C19.1899 6.56887 18.9976 6.35504 18.8458 6.24812C18.694 6.14454 18.5624 6.13786 18.4275 6.22807C18.2082 6.37174 18.1036 6.67913 18.1239 7.16695C18.1475 7.68818 18.3229 8.20273 18.6467 8.72396L18.1407 9.0514C17.9552 8.81083 17.6887 8.43328 17.3986 7.99223C17.0882 7.52112 16.8116 6.98653 16.5586 6.38845L17.0882 6.0844C17.3244 6.60897 17.4795 6.92973 17.6145 7.13688C17.5774 6.79942 17.601 6.53212 17.6853 6.28487C17.7831 6.00755 17.9282 5.81042 18.1475 5.66674C18.7209 5.29587 19.3315 5.60994 19.9624 6.56553C20.384 7.20371 20.5797 7.78174 20.5325 8.30631C20.5089 8.83422 20.2491 9.35879 19.7498 9.87668L19.1527 9.53254H19.1561Z" fill="#138DA9"/>
<path d="M22.9276 7.41079C23.2785 7.05328 23.4842 6.77262 23.5618 6.53873C23.3527 6.57214 23.0558 6.57882 22.6746 6.53539L22.7151 5.90724C23.0761 5.94399 23.3662 5.94733 23.6057 5.89387C23.518 5.55307 23.3189 5.05857 23.012 4.41037C22.3238 4.95833 22.1045 5.82037 22.3676 6.98645L21.9021 7.22702C21.666 6.78598 21.4231 6.32489 21.2207 5.89722C21.0048 5.43613 20.8192 4.9316 20.6641 4.3803L21.2679 4.14641C21.4467 4.74783 21.5985 5.18888 21.7334 5.47622C21.8684 4.78793 22.1686 4.28006 22.7455 3.86241C22.6375 3.63187 22.5194 3.39798 22.371 3.11732L22.958 2.84668C23.103 3.10061 23.2211 3.32782 23.3088 3.51492C23.7103 3.32782 24.0982 3.29774 24.476 3.42137C24.8707 3.54499 25.1743 3.82566 25.3801 4.26336C25.5791 4.68769 25.5656 5.0853 25.3396 5.46954C25.1305 5.83039 24.7695 6.12442 24.2567 6.36165C24.1657 6.84946 23.9194 7.31389 23.4741 7.76162L22.9175 7.42081L22.9276 7.41079ZM24.7931 5.17217C24.9011 4.95833 24.8943 4.75118 24.7931 4.52731C24.6649 4.25668 24.4996 4.08293 24.2804 4.01611C24.0712 3.94928 23.8216 3.96933 23.5787 4.05286C23.9127 4.7612 24.1117 5.28243 24.2095 5.68004C24.4861 5.55307 24.6885 5.38935 24.7965 5.16883L24.7931 5.17217Z" fill="#138DA9"/>
<path d="M30.1216 3.55503C30.017 4.05622 29.8517 4.5006 29.6257 4.84474C29.3525 5.23567 29.0117 5.50631 28.5934 5.62993C28.192 5.75022 27.8513 5.74688 27.5544 5.61323C27.2272 5.46287 27.0113 5.17218 26.8831 4.75119L25.9453 1.67392L26.5694 1.48682L27.4836 4.48723C27.5645 4.75787 27.6961 4.92159 27.8682 5.01515C28.0132 5.08865 28.192 5.08865 28.4079 5.02517C28.6845 4.94164 28.9207 4.74451 29.1231 4.41707C29.2985 4.10968 29.4334 3.74214 29.5076 3.28774L30.1216 3.55169V3.55503Z" fill="#138DA9"/>
<path d="M34.5861 1.29639C34.8357 2.92357 34.1678 3.9794 32.6734 4.59418L32.1876 4.11304C33.5269 3.59516 34.1442 2.69303 33.9519 1.45009L31.5534 1.81094L31.7356 3.0071L31.1047 3.10065L30.8281 1.28971L32.3428 1.06251L32.1944 0.0968954L32.8286 0L32.977 0.965613L34.4984 0.73841L34.5827 1.29305L34.5861 1.29639Z" fill="#138DA9"/>
<path d="M39.7661 3.78893L36.0453 3.84908L36.0352 3.26102L37.5768 3.23429L37.5532 1.89446L36.3792 1.91451L36.3691 1.31643L39.3546 1.26965L39.3647 1.86773L38.1773 1.88778L38.2009 3.22761L39.7527 3.20088L39.7628 3.78893H39.7661Z" fill="#138DA9"/>
<path d="M43.0544 1.97127C42.906 3.07721 42.2279 3.84235 41.0303 4.22659L40.7031 3.63186C41.7151 3.33449 42.3055 2.75312 42.4202 1.88774L42.5045 1.25625L43.1354 1.33978L43.051 1.97127H43.0544ZM45.3551 1.1226C44.7951 1.68058 44.2182 2.14501 43.6886 2.46911L43.3445 1.89442C43.7561 1.65385 44.09 1.39658 44.3666 1.11926L41.0101 0.681557L41.0911 0.0667725L44.9941 0.57798L45.3517 1.12928L45.3551 1.1226Z" fill="#138DA9"/>
<path d="M45.9739 2.30542L46.6891 2.46914L46.5238 3.17748L45.8086 3.01376L45.9739 2.30542Z" fill="#138DA9"/>
<path d="M51.3208 4.4505C50.2784 5.19225 48.9493 5.4562 47.5156 5.25239L47.5595 4.5073L47.6303 4.51398L48.6929 1.3866L49.3069 1.59041L48.2881 4.59083C49.2496 4.65431 50.238 4.40706 51.0881 3.83571L51.3208 4.4505Z" fill="#138DA9"/>
<path d="M56.1608 6.4085C54.7878 7.02997 53.2698 7.17364 51.8125 6.82949L51.8226 6.15122C53.2901 6.49871 54.7845 6.35838 56.0866 5.73357L56.1642 6.4085H56.1608ZM53.8602 4.90829C53.7016 4.42047 53.4756 3.97943 53.2226 3.53171L53.8365 3.29114C54.1098 3.7422 54.3088 4.17656 54.4842 4.64767L53.8602 4.90495V4.90829Z" fill="#138DA9"/>
<path d="M60.6908 8.33968C59.2436 9.42892 57.675 9.78643 56.1097 9.44229L56.0625 8.77738C56.7304 8.93442 57.3815 8.95447 58.0832 8.84755C58.0191 8.54016 57.8976 8.16928 57.7121 7.81511L58.3193 7.67812C58.515 8.01224 58.6432 8.35973 58.7207 8.66712C59.1121 8.55686 59.554 8.32966 59.9757 8.0657L58.6971 7.18028C58.1169 7.42753 57.4928 7.60127 56.7945 7.63803L56.7034 7.00653C57.7256 6.97646 58.6027 6.65905 59.3111 6.02087L59.807 6.43519C59.6147 6.56883 59.4359 6.68912 59.274 6.82277L60.6132 7.74829L60.6874 8.33634L60.6908 8.33968Z" fill="#138DA9"/>
<path d="M59.6825 10.9492C60.4382 11.0161 61.1601 10.7187 61.774 10.0671L62.7759 9.00464L63.2516 9.44234L62.2362 10.5216C61.4839 11.3201 60.5933 11.691 59.6016 11.6308C59.6319 11.4036 59.6623 11.1798 59.6825 10.9526V10.9492ZM63.8824 13.1544C62.9041 13.3616 61.9663 13.2914 61.1331 12.9707C61.2208 12.7234 61.295 12.4895 61.376 12.2456C61.3996 12.2523 61.43 12.2657 61.4502 12.2757L63.8217 9.75641L64.2906 10.1908L62.1114 12.5029C62.7085 12.6332 63.3832 12.6466 64.0039 12.4929L63.8824 13.1511V13.1544Z" fill="#138DA9"/>
<path d="M102.766 65.1739H98.313L96.1135 59.006H86.4926L84.3774 65.1739H79.9414L89.1002 40.9467H93.6712L102.763 65.1739H102.766ZM95.0374 55.7282L91.6438 46.0654C91.5426 45.7513 91.4346 45.2435 91.3199 44.5452H91.2525C91.1512 45.1867 91.0366 45.6945 90.9117 46.0654L87.5518 55.7282H95.0408H95.0374Z" fill="#138DA9"/>
<path d="M119.496 65.1739H115.539V55.4242C115.539 52.1932 114.385 50.5761 112.074 50.5761C110.87 50.5761 109.875 51.0238 109.089 51.9193C108.303 52.8147 107.911 53.944 107.911 55.3073V65.1739H103.938V47.873H107.911V50.7465H107.979C109.288 48.5613 111.173 47.4688 113.643 47.4688C115.542 47.4688 116.993 48.0802 117.991 49.3031C118.993 50.526 119.492 52.2901 119.492 54.5989V65.1772L119.496 65.1739Z" fill="#138DA9"/>
<path d="M138.132 65.1739H134.175V55.4242C134.175 52.1932 133.022 50.5761 130.711 50.5761C129.507 50.5761 128.511 51.0238 127.725 51.9193C126.939 52.8147 126.548 53.944 126.548 55.3073V65.1739H122.574V47.873H126.548V50.7465H126.616C127.924 48.5613 129.81 47.4688 132.28 47.4688C134.179 47.4688 135.629 48.0802 136.628 49.3031C137.63 50.526 138.129 52.2901 138.129 54.5989V65.1772L138.132 65.1739Z" fill="#138DA9"/>
<path d="M156.001 57.5892H144.092C144.136 59.1897 144.636 60.4226 145.584 61.288C146.531 62.1567 147.837 62.5877 149.497 62.5877C151.362 62.5877 153.073 62.0364 154.631 60.9305V64.0913C153.039 65.0836 150.934 65.5781 148.319 65.5781C145.705 65.5781 143.735 64.7929 142.271 63.2225C140.81 61.6522 140.078 59.4403 140.078 56.5902C140.078 53.8972 140.881 51.7053 142.493 50.008C144.103 48.314 146.103 47.4653 148.488 47.4653C150.873 47.4653 152.725 48.2271 154.031 49.7474C155.339 51.2676 155.994 53.3793 155.994 56.0823V57.5859L156.001 57.5892ZM152.179 54.8194C152.168 53.4127 151.831 52.3168 151.173 51.5349C150.512 50.7531 149.605 50.3622 148.444 50.3622C147.284 50.3622 146.343 50.7731 145.553 51.5951C144.764 52.417 144.278 53.4929 144.096 54.8227H152.182L152.179 54.8194Z" fill="#138DA9"/>
<path d="M92.105 33.2852C92.078 33.4589 91.9667 33.7396 91.7744 34.1238C91.5821 34.5081 91.2886 34.889 90.8939 35.2632C90.5026 35.6374 90.1214 35.9248 89.7571 36.1252L89.2646 35.4737C89.5851 35.2933 89.8887 35.0527 90.1754 34.7553C90.4621 34.4546 90.6882 34.1573 90.8467 33.8599H86.2656V33.048H91.8149L92.105 33.2885V33.2852ZM89.2848 34.1539V34.3076C89.2848 34.7386 89.2781 35.0928 89.2612 35.3768C89.2443 35.6608 89.187 35.9615 89.0858 36.2823C88.9846 36.603 88.826 36.9004 88.6068 37.1777C88.3875 37.455 88.1143 37.6923 87.7904 37.8894C87.4666 38.0865 87.0854 38.2469 86.6502 38.3672L86.3061 37.6054C87.0921 37.3648 87.6217 37.0207 87.9017 36.5763C88.1817 36.1319 88.32 35.5238 88.32 34.7553L88.3133 34.1506H89.2815L89.2848 34.1539Z" fill="#138DA9"/>
<path d="M95.6969 34.291L95.1167 35.0695C94.803 34.869 94.5264 34.7019 94.2835 34.5683C94.0406 34.4313 93.4941 34.1506 92.6406 33.7263L93.1433 33.0079C93.8078 33.2685 94.6579 33.6996 95.6969 34.2943V34.291ZM98.2708 35.0561C97.7345 36.0384 97.0328 36.7869 96.1658 37.3047C95.2989 37.8193 94.2059 38.1434 92.8801 38.2704L92.6642 37.3916C93.3862 37.3281 93.99 37.2179 94.4724 37.0642C94.9548 36.9105 95.3765 36.71 95.7408 36.4628C96.1051 36.2155 96.4121 35.9616 96.6685 35.7043C96.9215 35.447 97.2015 35.0661 97.5085 34.5549L98.2708 35.0561Z" fill="#138DA9"/>
<mask id="mask0_663_27396" style="mask-type:luminance" maskUnits="userSpaceOnUse" x="19" y="35" width="41" height="29">
<path d="M48.0112 37.8762C48.4396 37.4217 47.3129 36.7101 47.3129 36.7101C47.3129 36.7101 46.0175 34.5717 42.715 36.8103C39.4124 39.0489 38.4779 43.6431 38.4779 43.6431L38.4948 43.7266C38.1406 44.1911 37.7864 44.7156 37.4423 45.3137C34.8886 49.7575 33.88 51.632 33.88 51.632C33.88 51.632 33.3402 52.5107 32.642 53.7303L32.5441 53.7503C32.5441 53.7503 32.6453 49.9179 32.841 46.1824C32.841 46.1824 29.1404 44.5954 26.2797 45.9118C23.419 47.2316 20.5314 50.7766 19.2731 52.8014C18.0148 54.8295 26.6946 63.1592 26.6946 63.1592H39.0784C39.0784 63.1592 40.249 61.9797 41.7333 58.8457C41.9424 60.4595 42.6846 62.0833 44.5197 63.1592H59.4302C59.2582 43.9438 48.0112 37.8728 48.0112 37.8728V37.8762Z" fill="white"/>
</mask>
<g mask="url(#mask0_663_27396)">
<path d="M42.803 42.9382C42.8131 42.7377 42.6208 42.6675 42.4724 42.6976C41.8146 42.8346 42.7726 43.5262 42.803 42.9382Z" fill="#138DA9"/>
<path d="M41.7807 42.9648C41.7706 42.7543 41.5918 42.7209 41.4197 42.7577C40.6978 42.9181 41.811 43.603 41.7807 42.9648Z" fill="#138DA9"/>
<path d="M42.2905 43.8001C42.3277 44.2579 43.117 43.9638 42.7392 43.5328C42.4592 43.4259 42.2703 43.5996 42.2905 43.8001Z" fill="#138DA9"/>
<path d="M41.2438 44.1277C41.7229 43.7568 40.8998 43.3458 40.8829 43.8604C40.8795 44.0241 40.9875 44.1577 41.2438 44.1277Z" fill="#138DA9"/>
<path d="M41.9603 44.6021C42.0413 44.4952 42.129 44.4183 42.0784 44.2446C41.9131 43.6699 41.1406 44.6489 41.9603 44.6021Z" fill="#138DA9"/>
<path d="M38.42 49.5972C38.9901 49.5404 39.0474 48.8788 39.1419 48.4378C39.4792 46.8474 40.1067 45.5744 40.8826 44.5152C40.8826 44.4952 40.8792 44.4785 40.8522 44.4851C39.8368 45.3472 39.098 46.7171 38.5718 48.0836C38.4031 48.5247 38.113 49.1294 38.42 49.6005V49.5972Z" fill="#138DA9"/>
<path d="M40.1322 47.4855C40.7832 47.275 41.6131 46.6636 42.4699 46.7438C42.5947 46.7571 42.7769 46.7772 42.8309 46.9242C42.5273 47.4722 41.775 47.6192 41.1813 47.9032C40.7259 48.1204 40.3379 48.4044 40.0107 48.7051C39.9196 48.7886 39.751 48.8688 39.7712 49.0024C41.0059 48.5781 42.5138 48.6917 43.4921 49.1194C43.7788 49.2463 44.3253 49.4335 44.693 49.3566C44.9831 49.2965 45.1855 48.8521 45.2024 48.5581C45.226 48.1905 44.9291 47.6426 45.0202 47.1915C45.0776 46.9142 45.3441 46.687 45.3205 46.4497C45.3002 46.2426 45.0742 45.9753 44.9595 45.855C44.6255 45.4875 43.8901 45.1801 43.2188 45.2603C41.7548 45.434 40.6112 46.3996 40.1288 47.4889L40.1322 47.4855Z" fill="#138DA9"/>
<path d="M32.2106 51.3179C32.413 51.7823 32.72 52.1031 33.3812 52.0329C33.9715 51.9661 34.5484 51.5651 34.9701 51.2009C35.4154 50.8167 35.7999 50.232 36.4712 50.3389C35.9517 51.6787 33.6612 52.2267 33.9209 54.2014C33.9749 54.6257 34.4573 54.6825 34.7002 54.9765C34.9465 55.5178 35.2231 56.1192 35.8404 56.2228C36.8558 56.3932 37.3011 55.5345 38.0905 55.5379C38.4649 55.5412 38.7989 55.6815 39.0823 55.4811C39.45 55.2204 39.6153 54.589 39.6524 54.0811C39.7603 52.6009 38.9001 51.3847 38.3637 50.4258C38.4177 51.074 38.6471 52.2267 38.1242 52.5341C38.0399 52.2234 37.9353 51.9293 37.7633 51.7021C37.8408 52.2501 37.797 52.9217 37.3719 53.0687C37.0852 52.8749 37.1459 52.19 37.1324 51.8224C36.704 52.5809 36.5117 53.5665 35.5436 53.7871C35.493 52.4272 36.2081 51.6353 36.8322 50.8769C37.0447 50.6162 37.3753 50.4091 37.4327 50.0449C37.0953 50.0248 36.8828 49.8711 36.623 49.8377C35.4727 49.674 35.1927 50.4592 34.3426 50.3991C34.599 49.7709 35.1387 49.4301 35.8134 49.2096C35.4052 48.8621 34.7373 48.7719 34.2853 48.4678C35.2467 47.8865 36.6028 48.2473 37.2572 48.7351C37.3652 48.8153 37.436 48.9724 37.5575 48.9423C37.4731 47.3318 36.6804 46.266 36.2081 45.14C36.8727 45.2536 37.1797 45.7247 37.5878 46.0922C37.689 45.6211 37.6553 44.9662 37.5878 44.4851C38.2355 44.9462 38.3975 45.8851 38.4582 46.9242C38.809 46.4698 38.7449 45.8784 39.0283 45.3772C39.2307 45.0164 39.5782 44.7758 39.5073 44.1877C39.4398 43.5997 38.9676 43.1553 38.6066 42.8512C38.2726 42.5672 37.6587 42.0928 37.1695 42.0159C36.7209 41.9491 36.1609 42.1496 35.8775 42.3434C35.5368 42.5739 35.4592 43.045 35.159 43.2321C34.933 43.3725 34.6631 43.319 34.4674 43.4126C33.8535 43.6999 33.8231 44.4383 34.2279 44.9562C34.4303 45.2202 34.7744 45.4908 35.0679 45.7882C35.4963 46.2225 36.1778 46.5266 36.1474 47.2449C35.8303 47.265 35.6717 47.001 35.4558 46.8574C34.9397 46.5166 33.6477 46.149 33.0574 46.5934C32.9561 46.6703 32.8853 46.9008 32.7268 46.981C32.6053 47.0411 32.3456 46.9977 32.2174 47.1013C31.9576 47.3017 32.1735 47.706 32.0959 48.0802C31.9981 48.5814 31.4415 48.8387 31.2559 49.2397C30.8107 50.2086 31.4516 51.0372 32.2174 51.3212L32.2106 51.3179Z" fill="#138DA9"/>
<path d="M39.4727 51.0807C39.7796 51.5651 40.3126 52.1265 40.4037 52.9518C40.4611 53.483 40.4543 53.9942 40.6129 54.4386C40.8085 54.9699 41.6316 55.2104 42.3232 54.9131C42.62 54.7861 42.728 54.4754 43.0755 54.3785C43.4364 54.2715 43.8142 54.4353 44.1246 54.3183C44.4383 54.2014 44.7284 53.8205 44.7554 53.4262C44.7723 53.1489 44.607 52.9718 44.6643 52.6243C44.7183 52.327 44.9308 52.2635 44.9646 51.9394C45.0354 51.2578 44.6036 50.5962 44.155 50.2454C43.207 49.5036 41.1729 49.5671 39.9551 49.9179C41.1088 50.1017 42.168 50.379 42.4143 51.4649C41.7834 51.2945 41.382 50.9002 40.6432 50.8401C40.8119 51.1709 41.5102 51.6687 41.2133 52.2668C40.6028 51.9193 40.144 51.2644 39.4727 51.0773V51.0807Z" fill="#138DA9"/>
<path d="M58.7918 49.8345C57.9148 49.6507 56.6329 49.6808 56.643 48.8989C57.1928 48.3743 57.9451 49.5104 58.8795 49.5839C59.8848 49.6641 60.5224 48.9557 60.9609 48.0369C60.0434 47.6059 59.4901 46.6904 58.4039 46.6269C57.2097 46.5534 56.9871 47.7395 55.8941 47.8498C56.6025 48.1137 57.3042 47.6794 58.0868 47.7395C58.441 47.7629 59.3822 47.9266 59.3417 48.2307C59.3012 48.5648 57.8473 48.5214 57.3514 48.4211C56.9263 48.3376 56.3967 48.0269 56.0931 48.2975C55.5534 50.633 59.5036 50.0249 59.8241 51.8726C58.107 52.1098 57.6179 50.1853 56.1909 50.202C56.029 51.0807 56.1909 51.612 56.5485 52.1466C57.1186 52.9986 58.3837 53.2091 57.9755 54.7661C57.1085 54.5523 57.1591 52.3504 56.2652 52.2635C55.8873 52.2268 55.6377 52.7213 55.5601 53.1122C55.3408 54.1914 56.0864 55.441 55.7254 56.3933C55.1486 56.0692 55.6714 54.9298 55.1958 54.5322C54.3693 55.4644 53.8329 56.7775 52.5881 57.1618C54.6324 55.9021 56.2213 52.1232 55.6343 48.919C55.5736 48.5815 55.4657 48.2073 55.3611 47.8798C55.2599 47.5658 55.2093 47.0646 54.7876 47.0612C54.5784 47.1214 54.7775 47.529 54.4536 47.539C54.1635 47.5491 53.9105 46.7438 53.5833 46.5734C52.4161 45.9687 51.1308 46.8173 50.8576 47.8197C52.045 47.9433 52.3756 49.3132 53.644 49.477C54.2748 49.5571 54.5009 49.2999 55.1081 49.2631C55.5804 49.6206 55.1418 50.055 54.5717 50.0282C53.725 49.9848 52.4869 49.0292 51.458 49.5371C50.753 49.8846 50.8677 50.2588 50.4258 51.1776C50.4494 51.2445 50.6923 51.0841 50.9014 51.1943C51.6335 51.5351 52.2238 51.9829 53.1245 51.9795C54.0218 51.9795 54.5616 51.034 55.3982 51.3013C55.3307 51.9528 54.9563 52.2702 54.5009 52.3805C53.7216 52.5743 52.6725 51.9862 51.8763 52.17C51.0971 52.3504 50.9183 53.0053 50.4932 53.6568C51.1747 53.9341 51.5761 54.4821 52.3284 54.5489C53.1886 54.6258 53.7182 53.9208 54.43 53.9508C54.204 55.3174 52.4701 55.0033 51.6132 55.8152C51.1713 56.2329 51.0769 56.8143 50.9588 57.7732C51.2287 57.9737 51.6267 58.0739 51.9573 58.231C52.2171 58.2677 52.4768 58.3078 52.7366 58.3412C53.3303 58.251 53.8127 58.0505 54.1264 57.536C54.5042 56.9245 54.4064 55.8888 55.1013 55.5713C55.1553 56.4267 54.4334 57.9135 55.5163 58.2076C56.0695 57.8634 56.6092 57.4725 56.616 56.4701C56.6227 55.4611 55.5837 54.4888 56.2888 53.5866C57.1355 54.2783 56.6632 55.9489 58.2082 56.1193C58.9436 55.1403 59.0212 53.6334 58.4174 52.8349C57.9046 52.1633 56.7948 52.0029 56.7071 51.0674C56.815 51.0674 56.8285 50.9437 56.9398 50.9437C57.935 51.3581 58.4511 53.0855 59.7195 53.0186C60.3166 52.9886 60.7585 52.5743 61.2139 52.2301C60.8935 50.927 60.2964 50.1519 58.7986 49.8378L58.7918 49.8345ZM53.2493 47.7896C53.8194 47.7963 54.1264 48.3576 54.9799 48.2975C54.7336 48.9323 52.7737 48.6918 53.2493 47.7896ZM53.0132 50.9137C53.1852 49.9146 54.7943 50.8101 55.3746 50.3523C54.8989 50.8569 53.8565 51.4984 53.0132 50.9137ZM52.4937 53.4162C52.8513 52.6411 54.2546 53.2458 54.8652 52.8048C54.3288 53.2659 53.2628 53.8606 52.4937 53.4162Z" fill="#138DA9"/>
<path d="M47.999 35.4571C48.252 35.5707 48.4106 35.3135 48.6939 35.3201C48.8829 35.4571 49.2843 35.8113 49.0212 36.102C48.8188 36.0719 48.8289 35.8314 48.5556 35.8714C48.5017 35.9249 48.505 36.0352 48.5084 36.1488C48.8592 36.1555 49.5238 36.3091 49.2067 36.7936C49.0785 36.6566 48.6096 36.4528 48.6029 36.8404C48.7041 37.0008 49.0853 36.8805 49.2539 36.9774C49.372 37.9798 48.9166 38.9921 48.5084 39.7372C48.3026 40.1115 47.827 41.1071 48.6939 40.9301C49.2236 40.8265 49.625 39.2561 49.6689 38.6346C49.706 38.1034 49.5171 37.5086 49.7633 37.3015C49.8274 37.1511 50.1985 37.3048 50.2289 37.1177C50.3537 37.0509 50.2086 36.8671 50.0905 36.8872C49.8611 36.8772 49.8308 37.2514 49.625 37.1177C49.2607 36.66 50.0399 36.5932 50.1344 36.2891C50.0568 36.229 49.9792 36.1688 49.8139 36.1989C49.6486 36.2356 49.7566 36.543 49.5339 36.5196C48.9706 36.1621 49.7768 35.8982 49.8139 35.554C49.7195 35.554 49.7532 35.4271 49.625 35.4638C49.3821 35.4538 49.5339 35.8347 49.3012 35.8314C49.0313 35.7712 48.8964 35.1264 49.1629 34.9593C49.2472 34.8591 49.544 34.966 49.6284 34.8657C49.6486 34.555 49.399 34.5116 49.0718 34.545C48.7648 34.0638 48.4173 34.5784 48.0496 34.6853C48.1205 35.0328 47.8944 35.2199 48.0024 35.4672L47.999 35.4571Z" fill="#138DA9"/>
<path d="M43.5452 40.6995C43.6228 40.8966 44.5539 41.8956 44.7529 41.9424C45.549 42.1262 46.362 41.1773 47.121 40.8866C47.3268 40.8064 47.5157 40.9467 47.6304 40.656C47.0603 40.5224 46.6285 40.9166 46.0517 40.93C45.5659 40.6794 45.9977 40.2851 46.2844 40.1515C46.3789 39.931 46.2338 39.7572 46.3317 39.5501C46.868 39.1157 47.0941 39.8809 47.7249 39.7806C47.9475 39.3529 46.5138 37.8594 47.3538 37.7124C48.0386 37.5921 47.9307 38.9754 48.2815 39.3696C48.7302 38.1768 48.0926 36.4093 47.3066 36.1955C47.0772 36.132 46.8141 36.2423 46.6117 36.1955C46.3114 36.1253 45.9741 35.6676 45.775 36.1521C45.7447 36.426 45.9134 36.5029 45.8695 36.7969C45.4917 36.9205 45.1139 36.9707 45.124 37.395C45.1543 38.3606 47.3774 38.2737 47.2593 39.3262C46.5745 39.2026 45.7346 37.7959 44.8001 38.3606C44.5539 38.511 44.4662 38.8919 44.5674 39.3262C44.2132 39.5868 43.6835 39.677 43.5014 40.1081C43.5047 40.2618 43.4811 40.5357 43.5486 40.7061L43.5452 40.6995Z" fill="#138DA9"/>
<path d="M49.7211 39.5969C49.9403 39.6002 49.8729 39.3196 49.9977 39.2293C50.4126 38.9019 50.7331 38.4842 51.4854 38.4909C52.0757 39.3697 50.0618 39.6069 49.7683 40.195C50.7331 39.5601 52.8111 40.5725 53.1113 39.2761C53.054 39.1024 52.946 38.9787 52.9258 38.7716C53.5971 38.2938 53.199 37.0007 52.0892 37.3917C51.9576 37.3081 51.9104 37.1411 51.8092 37.0241C50.7634 36.9005 50.2203 37.6623 49.9066 38.4041C49.7514 38.7616 49.4883 39.3596 49.7211 39.5969Z" fill="#138DA9"/>
<path d="M51.0194 43.9639C51.4782 44.3348 52.0281 44.1209 52.3216 43.6899C53.7418 43.9672 53.5394 42.2532 52.5982 41.9859C54.0218 40.6394 50.419 39.7038 49.3968 40.6995C50.0681 40.5559 50.9351 40.606 51.205 41.1138C51.124 41.2508 50.844 41.1873 50.8339 41.3912C50.9351 41.7219 51.3939 41.6952 51.2994 42.2198C51.2185 42.2599 51.1645 42.33 51.0667 42.3568C50.3616 42.016 50.0344 41.2976 49.1641 41.1138C49.3429 41.4947 49.7207 41.7687 50.0479 42.2666C50.4257 42.8379 50.6045 43.6298 51.0228 43.9672L51.0194 43.9639Z" fill="#138DA9"/>
<path d="M49.4877 44.7925C49.653 44.6622 50.0511 44.5787 50.2299 44.3314C50.9787 43.3123 49.5653 41.8489 48.8839 41.3878C48.8231 41.9525 49.3157 41.9725 49.2583 42.5372C49.1639 42.5539 49.1672 42.6641 49.0694 42.6775C48.8434 42.7009 48.8535 42.4403 48.6983 42.6307C48.6477 43.0684 48.7186 43.5395 48.28 43.5496C47.7504 43.5629 47.8381 42.8512 48 42.3534C47.6694 42.5071 47.3085 42.5706 47.2106 42.2632C47.0386 41.7119 47.8955 41.5047 48.0473 41.1572C46.6945 40.5558 44.5625 43.172 46.283 43.9171C46.5798 44.0441 46.9779 44.0006 47.1196 44.2379C47.4232 44.7491 47.4535 45.2603 48.1417 45.3872C48.8299 45.5175 49.0525 45.1366 49.4877 44.7892V44.7925Z" fill="#138DA9"/>
<path d="M44.797 64.8031C44.0852 65.0938 43.1306 65.3878 42.7392 64.8465C42.8337 64.7062 42.9821 64.5959 43.0159 64.4222C42.665 64.332 41.8318 63.7439 42.4862 63.4399C43.0597 63.1759 44.1999 64.6494 44.9218 64.0847C44.6351 63.774 44.2404 63.7372 43.7951 63.3931C43.1002 62.8652 42.5537 61.8528 41.987 61.5955C41.3595 61.3182 40.7118 61.7058 40.5735 62.2437C40.0068 62.4743 39.4738 62.7449 39.4805 63.1926C39.494 64.0079 40.2665 64.068 40.7152 64.4222C39.8718 66.3835 43.9199 66.1596 44.797 64.7997V64.8031Z" fill="#138DA9"/>
<path d="M46.3449 63.8341C47.5391 63.5501 48.9424 61.9263 48.3217 60.68C48.0181 60.0686 47.2996 60.0018 46.5271 60.0753C46.183 59.8681 45.8996 59.5473 45.6297 59.2032C45.1237 59.0395 44.7088 58.8992 44.169 59.123C43.7001 59.3235 43.6259 59.701 43.41 60.0318C43.1604 60.4194 42.7387 60.7435 42.6679 60.9908C42.29 62.3105 44.2972 63.5201 45.2317 63.7573C45.0967 63.1091 44.5266 63.2594 44.4119 62.5778C44.4389 62.374 44.8842 62.3907 44.9955 62.2337C44.8134 61.7258 44.7425 61.238 45.2384 61.1378C45.8018 61.0242 45.8591 61.6991 45.9367 62.2972C46.2234 62.2304 46.3112 61.9764 46.6046 62.0399C47.394 62.6681 46.2909 63.1826 46.3415 63.8275L46.3449 63.8341Z" fill="#138DA9"/>
<path d="M50.792 62.3974C50.2928 62.1 49.9723 61.7325 49.6248 61.7759C48.8625 61.8661 48.4037 62.678 48.0157 63.1057C47.6683 63.49 47.2567 63.7539 47.0071 64.1448C47.6953 64.1849 48.3396 62.942 48.9738 63.6169C48.687 64.078 48.596 64.5057 48.6668 65.0737C48.2923 65.5348 47.6008 64.9902 47.2162 65.2207C46.8755 65.8121 49.3314 67.0718 48.1237 67.456C47.3444 67.7066 47.2601 66.1462 46.582 65.9792C46.609 67.2255 47.4591 68.7357 48.3699 69.0331C48.7849 69.17 49.1897 68.9529 49.662 68.9328C49.9622 68.9194 50.2287 69.1867 50.448 68.8693C50.5593 68.5753 50.4311 68.3782 50.2995 68.004C50.4345 67.7133 50.8764 67.5796 50.9304 67.2455C50.566 66.4269 49.726 66.4102 48.9738 66.2899C48.4981 66.2164 47.7762 66.2565 47.7762 65.5649C48.4442 65.478 49.2909 66.2799 50.0398 66.1997C50.8292 66.1195 51.325 65.5682 50.8696 64.7596C51.0653 64.1081 51.8108 64.0479 51.7805 63.4064C51.7467 62.6647 51.1901 62.6346 50.7853 62.394L50.792 62.3974Z" fill="#138DA9"/>
<path d="M47.9476 57.5493C47.7553 56.8142 46.8208 55.3975 46.0922 55.598C45.8156 55.6749 45.0565 56.5302 44.8643 57.0448C44.6956 57.4892 44.7428 58.0572 45.0093 58.4815C45.576 58.5517 45.9876 58.9092 46.3249 59.4003C46.9355 58.7622 45.8459 57.2185 46.3081 56.5002C47.4888 57.2686 46.9389 59.0094 46.5206 59.8547C47.5394 59.4939 48.2478 58.692 47.9476 57.5526V57.5493Z" fill="#138DA9"/>
<path d="M52.3645 58.8524C51.6189 58.7354 49.5746 58.0638 48.4985 58.8056C48.2253 58.9927 47.8711 59.4872 48.0128 59.8614C48.4311 60.9607 50.5462 59.5674 51.4874 59.5674C51.6156 60.4829 50.0604 60.69 49.2575 60.7435C50.3607 62.1334 52.7322 60.4896 52.4117 59.0094C52.3948 58.9559 52.3813 58.9058 52.3645 58.8524Z" fill="#138DA9"/>
<path d="M25.4278 47.823C25.3603 48.0168 25.2794 48.244 25.3266 48.4345C25.475 48.3576 25.4514 48.1505 25.5493 47.9901C25.7685 47.6292 26.2475 47.1848 26.5815 47.2784C26.6962 47.3753 26.5275 47.6259 26.7198 47.7295C26.8952 47.823 27.0268 47.5624 27.2123 47.5691C27.4755 47.5791 27.6678 47.8397 27.5632 48.0402C27.462 48.234 27.1887 48.2106 27.0673 48.244C26.5478 48.381 26.0418 48.4211 25.6066 48.9089C25.9979 49.0325 26.2914 48.7819 26.7232 48.7686C27.0572 48.7586 27.4147 48.8154 27.7555 48.8655C28.2952 48.9423 28.9868 49.1294 29.3511 48.5781C29.54 48.2975 29.4759 48.0536 29.3781 47.8063C29.6581 47.3352 29.8031 46.8908 29.4928 46.5467C29.4219 46.5032 29.3511 46.4598 29.2836 46.413C29.1487 46.3863 29.0745 46.3295 28.9598 46.3195C28.6933 46.2894 28.3458 46.6035 28.1569 46.5032C28.0051 46.423 28.0759 46.1491 27.8837 46.0121C27.7757 45.9352 27.6138 45.9052 27.4991 45.9018C26.649 45.8784 25.7786 46.7772 25.4244 47.823H25.4278Z" fill="#138DA9"/>
<path d="M24.5291 47.6726C24.637 47.3719 24.357 47.108 24.3469 46.7672C24.3368 46.5199 24.3199 45.6078 24.7484 45.6245C25.2341 45.6479 25.1431 46.3696 25.1228 46.6536C25.1127 46.8574 25.0823 47.0645 25.0486 47.2583C25.0149 47.4454 24.9406 47.6927 25.1296 47.8297C25.2679 47.539 25.3083 47.1948 25.5276 46.8006C25.7334 46.4297 26.0944 46.1457 26.2664 45.8082C26.4047 45.5409 26.4587 45.0498 26.2833 44.8727C26.0775 44.6588 25.7907 44.729 25.6052 44.5519C25.4736 44.425 25.5108 44.2111 25.3927 44.0775C25.0587 43.6932 24.4414 43.7434 24.2086 44.1109C24.1513 44.2044 24.1951 44.2746 24.0804 44.4149C23.9016 44.6254 23.598 44.5018 23.3686 44.7691C22.9976 45.2035 23.2506 46.0354 23.3956 46.3662C23.6149 46.8674 23.9421 47.3619 24.5223 47.676L24.5291 47.6726Z" fill="#138DA9"/>
<path d="M24.9427 49.8579C24.6559 49.9648 24.6121 50.2956 24.5682 50.5395C24.4266 51.2612 24.5143 52.1733 25.0439 52.6712C25.5432 53.1389 26.2077 52.9084 26.5586 52.581C26.6328 52.5108 26.6732 52.4005 26.7576 52.3471C27.0882 52.1299 27.5706 52.4306 27.9349 52.3571C28.2655 52.2869 28.5792 52.0297 28.7378 51.7891C29.0009 51.3848 28.8862 51.1041 28.8086 50.7734C28.6669 50.1886 29.0346 49.6273 28.2014 49.1896C27.4154 48.7786 26.4843 48.9958 25.8366 49.1896C25.7658 49.2097 25.6747 49.2163 25.6376 49.2865C25.9986 49.6674 26.5484 49.1796 26.8048 49.6941C26.7981 49.8378 26.5653 49.9815 26.6092 50.1318C26.7002 50.3123 26.879 50.2588 27.0241 50.3991C27.2231 50.5862 27.159 50.9872 26.8858 51.1008C26.5383 51.2411 26.3055 50.7734 25.9783 50.6096C25.8366 50.7433 25.9345 50.897 25.7827 51.0473C25.5027 51.3313 25.0743 50.8469 25.0641 50.5428C25.0506 50.2388 25.1856 50.0049 24.9427 49.8579Z" fill="#138DA9"/>
<path d="M20.0914 46.6837C20.3242 46.5233 20.1656 46.2727 20.3208 46.0856C20.4659 45.9119 21.0258 45.8751 21.1642 46.1524C21.1203 46.3596 20.8437 46.2092 20.7526 46.3629C20.6885 46.4698 20.7526 46.5768 20.8369 46.6202C21.0427 46.7171 21.1102 46.383 21.2552 46.2593C21.4576 46.0789 21.7545 46.1858 21.8253 46.3997C21.7849 46.4865 21.6466 46.4565 21.5319 46.5734C21.4273 46.677 21.3497 46.824 21.5184 46.9042C21.7376 47.0044 21.8894 46.5233 22.0109 46.4999C22.2099 46.4565 22.6687 46.8942 22.8576 47.0846C23.259 47.4889 23.6841 48.097 23.9067 48.5481C24.0012 48.7352 24.1496 49.1495 24.3858 49.2798C24.5443 49.37 24.8277 49.3767 24.9727 49.1161C25.0841 48.9156 24.9289 48.6483 24.8243 48.4345C24.5342 47.8331 23.9675 47.1815 23.1072 46.7037C22.8576 46.5634 22.4798 46.4297 22.5304 46.1558C22.554 46.0355 22.753 45.8952 22.6788 45.7548C22.608 45.6178 22.4224 45.6379 22.355 45.7281C22.2706 45.8417 22.355 45.9219 22.3685 45.9887C22.3752 46.0154 22.4933 46.0889 22.3685 46.2326C22.301 46.3128 22.1762 46.2827 22.1391 46.266C21.9738 46.1959 21.9367 46.0422 21.9434 45.8684C21.9502 45.708 22.0682 45.5243 21.9333 45.4341C21.7984 45.3472 21.7174 45.4474 21.6702 45.5577C21.5825 45.7648 21.8658 45.8651 21.795 45.9954C21.7309 46.1123 21.5285 46.0923 21.4273 46.0355C21.2991 45.9586 21.2755 45.8049 21.2687 45.6847C21.262 45.5477 21.3092 45.3839 21.2316 45.3205C21.1068 45.2135 20.9752 45.3138 20.9415 45.3839C20.8471 45.5577 21.1844 45.6613 21.0798 45.835C20.9854 45.992 20.5502 45.8617 20.395 45.7314C20.3039 45.6579 20.25 45.531 20.2635 45.4441C20.2904 45.257 20.5232 45.2202 20.4288 45.0532C20.3545 44.9262 20.1353 45.003 20.0644 45.0198C19.9261 45.3405 19.7271 45.3873 19.5281 45.424C19.5112 45.4508 19.4943 45.4742 19.4774 45.5042C19.4774 45.7348 19.5854 45.9386 19.4336 46.1992C19.6562 46.3596 19.8789 46.6503 20.0948 46.6904L20.0914 46.6837Z" fill="#138DA9"/>
<path d="M20.1181 49.2965C20.28 49.4736 19.9561 49.918 20.145 50.1251C20.3036 50.2989 20.6241 50.2821 20.8197 50.2421C21.0963 50.1853 21.4674 49.9814 21.8216 49.7542C22.1758 49.527 22.7325 49.0459 23.0327 49.5371C22.4862 49.9948 21.5281 49.8678 21.0963 50.5528C20.9243 50.8234 20.8771 51.2578 21.1571 51.4716C21.2954 51.5785 21.4 51.5251 21.5147 51.6554C21.7946 51.9628 21.3696 52.611 21.6934 52.9885C22.0949 53.453 22.53 53.1857 22.8741 53.1356C23.225 53.0854 23.5994 53.1322 23.8862 52.9484C24.4327 52.1499 24.1324 51.4349 24.237 50.7366C24.2741 50.4993 24.4158 50.2688 24.3517 49.9981C23.8052 50.2187 24.2134 51.1108 23.6298 51.3847C23.1642 51.6086 23.2958 50.8134 23.144 50.6697C23.0597 50.5862 22.9618 50.5962 22.8741 50.5194C22.5672 50.2487 22.8978 49.9647 23.1609 49.801C23.37 49.6707 23.7917 49.5137 23.5151 49.2597C23.3093 49.0726 22.6582 49.1328 22.4052 49.1127C22.2636 49.1027 22.1657 49.1428 22.0207 49.0726C21.7913 48.959 21.7137 48.7519 21.8014 48.5714C22.1354 47.9065 23.1541 48.8855 23.596 48.6817C23.1136 48.0669 22.4356 47.7428 21.7677 47.6459C21.0356 47.5423 20.5127 47.5925 20.0405 48.4111C19.6694 48.4111 19.4096 48.8889 19.7706 49.1394C19.8651 49.2063 20.0304 49.1996 20.1214 49.2998L20.1181 49.2965Z" fill="#138DA9"/>
<path d="M24.297 53.0086C24.0338 53.4864 23.9529 54.0978 24.0642 54.5522C24.3307 55.6448 26.2097 56.4634 27.0328 55.9355C27.0598 55.8921 27.0868 55.852 27.1171 55.8085C27.2588 55.0434 27.5489 54.2415 27.188 53.5332C27.0969 53.3561 26.9114 53.0053 26.6381 52.9117C26.402 52.8282 26.095 53.1055 25.8386 53.1222C25.535 53.1422 25.3765 53.0286 25.0189 52.8449C25.0324 53.2358 25.1336 53.6802 25.5182 54.0678C25.7307 54.2849 26.6786 54.9031 26.4728 55.2238C26.321 55.4544 25.815 55.2138 25.5418 55.01C24.7693 54.4353 24.7085 53.4129 24.6276 52.6444C24.4555 52.7213 24.3678 52.885 24.2936 53.0153L24.297 53.0086Z" fill="#138DA9"/>
<path d="M20.2219 56.8477C20.5222 56.8076 20.7853 56.567 21.1226 56.41C21.858 56.0691 22.8161 55.8152 23.3592 54.7961C23.5346 54.4687 23.6864 53.7403 23.3423 53.4964C23.1163 53.3394 22.7621 53.4563 22.5698 53.5666C22.2257 53.7637 21.8749 54.1747 21.551 54.6024C21.2306 55.0267 20.9607 55.5746 20.5694 55.7584C20.3164 55.4744 20.4412 55.0634 20.6234 54.7327C20.9438 54.1546 21.5139 53.8172 21.8816 53.463C21.18 53.1556 20.3872 53.7303 19.9925 54.4386C19.6518 55.0501 19.6619 55.725 19.8441 56.2395C19.9116 56.43 20.0398 56.6071 20.1275 56.7808C20.1578 56.8009 20.1916 56.8209 20.2253 56.841L20.2219 56.8477Z" fill="#138DA9"/>
<path d="M30.2913 59.417C30.3521 59.6442 30.3925 59.8781 30.5106 60.0652C30.5241 59.9115 30.5511 59.7445 30.5814 59.5774C30.6084 59.4204 30.6051 59.2099 30.767 59.1096C30.9357 59.1698 30.8648 59.4404 30.9559 59.4805C31.1381 59.2968 31.4585 59.0261 31.6441 59.2199C31.86 59.4404 31.0099 59.9182 30.9795 60.2089C31.4518 59.965 31.6643 59.6041 32.1096 59.4839C32.4233 59.4003 32.7404 59.4705 33.0474 59.4104C33.206 59.3769 33.3982 59.2567 33.4657 59.0562C33.6512 58.5283 33.0778 57.8801 32.4638 57.576C32.3289 57.5092 32.1771 57.4825 32.0421 57.3989C31.8735 57.2954 31.833 57.1851 31.6879 57.0949C31.472 56.9646 31.2325 56.9713 31.0605 57.008C30.8851 57.0481 30.7467 57.1951 30.5713 57.2486C30.3757 57.3054 30.1092 57.1149 29.9203 57.302C29.7111 57.5092 29.873 57.8667 29.9304 58.0906C30.0518 58.5684 30.1766 58.9793 30.288 59.4137L30.2913 59.417Z" fill="#138DA9"/>
<path d="M29.3367 55.5913C29.2085 55.5045 29.0871 55.5111 28.9892 55.6381C28.7464 55.9488 29.3165 56.2362 29.4447 55.862C29.4683 55.7951 29.4514 55.6715 29.3367 55.5913Z" fill="#138DA9"/>
<path d="M28.0627 54.8897C28.1201 54.9999 28.2382 54.9899 28.2786 54.9197C28.363 54.7727 28.0526 54.6691 28.0627 54.8897Z" fill="#138DA9"/>
<path d="M28.7832 55.3775C28.817 55.3107 28.817 55.2272 28.6921 55.1771C28.3109 55.02 28.5808 55.7584 28.7832 55.3775Z" fill="#138DA9"/>
<path d="M31.7618 61.1311C31.4279 61.0375 31.1243 60.9607 30.8375 60.964C30.7869 60.964 30.7093 60.9473 30.6992 60.9974C31.3806 61.258 32.1329 61.3716 32.8245 62.0031C33.2394 62.384 33.4823 62.8184 33.8702 63.1592C34.3088 63.5434 34.8688 63.5969 35.2297 63.2227C35.5367 62.9086 35.3545 62.6146 35.4895 62.3105C35.5603 62.1502 35.756 62.1 35.8336 61.9129C35.847 61.8762 35.8605 61.8093 35.8605 61.7693C35.8437 61.2814 35.2769 60.6499 34.7372 60.2824C33.4924 59.4337 32.1363 59.5674 31.1243 60.4161C31.2626 60.4161 31.4245 60.3325 31.6168 60.2858C31.772 60.2457 32.278 60.2022 32.1532 60.4795C32.0283 60.7602 31.6438 60.513 31.5055 60.6666C31.6539 60.6666 32.3488 60.9106 32.1329 61.1545C32.0486 61.248 31.8968 61.1678 31.7652 61.1311H31.7618Z" fill="#138DA9"/>
<path d="M27.7846 54.9398C27.8352 54.8663 27.8251 54.7828 27.7205 54.726C27.653 54.6892 27.5957 54.6926 27.5687 54.7126C27.3157 54.883 27.6496 55.1336 27.7846 54.9431V54.9398Z" fill="#138DA9"/>
<path d="M29.2422 56.46C29.2658 56.6004 29.4682 56.5803 29.4615 56.4366C29.4109 56.323 29.2658 56.3397 29.2422 56.46Z" fill="#138DA9"/>
<path d="M30.3463 60.7134C30.407 60.6132 30.2754 60.2189 30.2248 60.0352C29.9178 58.8758 29.513 57.7932 28.9564 56.7207C28.727 56.2763 28.4808 55.7818 28.167 55.4076C28.1502 55.3875 28.1198 55.3875 28.1063 55.3942C28.0928 55.3808 28.0793 55.4042 28.0658 55.3942C28.0085 55.5212 28.1299 55.6314 28.1805 55.725C28.9328 57.1584 29.5265 58.6185 29.5906 60.1354C29.6007 60.3258 29.5501 60.7067 29.6648 60.8304C29.7762 60.9473 30.2349 60.9072 30.3496 60.7101L30.3463 60.7134Z" fill="#138DA9"/>
<path d="M27.6286 55.755C27.7703 55.6615 27.7129 55.5178 27.6016 55.4777C27.3047 55.3674 27.3958 55.9087 27.6286 55.755Z" fill="#138DA9"/>
<path d="M27.5752 56.5503C27.8316 56.7374 28.1082 56.2964 27.7877 56.1594C27.5448 56.0591 27.3694 56.4033 27.5752 56.5503Z" fill="#138DA9"/>
<path d="M28.1204 56.7374C28.171 56.7908 28.2418 56.7908 28.3059 56.6872C28.3093 56.4567 27.9922 56.6037 28.1204 56.7374Z" fill="#138DA9"/>
<path d="M28.2036 57.2553C28.2913 57.3321 28.46 57.2753 28.4735 57.1283C28.3757 56.8042 28.0215 57.1016 28.2036 57.2553Z" fill="#138DA9"/>
<path d="M25.5697 62.6848C25.6035 62.8652 25.7114 63.1125 25.9307 63.2461C26.3422 63.5 26.7977 63.1759 27.2025 63.4599C27.388 63.5902 27.415 63.7172 27.5331 63.8342C27.7996 64.1015 28.1302 64.068 28.3427 63.7439C28.481 63.5301 28.5282 63.2361 28.6362 62.9654C28.8554 62.3974 29.2198 61.9163 29.7359 61.4051C29.5099 61.3282 29.24 61.3683 29.0309 61.5254C28.9499 61.5889 28.8892 61.7258 28.7644 61.6924C28.707 61.5354 28.8318 61.3583 28.8858 61.1879C28.7003 61.1879 28.5451 61.3115 28.3461 61.4251C28.201 61.5053 27.9446 61.7192 27.7962 61.5788C27.5668 61.3616 28.1032 61.1512 28.2617 61.081C28.4506 60.9975 28.6227 60.934 28.761 60.8504C28.6463 60.787 28.4979 60.8738 28.4102 60.7636C28.5788 60.5431 28.8824 60.7836 29.0983 60.6867C28.2853 60.092 27.2092 60.3626 26.4165 60.7168C26.1533 60.8337 25.8025 60.9874 25.5967 61.1979C25.2796 61.522 25.5124 61.7359 25.5697 62.0132C25.617 62.2471 25.5293 62.4743 25.5697 62.6814V62.6848Z" fill="#138DA9"/>
<path d="M40.9247 60.7402C41.1946 60.6867 41.4071 60.5831 41.6837 60.4662C41.3565 60.3593 41.0327 60.2858 40.6886 60.0252C40.3512 59.7712 40.0206 59.4371 39.69 59.1431C39.012 58.5417 38.2698 58.2075 37.5985 58.0538C36.2424 57.7464 34.974 58.1441 33.7461 59.1932C33.8304 59.26 33.9181 59.3302 33.9991 59.397C34.9639 59.0295 35.9894 58.986 37.0453 59.24C38.0135 59.4739 39.066 60.0051 40.0139 60.2223C40.078 60.2357 40.1691 60.2524 40.1488 60.2791C38.2597 60.082 36.2559 58.7321 34.4815 59.6576C35.335 59.7946 36.1412 60.7034 36.4786 61.3082C36.5393 61.4184 36.5966 61.5788 36.6641 61.639C36.7788 61.7459 37.0149 61.8027 37.1499 61.8328C37.7065 61.9464 38.1349 61.7526 38.6375 61.4519C38.9681 61.2581 39.2987 60.9607 39.6361 60.8404C40.0577 60.6901 40.503 60.8304 40.9281 60.7402H40.9247Z" fill="#138DA9"/>
<path d="M32.9649 64.6628C33.2887 64.2685 33.2212 63.7439 33.0661 63.2895C32.9143 62.8485 32.6309 62.344 32.2564 62.0032C31.7538 61.5387 31.241 61.3516 30.7586 61.2848C31.0859 61.6791 31.4569 62.1201 31.15 62.5444C31.0622 62.3039 31.096 62.0499 30.8025 61.8294C30.7519 61.9998 30.9543 62.2504 30.7519 62.4041C30.6979 62.4442 30.6068 62.4308 30.5596 62.3941C30.3471 62.2404 30.4348 61.7626 30.1919 61.5888C30.0097 62.0299 30.0097 62.4509 29.8816 62.9019C29.7871 63.2427 29.6791 63.5635 29.5408 63.8976C29.4936 64.0146 29.4059 64.1349 29.3823 64.2451C29.3114 64.5726 29.7736 64.7764 30.0502 64.7496C30.2425 64.7296 30.4112 64.5859 30.5866 64.6561C30.735 64.7162 30.8565 64.9033 30.9745 64.9869C31.123 65.0938 31.3186 65.1807 31.5109 65.184C31.7639 65.1907 32.0068 64.9568 32.2902 64.7262C32.5499 64.7396 32.749 64.9234 32.9615 64.6694L32.9649 64.6628Z" fill="#138DA9"/>
<path d="M25.1132 60.9006C24.8062 61.0242 24.4183 60.7836 24.0607 60.6867C23.6896 60.5831 23.3455 60.6433 23.0453 60.7168C23.2814 60.4762 23.521 60.4127 23.7807 60.4228C24.1585 60.4395 24.5532 60.6901 24.9142 60.5397C24.7759 60.3994 24.7657 60.249 24.7084 60.102C24.6814 59.9984 24.7961 59.7679 24.6915 59.7245C23.973 59.4104 23.2983 59.3168 22.5663 59.4972C21.6487 59.7211 20.5962 60.4194 19.9688 61.5588C20.0834 61.5187 20.1543 61.4452 20.2622 61.4686C20.4579 61.5153 20.6401 61.8094 20.7986 61.9731C21.3991 62.5979 22.0603 62.8385 22.6709 62.9053C23.5108 62.9988 24.2395 62.8518 25.0154 62.1301C24.8534 61.7425 24.7219 61.3449 25.1132 60.9006Z" fill="#138DA9"/>
<path d="M28.4194 64.1181C28.0348 64.5257 27.5018 64.5525 27.0869 64.0212C26.2233 64.1883 25.3597 64.91 24.6108 65.8923C24.9785 65.0837 25.8219 64.1749 26.4797 63.8241C26.1491 63.8775 25.5959 63.8074 25.3057 63.3998C25.2416 63.3129 25.2282 63.1959 25.1641 63.1224C24.1183 63.4398 23.4504 64.783 23.4774 65.6818C23.4976 66.32 23.6966 66.9414 24.1959 67.4627C24.1959 67.2889 24.1959 67.0317 24.3679 66.8579C24.5467 66.6708 24.9583 66.604 25.2147 66.5639C26.1322 66.4102 26.9351 66.3066 27.7818 65.5849C29.0064 64.5358 29.3336 63.1325 29.6743 61.953C29.057 62.4843 29.0131 63.49 28.4194 64.1215V64.1181Z" fill="#138DA9"/>
<path d="M25.2417 60.0051C25.3024 60.366 25.6971 60.5831 26.0041 60.5297C26.3279 60.4662 26.6821 60.3125 27.0465 60.2223C27.3872 60.1387 27.7549 60.0318 28.099 60.0586C28.4802 60.0853 28.7939 60.2457 29.1987 60.4395C29.0435 60.3125 28.8883 60.1889 28.7365 60.0652C28.7298 59.9784 28.7939 59.9416 28.75 59.8714C28.6927 59.7913 28.4768 59.8013 28.4835 59.6576C28.5274 59.4237 28.804 59.5407 28.9255 59.7244C29.0132 59.5975 28.8546 59.4905 28.9693 59.3602C29.1818 59.397 29.2459 59.6777 29.3809 59.8213C29.391 59.6476 29.3168 59.4505 29.2594 59.25C29.1683 58.9393 29.1413 58.6953 28.8546 58.4314C28.2204 57.8534 27.1747 57.2853 26.5405 57.5226C26.1964 57.6529 26.0513 58.0338 25.7781 58.2877C25.6566 58.4013 25.5048 58.4481 25.3564 58.6018C25.353 58.6452 25.4745 58.5751 25.4677 58.6218C25.4002 58.6285 25.3665 58.6051 25.3193 58.6452C25.1135 58.8223 25.3125 59.1665 25.326 59.3268C25.3496 59.5373 25.2046 59.7746 25.2451 60.0051H25.2417Z" fill="#138DA9"/>
</g>
<path d="M29.1516 30.4052C29.4721 30.5188 29.806 30.3985 29.9005 30.1379L30.1906 29.3326C30.2547 29.1489 30.1839 28.9517 30.0287 28.8047C29.9983 28.7346 29.9376 28.6811 29.8566 28.6644C29.8364 28.6611 29.381 28.5608 29.3709 28.1899C29.3709 28.0563 29.2528 27.9494 29.1179 27.9527C28.9829 27.9561 28.875 28.0697 28.8783 28.2033C28.8851 28.4539 28.9829 28.641 29.1179 28.788C29.0841 28.8281 29.0504 28.8715 29.0335 28.925L28.7434 29.7302C28.649 29.9909 28.8345 30.2949 29.1516 30.4052Z" fill="#138DA9"/>
<path d="M29.1665 26.4826C29.2171 26.4692 30.4011 26.2153 31.0421 27.2143C31.1095 27.3145 31.2209 27.3713 31.3322 27.3713C31.3963 27.3713 31.4604 27.3546 31.5177 27.3145C31.6797 27.2143 31.7235 27.0005 31.6223 26.8401C30.7115 25.4301 29.0754 25.7943 29.0079 25.811C28.8224 25.8544 28.7077 26.0382 28.7515 26.222C28.7954 26.4057 28.9809 26.5193 29.1665 26.4792V26.4826Z" fill="#138DA9"/>
<path d="M57.9424 50.9971C56.9776 48.0668 55.6451 45.4172 53.9786 43.1151C51.6071 39.8341 49.2727 38.2203 48.4901 37.7358C48.5002 37.6756 48.5002 37.6155 48.4901 37.552C48.426 37.0609 47.8289 36.6131 47.6029 36.4628C47.4578 36.2623 46.9822 35.7043 46.0983 35.5172C45.4776 35.3802 44.7962 35.4571 44.0642 35.7344C43.5953 34.8189 43.6256 33.8666 44.1721 32.901C44.749 31.8753 45.6126 31.1903 46.5234 30.4686C47.9942 29.3025 49.519 28.093 49.7652 25.3866C50.0891 21.8349 48.0819 20.0908 45.4911 19.055C45.5147 19.0082 45.5384 18.9648 45.5586 18.918C45.7239 18.5405 45.6834 17.8154 45.4844 16.9935L50.0216 19.2187C50.0216 19.2187 50.0216 19.2354 50.0216 19.2455C50.0081 19.7132 50.0486 20.5118 50.5209 20.5251C50.9932 20.5385 51.3878 20.171 51.4013 19.7065C51.4115 19.4526 51.3035 19.2254 51.1315 19.065C51.0977 19.0116 51.0573 18.9614 50.9965 18.9314L45.2449 16.1114C45.2449 16.1114 45.2314 16.108 45.2246 16.108C45.1133 15.7906 44.9817 15.4732 44.8367 15.1692C44.1249 13.689 43.15 12.7167 42.0941 12.4327C40.964 12.1286 39.8305 12.4026 38.8185 12.964L32.065 9.64946C31.8929 9.56593 31.6871 9.6361 31.6028 9.8065C31.5185 9.9769 31.5859 10.1807 31.758 10.2642L38.1371 13.395C37.4961 13.8527 36.9193 14.4107 36.4538 14.9821C35.8769 15.6871 35.7723 16.5758 35.9174 17.1973C34.116 17.2407 32.6081 17.655 31.4206 18.4302C29.744 19.5295 29.2785 20.9963 29.1841 21.3772C27.4434 23.3685 27.4872 25.6639 27.4974 25.9446C27.4737 26.2386 27.1027 30.1178 24.2083 30.7192C24.2015 30.7192 24.1948 30.7192 24.188 30.7226C24.1172 30.7426 23.4762 30.9297 23.402 31.471C23.3143 32.1426 23.6348 32.6471 24.3938 33.0113C25.0213 33.312 25.0786 34.2977 25.0246 34.6051C24.9909 34.8189 24.9336 35.9582 25.3586 37.1978C25.8545 38.658 26.8294 39.7104 28.1788 40.2751C27.9831 40.7395 27.8617 41.2908 27.919 41.8956C28.0371 43.1419 27.8381 44.2846 27.6357 45.1633C27.1431 45.2502 26.6506 45.3905 26.175 45.611C23.0714 47.0411 20.1366 50.83 19.02 52.6343C18.6253 53.2691 18.5342 54.619 22.2888 58.9726C23.655 60.5597 25.1056 62.0398 25.895 62.8284H20.2546C20.0624 62.8284 19.9072 62.9821 19.9072 63.1692C19.9072 63.3563 20.0624 63.5133 20.2546 63.5133H41.7163C41.9086 63.5133 42.0637 63.3563 42.0637 63.1692C42.0637 62.9821 41.9086 62.8284 41.7163 62.8284H39.8542C40.2657 62.2904 40.8999 61.3582 41.6454 59.9115C42.0705 61.4451 42.9847 62.6412 44.3813 63.4632C44.4352 63.4966 44.496 63.5133 44.5567 63.5133C44.6748 63.5133 44.7895 63.4532 44.8536 63.3462C44.9514 63.1825 44.8974 62.972 44.7321 62.8785C43.2579 62.0098 42.3876 60.6733 42.1346 58.9124C43.0049 57.0514 43.9798 54.5288 44.8907 51.1809C44.9413 51.0004 44.8333 50.81 44.6478 50.7599C44.4622 50.7131 44.2733 50.82 44.2261 51.0004C42.0502 58.9926 39.4763 62.2403 38.9636 62.8284H26.8733C26.428 62.394 24.5524 60.5496 22.8117 58.5315C19.2291 54.3717 19.4518 53.2424 19.6069 52.9918C20.8652 50.9637 23.7259 47.4955 26.4651 46.2292C28.7658 45.17 31.704 46.1156 32.5271 46.4163C32.3382 50.0382 32.2437 53.7102 32.2404 53.7503C32.2404 53.7703 32.2471 53.787 32.2505 53.8071C31.4611 55.197 30.5064 56.9511 29.9026 58.3444C29.825 58.5182 29.9093 58.7187 30.0848 58.7955C30.1286 58.8156 30.1758 58.8222 30.2197 58.8222C30.3546 58.8222 30.4828 58.7454 30.5368 58.6151C31.6972 55.9321 34.1936 51.8591 34.2172 51.8157C34.2172 51.809 34.2239 51.8057 34.2239 51.799C34.2374 51.7789 35.2629 49.8778 37.7829 45.4908C40.1611 41.3476 43.1162 40.6861 43.2883 40.6493C43.4603 40.6326 45.427 40.4221 46.6111 40.6493C46.8 40.6861 46.9788 40.5625 47.0159 40.3787C47.053 40.1949 46.9282 40.0145 46.7427 39.9777C46.4829 39.9276 46.1894 39.8975 45.8892 39.8808C46.6482 39.5233 47.4781 39.0155 48.119 38.3272C48.8375 38.7749 51.1416 40.362 53.4423 43.5562C55.9858 47.0879 59.0354 53.3627 59.1231 63.1725C59.1231 63.3596 59.2783 63.5133 59.4705 63.5133C59.6628 63.5133 59.8146 63.3563 59.8146 63.1658C59.7741 58.7487 59.1433 54.6591 57.9424 51.0071V50.9971ZM25.7803 35.985C25.9253 36.0117 26.0805 36.0251 26.2458 36.0251C26.8632 36.0251 27.5783 35.8112 27.9966 35.0661C28.0877 34.8991 28.027 34.6953 27.8583 34.6017C27.693 34.5115 27.4839 34.5716 27.3894 34.7387C26.9374 35.5506 25.949 35.3368 25.7061 35.27C25.6892 34.9292 25.7061 34.712 25.7061 34.7053C25.8005 34.1506 25.6757 32.8543 24.694 32.3831C24.016 32.059 24.0598 31.7383 24.0868 31.5478C24.0936 31.5044 24.2251 31.4142 24.3601 31.3741C27.8516 30.639 28.172 26.1484 28.1855 25.958C28.1855 25.9446 28.1855 25.9279 28.1855 25.9145C28.1855 25.8945 28.0742 23.716 29.6698 21.8516C30.2433 21.8149 32.4967 21.7614 33.6639 23.0478C34.3386 23.7929 34.4027 24.5613 34.4567 25.2396C34.5208 25.9981 34.5849 26.7799 35.6172 27.0238C37.1149 27.378 37.1689 28.2567 36.7236 30.2113C36.5448 30.9832 36.6123 31.5712 36.9193 31.9621C37.1892 32.3096 37.5535 32.3731 37.6716 32.3831C37.8807 32.4232 39.2672 32.627 40.7043 31.7283C40.8426 32.0824 40.8392 32.5903 40.6908 33.2151C40.4816 34.1005 40.1105 34.712 39.5809 35.0327C38.9804 35.4036 38.3564 35.2633 38.353 35.2633C38.1776 35.2198 37.9988 35.3167 37.9414 35.4838C37.7593 36.0084 37.5096 36.4427 37.2499 36.8002C37.7255 35.2365 37.4725 33.9168 36.953 33.2686C36.7506 33.0146 36.4976 32.8609 36.2379 32.8242C36.022 32.0991 35.715 31.7684 35.2933 31.765C34.848 31.7583 34.5343 32.0357 34.3521 32.3898C34.1835 32.3464 34.008 32.3698 33.8259 32.4734C33.5223 32.5936 33.3334 32.9278 33.2996 32.9946C33.2693 33.0514 33.2322 33.1282 33.195 33.2084C33.1546 33.2084 33.1175 33.2084 33.0803 33.2218C32.6688 33.312 32.3989 33.7631 32.3584 34.428V34.4547C32.3314 34.8924 32.2707 35.9115 31.8524 36.3959C31.3801 36.9406 29.5922 38.5243 29.1098 38.9253C28.9344 39.0756 28.7017 39.3262 28.4891 39.657C26.5798 38.8852 25.9625 37.1778 25.7735 35.9816L25.7803 35.985ZM28.3609 45.0631C28.5566 44.1676 28.7219 43.0483 28.6072 41.8188C28.4925 40.6259 29.2583 39.7038 29.5619 39.4465C29.9667 39.109 31.8524 37.4518 32.3821 36.8403C32.9555 36.1788 33.023 35.0428 33.0534 34.4948V34.4681C33.077 34.0972 33.1883 33.9234 33.2322 33.8934C33.2996 33.9168 33.5358 34.1774 33.5762 35.0862C33.6235 36.2523 32.463 37.6322 32.4495 37.6489C32.3247 37.7959 32.3449 38.0098 32.49 38.13C32.6351 38.2537 32.8543 38.237 32.9758 38.0899C33.0297 38.0265 34.3285 36.4928 34.2644 35.0561C34.2341 34.3311 34.0856 33.8132 33.8225 33.5091C33.8495 33.449 33.8798 33.3788 33.9136 33.3187C33.9608 33.2285 34.0519 33.1249 34.0924 33.1082C34.1261 33.0948 34.1531 33.0815 34.1733 33.0681C34.1767 33.0681 34.1835 33.0614 34.1868 33.0581C34.2442 33.1048 34.4634 33.3488 34.6726 34.3745C35.0504 36.2222 33.7415 37.6122 33.7213 37.6322C33.5897 37.7692 33.5931 37.983 33.7314 38.1133C33.7989 38.1768 33.8832 38.2069 33.9709 38.2069C34.062 38.2069 34.1531 38.1735 34.2206 38.1033C34.2847 38.0365 35.8027 36.4461 35.3507 34.2342C35.2225 33.6127 35.0774 33.1683 34.8986 32.8676C34.9526 32.6905 35.074 32.4466 35.2866 32.4466C35.2866 32.4466 35.634 32.5803 35.8465 34.5349C36.0253 36.1821 34.8008 37.8126 34.7907 37.826C34.676 37.9763 34.7063 38.1935 34.8581 38.3071C34.9189 38.3506 34.9931 38.374 35.0673 38.374C35.1719 38.374 35.2731 38.3272 35.3405 38.237C35.3979 38.1601 36.7439 36.3826 36.5347 34.458C36.5044 34.1907 36.4706 33.9435 36.4369 33.7196C36.8248 34.2442 37.1015 35.6141 36.2986 37.3582C35.3338 39.4532 33.6133 40.9133 32.5845 41.782C32.4259 41.919 32.2842 42.0393 32.1695 42.1395C31.4341 42.7944 31.2924 44.4784 31.2722 45.3036C30.4525 45.1165 29.4236 44.9729 28.3609 45.0497V45.0631ZM38.1809 43.5729C38.1776 43.5896 38.1809 43.603 38.1809 43.6197C37.8436 44.0707 37.5096 44.5753 37.1858 45.1399C34.7468 49.39 33.7011 51.3145 33.6235 51.4582C33.5864 51.5183 33.3334 51.936 32.969 52.5541C33.0129 51.1241 33.1006 48.6315 33.2322 46.1958C33.2389 46.0521 33.1579 45.9218 33.0264 45.865C32.9758 45.8416 32.5811 45.6745 31.9671 45.4974C31.9806 44.5318 32.1594 43.0918 32.6384 42.6641C32.7498 42.5638 32.8847 42.4502 33.0432 42.3166C33.5223 41.909 34.1969 41.3376 34.8851 40.6059C34.9155 40.5992 37.206 40.0813 38.9669 41.1939C38.4171 42.4803 38.2046 43.486 38.1877 43.5729H38.1809ZM35.5699 39.8174C35.887 39.4231 36.194 38.9921 36.474 38.5243C36.7742 38.3272 37.8841 37.5052 38.5048 35.9683C38.8388 35.9883 39.3886 35.9549 39.9385 35.6241C40.5659 35.2432 41.0146 34.5883 41.2845 33.6729L43.0454 34.4213C43.0454 35.0361 43.2141 35.574 43.43 36.0084C43.1466 36.1554 42.8599 36.3224 42.563 36.5229C40.9775 37.5954 39.925 39.1692 39.2503 40.5591C37.9549 39.7739 36.474 39.7372 35.5699 39.814V39.8174ZM47.8053 37.6389C47.8053 37.6389 47.7985 37.6456 47.7952 37.6489C47.7952 37.6489 47.7918 37.6522 47.7884 37.6556C46.5234 39.1959 44.0169 39.8441 43.7707 39.9076C43.4468 39.931 43.2309 39.9543 43.204 39.961C43.1972 39.961 43.1905 39.961 43.1837 39.961C43.0825 39.9777 41.2575 40.3219 39.2571 42.3701C39.7833 40.8765 40.8932 38.4876 42.9577 37.0876C44.1114 36.3057 45.1133 35.9983 45.9432 36.1721C46.7157 36.3325 47.053 36.8604 47.0665 36.8804C47.0935 36.9272 47.1306 36.964 47.1745 36.994C47.4949 37.1945 47.8154 37.5186 47.812 37.6289C47.812 37.6289 47.812 37.6355 47.8053 37.6389Z" fill="#138DA9"/>
<path d="M75.8478 64.6193H0.344088C0.155177 64.6193 0 64.773 0 64.9601C0 65.1472 0.155177 65.3009 0.344088 65.3009H75.8478C76.0367 65.3009 76.1952 65.1472 76.1952 64.9601C76.1952 64.773 76.04 64.6193 75.8478 64.6193Z" fill="#138DA9"/>
<path d="M75.8478 62.8217H0.344088C0.155177 62.8217 0 62.9754 0 63.1625C0 63.3496 0.155177 63.5033 0.344088 63.5033H75.8478C76.0367 63.5033 76.1952 63.3496 76.1952 63.1625C76.1952 62.9754 76.04 62.8217 75.8478 62.8217Z" fill="#138DA9"/>
</svg>
